<svg version="1.1" id="Layer_1" xmlns="http://www.w3.org/2000/svg" xmlns:xlink="http://www.w3.org/1999/xlink" x="0px" y="0px"
	 width="100%" viewBox="0 0 490 490" enable-background="new 0 0 490 490" xml:space="preserve">
<path fill="#2D3F51" opacity="1.000000" stroke="none" 
	d="
M215.000000,1.000000 
	C235.354233,1.000000 255.708450,1.000000 276.564880,1.397242 
	C277.742920,2.181465 278.388031,2.834724 279.099091,2.916860 
	C302.835052,5.658662 325.566162,12.237097 347.175171,22.177048 
	C378.391724,36.536392 405.812775,56.191776 428.747406,82.092598 
	C446.841980,102.527412 461.428955,125.024200 472.031311,150.130859 
	C480.448273,170.062408 486.311707,190.701111 489.077911,212.197174 
	C489.206635,213.197327 490.336456,214.068665 491.000000,215.000000 
	C491.000000,235.354233 491.000000,255.708450 490.602570,276.563843 
	C489.094025,282.984039 488.115967,288.931671 486.849640,294.817322 
	C479.974396,326.772705 467.952545,356.693390 449.506897,383.674377 
	C436.294281,403.000854 420.800079,420.427887 402.421234,435.284058 
	C383.716156,450.403809 363.582062,462.907257 341.443604,472.229065 
	C321.644379,480.565918 301.145233,486.330475 279.810059,489.077667 
	C278.807465,489.206787 277.933746,490.336334 277.000000,491.000000 
	C256.645782,491.000000 236.291550,491.000000 215.432678,490.603210 
	C211.962784,489.485718 209.033722,488.506592 206.026489,488.085663 
	C184.347610,485.051025 163.690857,478.477753 143.920853,469.343903 
	C112.863808,454.995361 85.647797,435.353973 62.909534,409.544281 
	C50.467712,395.421844 39.424992,380.372894 30.518223,363.861542 
	C16.234491,337.382355 6.458344,309.344727 2.894491,279.309753 
	C2.795638,278.476654 1.654897,277.767151 0.999997,277.000000 
	C1.000000,256.645782 1.000000,236.291550 1.399848,215.429855 
	C2.244000,212.580566 2.669924,210.235077 3.135546,207.897491 
	C6.565361,190.678680 10.607537,173.656891 17.012838,157.220810 
	C29.411818,125.404884 47.647663,97.397728 71.507332,73.092514 
	C87.142052,57.165844 104.867661,43.891457 124.292572,32.806583 
	C151.696686,17.168352 180.890488,7.028958 212.187042,2.921453 
	C213.191452,2.789629 214.065292,1.662923 215.000000,1.000000 
M41.091301,282.421112 
	C42.722225,281.658142 44.353153,280.895203 46.613819,279.914307 
	C46.895618,279.570831 47.177418,279.227356 48.088612,278.866669 
	C48.385273,277.883972 48.681934,276.901245 49.442093,275.481812 
	C49.598843,274.663116 49.755589,273.844452 50.022694,272.708191 
	C50.022694,272.708191 49.908928,272.391846 49.981434,271.541443 
	C51.922756,261.129791 53.864075,250.718124 55.924137,239.669632 
	C61.641636,244.665787 66.847260,249.214661 72.591476,254.234177 
	C77.339828,240.379395 81.835732,227.261185 86.705208,213.764053 
	C86.811241,213.253006 86.917267,212.741943 87.503853,211.660553 
	C92.736328,197.026535 97.968803,182.392502 103.399689,167.203583 
	C106.862572,170.500656 109.719170,173.220474 112.767311,176.269745 
	C113.461952,176.783386 114.156593,177.297043 115.219193,178.402313 
	C124.133797,186.897781 133.144165,195.296356 141.900162,203.952255 
	C144.288849,206.313629 145.912659,209.448685 147.849167,212.868103 
	C147.986588,213.269150 148.123993,213.670212 148.363129,214.798096 
	C151.538452,225.045807 154.713776,235.293518 157.889099,245.541245 
	C158.449585,245.614777 159.010056,245.688324 159.570541,245.761856 
	C163.316940,235.194565 167.063339,224.627274 170.969376,213.363800 
	C170.991608,212.887497 171.013840,212.411179 171.490463,211.325333 
	C171.844040,209.712326 172.221054,208.104034 172.547562,206.485565 
	C175.749374,190.614838 178.942795,174.742416 182.508179,158.257233 
	C183.266907,154.632919 184.025635,151.008606 184.976791,146.550323 
	C185.835373,142.616058 186.693970,138.681778 187.552567,134.747498 
	C188.194290,134.330841 188.835999,133.914185 189.477707,133.497528 
	C193.345825,137.987045 197.213943,142.476562 201.353027,147.573837 
	C204.007950,150.293839 206.662888,153.013840 209.879364,156.309113 
	C211.009338,152.779449 211.940018,149.872314 213.220718,146.318848 
	C221.025345,124.298912 228.829971,102.278976 236.905182,79.652969 
	C236.979156,79.219673 237.053131,78.786377 237.622681,77.793678 
	C240.209869,70.664543 242.797043,63.535400 245.696548,56.995602 
	C246.443115,58.039394 247.189682,59.083183 248.098267,60.822731 
	C250.886810,66.710701 253.675354,72.598679 256.543182,78.962181 
	C256.755432,79.503174 256.967712,80.044167 257.579529,81.307350 
	C258.408600,83.121704 259.218079,84.945312 260.069702,86.749008 
	C269.709564,107.165108 279.355896,127.578163 289.110504,148.551773 
	C289.389435,149.029968 289.668365,149.508163 289.993500,150.713593 
	C296.377533,162.003876 302.761597,173.294159 309.697388,185.560226 
	C311.284424,182.611542 312.272919,180.775009 313.729675,178.622452 
	C314.397156,177.505920 315.064667,176.389389 316.051178,174.585922 
	C320.531799,166.973999 325.012421,159.362076 329.905884,151.418686 
	C330.289886,150.454773 330.673889,149.490860 331.577301,148.050110 
	C333.570648,146.047684 335.542084,144.022888 337.560822,142.046432 
	C352.170471,127.742783 366.789642,113.448914 381.999207,98.860275 
	C382.447906,98.377541 382.896606,97.894806 383.912964,97.812881 
	C390.402649,106.908440 396.892334,116.004005 403.627319,125.443382 
	C408.262909,118.464371 412.567444,111.983734 417.993561,103.814522 
	C409.548981,95.972954 400.924683,87.964462 391.950348,79.484459 
	C391.353516,79.017845 390.756683,78.551231 389.814911,77.491104 
	C387.611420,75.798302 385.407928,74.105499 382.856567,71.891479 
	C382.341614,71.569504 381.826630,71.247528 380.913330,70.359734 
	C374.487640,65.923889 368.252716,61.175308 361.597229,57.116238 
	C347.003845,48.216003 331.815765,40.505310 314.809570,35.519032 
	C314.251617,35.371605 313.693695,35.224178 312.427979,34.781261 
	C291.779236,28.185562 270.648621,24.653242 248.605469,24.448202 
	C248.019867,24.565868 247.434250,24.683535 245.940155,24.651176 
	C224.802490,24.569468 204.077240,27.366453 183.175125,33.663261 
	C182.755554,33.811680 182.335999,33.960094 181.171082,34.093235 
	C157.630875,41.645084 135.579041,52.151062 115.136703,67.212273 
	C114.670692,67.632370 114.204674,68.052460 113.190002,68.734650 
	C109.412788,71.847435 105.635567,74.960220 101.298798,78.231850 
	C100.768875,78.802910 100.238945,79.373962 99.163445,80.287979 
	C77.870476,99.184799 60.645920,121.203178 47.672260,147.330338 
	C47.111095,148.745560 46.549934,150.160767 45.390778,152.021149 
	C36.445839,171.186890 30.297785,191.202133 26.976896,212.784195 
	C27.010382,213.235657 27.043869,213.687103 26.886751,214.929764 
	C26.588144,216.728851 26.192301,218.517944 26.005856,220.328583 
	C23.954773,240.247330 24.034628,260.128235 27.102169,280.514099 
	C27.312675,281.018951 27.523180,281.523834 27.749620,282.836243 
	C27.927052,284.132904 28.104485,285.429596 28.321388,287.014740 
	C32.546535,285.461975 36.559494,283.987213 41.091301,282.421112 
M313.133057,290.652191 
	C309.930756,291.436401 306.698883,292.117096 303.531036,293.021942 
	C285.073059,298.293915 266.630096,303.618500 247.593475,308.876129 
	C247.055344,309.055511 246.517212,309.234924 245.145172,309.455505 
	C224.064758,315.531128 202.984360,321.606750 181.297867,327.754486 
	C180.908463,327.867126 180.519073,327.979767 179.332443,328.067444 
	C158.492386,333.801605 137.652328,339.535767 116.136047,345.368805 
	C113.802536,346.145142 111.469025,346.921478 108.311523,347.878937 
	C91.426476,352.435394 74.541420,356.991882 57.112705,361.695038 
	C69.613014,381.530212 83.700851,398.651886 101.578278,413.640198 
	C105.521896,413.843628 109.465515,414.047028 113.670563,414.263916 
	C113.937492,417.694824 114.182869,420.848755 114.428253,424.002655 
	C114.735893,424.012970 115.043533,424.023315 115.351173,424.033630 
	C115.708542,422.551849 116.065918,421.070068 116.436417,419.533875 
	C120.590256,419.533875 124.508125,419.533875 129.332764,419.533875 
	C129.332764,424.530090 129.332764,429.212524 129.332764,433.894989 
	C129.781418,433.867218 130.230057,433.839478 130.678711,433.811707 
	C130.678711,427.839417 130.629227,421.866608 130.689743,415.894928 
	C130.792923,405.715637 129.277557,406.829559 140.091858,406.531647 
	C144.158279,406.419647 145.201096,407.937927 145.103485,411.758606 
	C144.873779,420.750732 145.011063,429.752747 145.046829,438.750610 
	C145.052811,440.255341 145.294571,441.759125 145.427399,443.263367 
	C145.942062,443.244934 146.456741,443.226471 146.971405,443.208008 
	C146.971405,437.189850 146.881805,431.170044 146.991180,425.153870 
	C147.182968,414.604370 144.992172,416.102417 156.658752,415.777405 
	C160.535187,415.669403 161.491806,417.210938 161.408813,420.779175 
	C161.215164,429.106140 161.328262,437.440796 161.367645,445.772095 
	C161.374832,447.291901 161.621475,448.810608 161.757584,450.329803 
	C162.249771,450.295959 162.741974,450.262085 163.234161,450.228241 
	C163.234161,448.521576 163.233963,446.814880 163.234177,445.108215 
	C163.235474,434.777191 163.148911,424.444519 163.343597,414.117126 
	C163.369492,412.743256 164.700851,410.330322 165.636856,410.222961 
	C169.507660,409.779053 173.458923,410.036804 178.259079,410.036804 
	C178.259079,426.016907 178.259079,441.231384 178.259079,456.445862 
	C178.826706,456.437073 179.394348,456.428284 179.961975,456.419495 
	C179.961975,442.757996 179.961975,429.096527 179.961975,415.413757 
	C184.993698,415.413757 189.209976,415.413757 194.055756,415.413757 
	C194.055756,430.808105 194.055756,445.795319 194.055756,460.782532 
	C194.487030,460.793701 194.918320,460.804871 195.349594,460.816040 
	C195.442444,459.110901 195.613586,457.405914 195.615921,455.700653 
	C195.636887,440.370758 195.627274,425.040863 195.628677,409.710938 
	C195.629395,401.864777 195.643631,402.144775 203.421646,401.801910 
	C208.096497,401.595856 209.317520,403.169891 209.253220,407.703583 
	C209.009842,424.862946 209.145294,442.027863 209.171646,459.190643 
	C209.174210,460.854462 209.402161,462.517914 209.525497,464.181549 
	C210.003403,464.156830 210.481323,464.132111 210.959229,464.107422 
	C211.034332,462.402679 211.173218,460.697998 211.174713,458.993195 
	C211.190475,440.997223 211.095871,423.000610 211.217010,405.005463 
	C211.291183,393.985535 208.994095,395.233429 221.978302,395.120758 
	C224.745377,395.096741 225.676392,396.074585 225.648285,398.971680 
	C225.446274,419.795776 225.414902,440.621613 225.379120,461.446991 
	C225.376251,463.117432 225.746323,464.788483 225.943085,466.459259 
	C226.436401,466.448700 226.929703,466.438141 227.423019,466.427551 
	C227.540359,464.736572 227.757477,463.045715 227.759750,461.354584 
	C227.784546,443.025360 228.024536,424.690826 227.634277,406.369904 
	C227.506058,400.350494 230.641281,400.725708 234.734299,400.606354 
	C239.031158,400.481110 241.388855,400.985565 241.291809,406.380402 
	C240.956207,425.036865 241.151138,443.703094 241.184097,462.365540 
	C241.186935,463.960815 241.485611,465.555542 241.646866,467.150543 
	C242.162979,467.102112 242.679108,467.053680 243.195221,467.005249 
	C243.195221,465.226257 243.195190,463.447266 243.195251,461.668274 
	C243.195908,442.839142 243.263794,424.009552 243.138016,405.181274 
	C243.114136,401.605194 244.106949,399.777527 247.928040,400.215942 
	C249.079208,400.348053 250.281113,400.383087 251.420944,400.208618 
	C256.131592,399.487671 257.293182,401.581451 257.228973,406.083588 
	C256.965302,424.575653 257.051941,443.072876 257.040802,461.568176 
	C257.039825,463.218628 257.263000,464.869202 257.382050,466.519745 
	C257.833832,466.492950 258.285645,466.466125 258.737427,466.439331 
	C258.816742,464.724030 258.962219,463.008820 258.964813,461.293396 
	C258.984253,448.462952 258.873993,435.631470 259.006317,422.802338 
	C259.120270,411.754517 256.985687,413.445007 268.835388,413.101593 
	C272.735962,412.988495 274.054199,414.244476 273.995758,418.222290 
	C273.790192,432.216125 273.906128,446.214874 273.931305,460.211700 
	C273.934265,461.861877 274.130829,463.511719 274.237610,465.161713 
	C274.777222,465.128784 275.316833,465.095825 275.856445,465.062897 
	C275.856445,463.356781 275.856415,461.650665 275.856415,459.944550 
	C275.856415,440.782166 275.831757,421.619690 275.868042,402.457397 
	C275.883636,394.219574 275.046692,395.415649 283.466614,394.951355 
	C288.287628,394.685516 289.259003,396.519379 289.210724,400.916718 
	C289.004028,419.743561 289.110077,438.574036 289.143646,457.403107 
	C289.146820,459.191925 289.439148,460.980225 289.597229,462.768768 
	C290.127106,462.750488 290.656952,462.732239 291.186829,462.713989 
	C291.333923,460.845245 291.606384,458.976685 291.608978,457.107727 
	C291.639069,435.445923 291.772888,413.782379 291.518890,392.123535 
	C291.460999,387.188904 293.073944,385.418213 297.780579,386.125092 
	C298.432404,386.222992 299.123138,386.219452 299.776215,386.125793 
	C303.843811,385.542542 305.236145,387.101288 305.195068,391.341492 
	C304.995056,412.001587 305.092255,432.664764 305.128479,453.326752 
	C305.131531,455.063782 305.461578,456.800232 305.639740,458.536987 
	C306.142487,458.486847 306.645233,458.436737 307.147980,458.386627 
	C307.147980,456.426056 307.147980,454.465515 307.147980,452.504944 
	C307.147980,431.342987 307.116028,410.181000 307.162964,389.019135 
	C307.183197,379.893188 306.048492,381.070343 315.480804,380.682983 
	C319.940582,380.499786 321.112091,381.963196 321.066101,386.332550 
	C320.848511,406.992279 320.964386,427.655640 320.981873,448.317688 
	C320.983307,450.006683 321.138977,451.695557 321.222992,453.384491 
	C321.660950,453.390015 322.098907,453.395538 322.536896,453.401062 
	C322.644562,451.708252 322.843597,450.015594 322.845825,448.322632 
	C322.868805,430.826569 322.772217,413.329865 322.893890,395.834625 
	C322.963745,385.784973 320.767670,386.786438 332.795166,386.615204 
	C336.298340,386.565338 336.884644,388.193481 336.833710,391.221069 
	C336.534210,409.030823 336.368317,426.842957 336.211273,444.654724 
	C336.203369,445.547821 336.696259,446.445312 336.955994,447.340759 
	C337.322906,447.278870 337.689850,447.216980 338.056763,447.155090 
	C338.056763,445.354065 338.056793,443.553009 338.056793,441.751984 
	C338.056793,429.588043 338.056793,417.424072 338.056793,405.260132 
	C338.056793,394.065460 338.051331,394.187988 349.105255,394.679596 
	C352.323151,394.822723 352.995178,396.198029 352.953552,399.001312 
	C352.844696,406.331360 352.919403,413.664154 352.920135,420.995850 
	C352.920776,426.942047 352.920258,432.888245 352.920258,438.834473 
	C353.346130,438.833038 353.772034,438.831604 354.197906,438.830170 
	C354.197906,437.255402 354.197906,435.680634 354.197906,434.105865 
	C354.197906,423.274963 354.095703,412.442810 354.226257,401.613464 
	C354.361023,390.435028 352.176880,392.061981 364.484619,391.790039 
	C367.719604,391.718597 368.904510,392.806671 368.852631,396.088013 
	C368.702515,405.583466 368.793091,415.082947 368.823486,424.580780 
	C368.828278,426.081696 369.010742,427.582001 369.111023,429.082611 
	C369.651642,429.063782 370.192261,429.044952 370.732880,429.026123 
	C370.732880,423.489746 370.732849,417.953369 370.732880,412.416992 
	C370.732880,400.934692 370.743103,400.833618 382.236481,401.993195 
	C383.532104,402.123901 385.471344,404.066986 385.660187,405.378662 
	C386.148224,408.768707 385.823730,412.275787 385.823730,415.736115 
	C386.253204,415.737793 386.682678,415.739471 387.112152,415.741119 
	C387.112152,409.932220 387.112152,404.123291 387.112152,398.172974 
	C392.345795,398.172974 396.814545,398.172974 400.370483,398.172974 
	C401.887146,399.626434 402.860962,400.559631 404.290527,400.912079 
	C419.515961,385.079773 432.606842,367.709412 442.855194,347.733551 
	C443.132324,347.140656 443.409485,346.547760 443.979126,345.276672 
	C444.726013,343.685516 445.472870,342.094330 446.686371,340.163361 
	C447.391724,338.507904 448.097046,336.852417 448.985046,334.437958 
	C456.536621,317.432068 461.832489,299.767822 464.805817,280.870300 
	C464.820923,280.500244 464.836029,280.130188 464.978546,278.944611 
	C465.899384,269.385986 466.820221,259.827362 467.804688,249.608047 
	C460.383209,251.305908 454.289276,252.700058 447.626038,254.019287 
	C447.087128,254.160248 446.548248,254.301208 445.187653,254.598572 
	C423.797058,260.460846 402.406433,266.323151 380.482819,272.182098 
	C380.020844,272.401947 379.558838,272.621796 378.271484,272.865875 
	C370.110138,275.009277 361.948822,277.152649 353.127502,279.432159 
	C350.782776,280.204865 348.438049,280.977600 345.282745,281.906830 
	C335.505829,284.619598 325.728943,287.332336 315.420135,289.998993 
	C314.928955,290.177582 314.437744,290.356140 313.133057,290.652191 
M153.850922,321.491211 
	C154.922928,320.537384 156.233368,319.749664 157.030975,318.604675 
	C168.165466,302.620880 179.308121,286.641266 190.240158,270.519196 
	C192.237015,267.574310 193.813934,264.132446 194.708755,260.692169 
	C197.428986,250.234024 199.690735,239.657288 202.187195,229.140060 
	C204.501099,219.392029 206.887329,209.661163 209.349091,199.478592 
	C216.832550,204.274551 223.671371,208.657394 230.991013,213.348373 
	C237.067886,190.540787 243.044083,168.111130 249.379608,144.332779 
	C254.148849,163.089813 258.537445,180.440186 262.994141,197.773010 
	C263.610291,200.169327 264.231934,202.661865 265.411560,204.800735 
	C278.823334,229.118439 292.340027,253.378296 305.846954,277.643463 
	C306.600342,278.996887 307.514191,280.261017 308.600861,281.951813 
	C321.899628,253.015320 334.946198,224.620773 348.005310,196.231995 
	C348.698273,194.725632 349.172516,192.934189 350.297546,191.839828 
	C360.792664,181.630859 371.407990,171.545471 382.154449,161.265533 
	C388.951660,170.153809 396.278900,179.735199 403.553528,189.247757 
	C404.257965,188.907272 404.641113,188.844559 404.816650,188.619736 
	C416.498199,173.659058 428.183105,158.700806 439.777832,143.672974 
	C440.448853,142.803253 440.980652,141.031204 440.549683,140.236053 
	C437.878143,135.306931 434.912537,130.537216 431.776703,125.264259 
	C422.383942,139.395966 413.398376,152.915070 404.008759,167.042038 
	C395.941162,155.482834 388.277618,144.502502 380.522644,133.391220 
	C379.746368,133.950317 379.178711,134.283035 378.700317,134.714706 
	C361.468750,150.263046 345.173492,166.522568 335.105316,188.001938 
	C332.011444,194.602463 327.795715,200.677200 324.092255,206.991867 
	C319.577423,214.690048 315.061127,222.387344 310.239441,230.606720 
	C287.384125,193.846008 264.843384,157.643005 249.284988,117.579933 
	C248.906937,117.712738 248.528900,117.845543 248.150848,117.978348 
	C238.659744,144.644440 229.168640,171.310547 219.018616,199.827911 
	C212.623962,193.290039 207.144455,187.687805 201.490524,181.907242 
	C199.963562,189.224960 198.574768,196.380402 196.962875,203.485245 
	C194.686813,213.517624 193.582809,224.080978 189.615509,233.413101 
	C179.214798,257.878296 167.537338,281.800812 156.356262,305.933838 
	C155.697052,307.356659 154.928207,308.728668 153.845779,310.833221 
	C153.070663,308.675751 152.535461,307.349274 152.113586,305.987671 
	C144.144104,280.266266 135.763504,254.660416 128.460068,228.751007 
	C125.913406,219.716614 119.449951,215.055466 113.278625,208.956070 
	C103.066124,237.670990 93.053299,265.824463 82.937675,294.266998 
	C78.952194,290.953033 75.370567,287.974884 71.472458,284.733551 
	C69.411087,296.632294 69.557335,297.381226 64.097778,298.447327 
	C50.610363,301.080994 43.008957,308.769775 41.222576,322.336670 
	C40.967617,324.272980 39.813251,326.451416 40.373890,328.067139 
	C42.069260,332.952911 44.403728,337.616974 46.754929,342.972961 
	C56.618843,328.524323 65.973503,314.821655 75.435440,300.961823 
	C81.299057,303.446198 86.771484,305.764832 92.666122,308.262360 
	C99.917488,282.178528 107.095337,256.359161 114.507843,229.695724 
	C115.218056,231.603470 115.739655,232.638382 115.991608,233.735229 
	C121.394478,257.256226 130.758545,279.163483 142.666504,300.082703 
	C146.529221,306.868500 149.839951,313.968475 153.850922,321.491211 
z"/>
<path fill="#000000" opacity="1.000000" stroke="none" 
	d="
M491.000000,214.531342 
	C490.336456,214.068665 489.206635,213.197327 489.077911,212.197174 
	C486.311707,190.701111 480.448273,170.062408 472.031311,150.130859 
	C461.428955,125.024200 446.841980,102.527412 428.747406,82.092598 
	C405.812775,56.191776 378.391724,36.536392 347.175171,22.177048 
	C325.566162,12.237097 302.835052,5.658662 279.099091,2.916860 
	C278.388031,2.834724 277.742920,2.181465 277.033539,1.397242 
	C348.260376,1.000000 419.520721,1.000000 491.000000,1.000000 
	C491.000000,72.020744 491.000000,143.041718 491.000000,214.531342 
z"/>
<path fill="#000000" opacity="1.000000" stroke="none" 
	d="
M277.468658,491.000000 
	C277.933746,490.336334 278.807465,489.206787 279.810059,489.077667 
	C301.145233,486.330475 321.644379,480.565918 341.443604,472.229065 
	C363.582062,462.907257 383.716156,450.403809 402.421234,435.284058 
	C420.800079,420.427887 436.294281,403.000854 449.506897,383.674377 
	C467.952545,356.693390 479.974396,326.772705 486.849640,294.817322 
	C488.115967,288.931671 489.094025,282.984039 490.602570,277.032501 
	C491.000000,348.260376 491.000000,419.520721 491.000000,491.000000 
	C419.979248,491.000000 348.958282,491.000000 277.468658,491.000000 
z"/>
<path fill="#000000" opacity="1.000000" stroke="none" 
	d="
M0.999997,277.468658 
	C1.654897,277.767151 2.795638,278.476654 2.894491,279.309753 
	C6.458344,309.344727 16.234491,337.382355 30.518223,363.861542 
	C39.424992,380.372894 50.467712,395.421844 62.909534,409.544281 
	C85.647797,435.353973 112.863808,454.995361 143.920853,469.343903 
	C163.690857,478.477753 184.347610,485.051025 206.026489,488.085663 
	C209.033722,488.506592 211.962784,489.485718 214.964020,490.603210 
	C143.739639,491.000000 72.479271,491.000000 1.000000,491.000000 
	C1.000000,419.979248 1.000000,348.958282 0.999997,277.468658 
z"/>
<path fill="#000000" opacity="1.000000" stroke="none" 
	d="
M214.531342,1.000000 
	C214.065292,1.662923 213.191452,2.789629 212.187042,2.921453 
	C180.890488,7.028958 151.696686,17.168352 124.292572,32.806583 
	C104.867661,43.891457 87.142052,57.165844 71.507332,73.092514 
	C47.647663,97.397728 29.411818,125.404884 17.012838,157.220810 
	C10.607537,173.656891 6.565361,190.678680 3.135546,207.897491 
	C2.669924,210.235077 2.244000,212.580566 1.399848,214.961197 
	C1.000000,143.739624 1.000000,72.479256 1.000000,1.000000 
	C72.020744,1.000000 143.041718,1.000000 214.531342,1.000000 
z"/>
<path fill="#FCFCFC" opacity="1.000000" stroke="none" 
	d="
M153.627045,321.207977 
	C149.839951,313.968475 146.529221,306.868500 142.666504,300.082703 
	C130.758545,279.163483 121.394478,257.256226 115.991608,233.735229 
	C115.739655,232.638382 115.218056,231.603470 114.507843,229.695724 
	C107.095337,256.359161 99.917488,282.178528 92.666122,308.262360 
	C86.771484,305.764832 81.299057,303.446198 75.435440,300.961823 
	C65.973503,314.821655 56.618843,328.524323 46.754929,342.972961 
	C44.403728,337.616974 42.069260,332.952911 40.373890,328.067139 
	C39.813251,326.451416 40.967617,324.272980 41.222576,322.336670 
	C43.008957,308.769775 50.610363,301.080994 64.097778,298.447327 
	C69.557335,297.381226 69.411087,296.632294 71.472458,284.733551 
	C75.370567,287.974884 78.952194,290.953033 82.937675,294.266998 
	C93.053299,265.824463 103.066124,237.670990 113.278625,208.956070 
	C119.449951,215.055466 125.913406,219.716614 128.460068,228.751007 
	C135.763504,254.660416 144.144104,280.266266 152.113586,305.987671 
	C152.535461,307.349274 153.070663,308.675751 153.845779,310.833221 
	C154.928207,308.728668 155.697052,307.356659 156.356262,305.933838 
	C167.537338,281.800812 179.214798,257.878296 189.615509,233.413101 
	C193.582809,224.080978 194.686813,213.517624 196.962875,203.485245 
	C198.574768,196.380402 199.963562,189.224960 201.490524,181.907242 
	C207.144455,187.687805 212.623962,193.290039 219.018616,199.827911 
	C229.168640,171.310547 238.659744,144.644440 248.150848,117.978348 
	C248.528900,117.845543 248.906937,117.712738 249.284988,117.579933 
	C264.843384,157.643005 287.384125,193.846008 310.239441,230.606720 
	C315.061127,222.387344 319.577423,214.690048 324.092255,206.991867 
	C327.795715,200.677200 332.011444,194.602463 335.105316,188.001938 
	C345.173492,166.522568 361.468750,150.263046 378.700317,134.714706 
	C379.178711,134.283035 379.746368,133.950317 380.522644,133.391220 
	C388.277618,144.502502 395.941162,155.482834 404.008759,167.042038 
	C413.398376,152.915070 422.383942,139.395966 431.776703,125.264259 
	C434.912537,130.537216 437.878143,135.306931 440.549683,140.236053 
	C440.980652,141.031204 440.448853,142.803253 439.777832,143.672974 
	C428.183105,158.700806 416.498199,173.659058 404.816650,188.619736 
	C404.641113,188.844559 404.257965,188.907272 403.553528,189.247757 
	C396.278900,179.735199 388.951660,170.153809 382.154449,161.265533 
	C371.407990,171.545471 360.792664,181.630859 350.297546,191.839828 
	C349.172516,192.934189 348.698273,194.725632 348.005310,196.231995 
	C334.946198,224.620773 321.899628,253.015320 308.600861,281.951813 
	C307.514191,280.261017 306.600342,278.996887 305.846954,277.643463 
	C292.340027,253.378296 278.823334,229.118439 265.411560,204.800735 
	C264.231934,202.661865 263.610291,200.169327 262.994141,197.773010 
	C258.537445,180.440186 254.148849,163.089813 249.379608,144.332779 
	C243.044083,168.111130 237.067886,190.540787 230.991013,213.348373 
	C223.671371,208.657394 216.832550,204.274551 209.349091,199.478592 
	C206.887329,209.661163 204.501099,219.392029 202.187195,229.140060 
	C199.690735,239.657288 197.428986,250.234024 194.708755,260.692169 
	C193.813934,264.132446 192.237015,267.574310 190.240158,270.519196 
	C179.308121,286.641266 168.165466,302.620880 157.030975,318.604675 
	C156.233368,319.749664 154.922928,320.537384 153.627045,321.207977 
z"/>
<path fill="#2DBAA0" opacity="1.000000" stroke="none" 
	d="
M180.129669,328.092407 
	C180.519073,327.979767 180.908463,327.867126 181.654633,328.212585 
	C182.011414,334.271484 182.011414,339.872284 182.011414,345.536316 
	C203.795578,345.536316 224.970718,345.536316 245.979080,345.536316 
	C245.979080,333.246674 245.979080,321.330475 245.979080,309.414307 
	C246.517212,309.234924 247.055344,309.055511 247.904144,309.377777 
	C248.214813,321.782990 248.214813,333.686554 248.214813,345.894470 
	C269.936005,345.894470 290.873169,345.914520 311.809784,345.817139 
	C312.601959,345.813477 313.388855,344.672699 314.375732,344.261536 
	C315.127594,344.945618 315.681885,345.429962 316.690002,345.908112 
	C337.712860,345.901917 358.281891,345.901917 378.837616,345.901917 
	C378.837616,324.178955 378.837616,303.147003 378.837616,281.750305 
	C367.667877,281.750305 356.880585,281.750305 346.093323,281.750305 
	C348.438049,280.977600 350.782776,280.204865 353.845215,279.561890 
	C362.696320,279.691620 370.829742,279.691620 379.096832,279.691620 
	C379.096832,277.088989 379.096832,274.965302 379.096832,272.841675 
	C379.558838,272.621796 380.020844,272.401947 380.760681,272.618286 
	C381.038544,275.175537 381.038544,277.296570 381.038544,279.544800 
	C402.964325,279.544800 424.463898,279.544800 446.009338,279.544800 
	C446.009338,270.914978 446.009338,262.678558 446.009338,254.442169 
	C446.548248,254.301208 447.087128,254.160248 447.910828,254.520142 
	C448.195587,263.182617 448.195587,271.344208 448.195587,279.760132 
	C454.328796,279.760132 459.589996,279.760132 464.851166,279.760132 
	C464.836029,280.130188 464.820923,280.500244 464.134033,281.103271 
	C458.526611,281.336243 453.590942,281.336243 448.184753,281.336243 
	C448.184753,297.157654 448.155670,312.258850 448.212555,327.359741 
	C448.222382,329.972839 448.596497,332.584564 448.802368,335.196930 
	C448.097046,336.852417 447.391724,338.507904 446.488739,339.920410 
	C446.375763,321.380829 446.419037,303.083832 446.580078,284.787842 
	C446.612061,281.151001 444.325470,281.430786 441.917511,281.445038 
	C423.282990,281.555389 404.648285,281.631256 386.013733,281.742126 
	C384.435272,281.751495 382.857849,281.937988 381.435944,282.031891 
	C381.435944,303.610413 381.435944,324.636688 381.435944,345.954865 
	C402.448395,345.954865 423.067505,345.954865 443.686646,345.954865 
	C443.409485,346.547760 443.132324,347.140656 442.155884,347.743713 
	C421.440674,347.753845 401.424713,347.753845 381.371399,347.753845 
	C381.371399,365.608551 381.371399,382.782867 381.371399,399.153076 
	C388.539032,398.111237 395.519043,397.096680 402.314240,396.108978 
	C403.050751,398.716858 403.442749,400.104858 403.834747,401.492859 
	C402.860962,400.559631 401.887146,399.626434 400.370483,398.172974 
	C396.814545,398.172974 392.345795,398.172974 387.112152,398.172974 
	C387.112152,404.123291 387.112152,409.932220 387.112152,415.741119 
	C386.682678,415.739471 386.253204,415.737793 385.823730,415.736115 
	C385.823730,412.275787 386.148224,408.768707 385.660187,405.378662 
	C385.471344,404.066986 383.532104,402.123901 382.236481,401.993195 
	C370.743103,400.833618 370.732880,400.934692 370.732880,412.416992 
	C370.732849,417.953369 370.732880,423.489746 370.732880,429.026123 
	C370.192261,429.044952 369.651642,429.063782 369.111023,429.082611 
	C369.010742,427.582001 368.828278,426.081696 368.823486,424.580780 
	C368.793091,415.082947 368.702515,405.583466 368.852631,396.088013 
	C368.904510,392.806671 367.719604,391.718597 364.484619,391.790039 
	C352.176880,392.061981 354.361023,390.435028 354.226257,401.613464 
	C354.095703,412.442810 354.197906,423.274963 354.197906,434.105865 
	C354.197906,435.680634 354.197906,437.255402 354.197906,438.830170 
	C353.772034,438.831604 353.346130,438.833038 352.920258,438.834473 
	C352.920258,432.888245 352.920776,426.942047 352.920135,420.995850 
	C352.919403,413.664154 352.844696,406.331360 352.953552,399.001312 
	C352.995178,396.198029 352.323151,394.822723 349.105255,394.679596 
	C338.051331,394.187988 338.056793,394.065460 338.056793,405.260132 
	C338.056793,417.424072 338.056793,429.588043 338.056793,441.751984 
	C338.056793,443.553009 338.056763,445.354065 338.056763,447.155090 
	C337.689850,447.216980 337.322906,447.278870 336.955994,447.340759 
	C336.696259,446.445312 336.203369,445.547821 336.211273,444.654724 
	C336.368317,426.842957 336.534210,409.030823 336.833710,391.221069 
	C336.884644,388.193481 336.298340,386.565338 332.795166,386.615204 
	C320.767670,386.786438 322.963745,385.784973 322.893890,395.834625 
	C322.772217,413.329865 322.868805,430.826569 322.845825,448.322632 
	C322.843597,450.015594 322.644562,451.708252 322.536896,453.401062 
	C322.098907,453.395538 321.660950,453.390015 321.222992,453.384491 
	C321.138977,451.695557 320.983307,450.006683 320.981873,448.317688 
	C320.964386,427.655640 320.848511,406.992279 321.066101,386.332550 
	C321.112091,381.963196 319.940582,380.499786 315.480804,380.682983 
	C306.048492,381.070343 307.183197,379.893188 307.162964,389.019135 
	C307.116028,410.181000 307.147980,431.342987 307.147980,452.504944 
	C307.147980,454.465515 307.147980,456.426056 307.147980,458.386627 
	C306.645233,458.436737 306.142487,458.486847 305.639740,458.536987 
	C305.461578,456.800232 305.131531,455.063782 305.128479,453.326752 
	C305.092255,432.664764 304.995056,412.001587 305.195068,391.341492 
	C305.236145,387.101288 303.843811,385.542542 299.776215,386.125793 
	C299.123138,386.219452 298.432404,386.222992 297.780579,386.125092 
	C293.073944,385.418213 291.460999,387.188904 291.518890,392.123535 
	C291.772888,413.782379 291.639069,435.445923 291.608978,457.107727 
	C291.606384,458.976685 291.333923,460.845245 291.186829,462.713989 
	C290.656952,462.732239 290.127106,462.750488 289.597229,462.768768 
	C289.439148,460.980225 289.146820,459.191925 289.143646,457.403107 
	C289.110077,438.574036 289.004028,419.743561 289.210724,400.916718 
	C289.259003,396.519379 288.287628,394.685516 283.466614,394.951355 
	C275.046692,395.415649 275.883636,394.219574 275.868042,402.457397 
	C275.831757,421.619690 275.856415,440.782166 275.856415,459.944550 
	C275.856415,461.650665 275.856445,463.356781 275.856445,465.062897 
	C275.316833,465.095825 274.777222,465.128784 274.237610,465.161713 
	C274.130829,463.511719 273.934265,461.861877 273.931305,460.211700 
	C273.906128,446.214874 273.790192,432.216125 273.995758,418.222290 
	C274.054199,414.244476 272.735962,412.988495 268.835388,413.101593 
	C256.985687,413.445007 259.120270,411.754517 259.006317,422.802338 
	C258.873993,435.631470 258.984253,448.462952 258.964813,461.293396 
	C258.962219,463.008820 258.816742,464.724030 258.737427,466.439331 
	C258.285645,466.466125 257.833832,466.492950 257.382050,466.519745 
	C257.263000,464.869202 257.039825,463.218628 257.040802,461.568176 
	C257.051941,443.072876 256.965302,424.575653 257.228973,406.083588 
	C257.293182,401.581451 256.131592,399.487671 251.420944,400.208618 
	C250.281113,400.383087 249.079208,400.348053 247.928040,400.215942 
	C244.106949,399.777527 243.114136,401.605194 243.138016,405.181274 
	C243.263794,424.009552 243.195908,442.839142 243.195251,461.668274 
	C243.195190,463.447266 243.195221,465.226257 243.195221,467.005249 
	C242.679108,467.053680 242.162979,467.102112 241.646866,467.150543 
	C241.485611,465.555542 241.186935,463.960815 241.184097,462.365540 
	C241.151138,443.703094 240.956207,425.036865 241.291809,406.380402 
	C241.388855,400.985565 239.031158,400.481110 234.734299,400.606354 
	C230.641281,400.725708 227.506058,400.350494 227.634277,406.369904 
	C228.024536,424.690826 227.784546,443.025360 227.759750,461.354584 
	C227.757477,463.045715 227.540359,464.736572 227.423019,466.427551 
	C226.929703,466.438141 226.436401,466.448700 225.943085,466.459259 
	C225.746323,464.788483 225.376251,463.117432 225.379120,461.446991 
	C225.414902,440.621613 225.446274,419.795776 225.648285,398.971680 
	C225.676392,396.074585 224.745377,395.096741 221.978302,395.120758 
	C208.994095,395.233429 211.291183,393.985535 211.217010,405.005463 
	C211.095871,423.000610 211.190475,440.997223 211.174713,458.993195 
	C211.173218,460.697998 211.034332,462.402679 210.959229,464.107422 
	C210.481323,464.132111 210.003403,464.156830 209.525497,464.181549 
	C209.402161,462.517914 209.174210,460.854462 209.171646,459.190643 
	C209.145294,442.027863 209.009842,424.862946 209.253220,407.703583 
	C209.317520,403.169891 208.096497,401.595856 203.421646,401.801910 
	C195.643631,402.144775 195.629395,401.864777 195.628677,409.710938 
	C195.627274,425.040863 195.636887,440.370758 195.615921,455.700653 
	C195.613586,457.405914 195.442444,459.110901 195.349594,460.816040 
	C194.918320,460.804871 194.487030,460.793701 194.055756,460.782532 
	C194.055756,445.795319 194.055756,430.808105 194.055756,415.413757 
	C189.209976,415.413757 184.993698,415.413757 179.961975,415.413757 
	C179.961975,429.096527 179.961975,442.757996 179.961975,456.419495 
	C179.394348,456.428284 178.826706,456.437073 178.259079,456.445862 
	C178.259079,441.231384 178.259079,426.016907 178.259079,410.036804 
	C173.458923,410.036804 169.507660,409.779053 165.636856,410.222961 
	C164.700851,410.330322 163.369492,412.743256 163.343597,414.117126 
	C163.148911,424.444519 163.235474,434.777191 163.234177,445.108215 
	C163.233963,446.814880 163.234161,448.521576 163.234161,450.228241 
	C162.741974,450.262085 162.249771,450.295959 161.757584,450.329803 
	C161.621475,448.810608 161.374832,447.291901 161.367645,445.772095 
	C161.328262,437.440796 161.215164,429.106140 161.408813,420.779175 
	C161.491806,417.210938 160.535187,415.669403 156.658752,415.777405 
	C144.992172,416.102417 147.182968,414.604370 146.991180,425.153870 
	C146.881805,431.170044 146.971405,437.189850 146.971405,443.208008 
	C146.456741,443.226471 145.942062,443.244934 145.427399,443.263367 
	C145.294571,441.759125 145.052811,440.255341 145.046829,438.750610 
	C145.011063,429.752747 144.873779,420.750732 145.103485,411.758606 
	C145.201096,407.937927 144.158279,406.419647 140.091858,406.531647 
	C129.277557,406.829559 130.792923,405.715637 130.689743,415.894928 
	C130.629227,421.866608 130.678711,427.839417 130.678711,433.811707 
	C130.230057,433.839478 129.781418,433.867218 129.332764,433.894989 
	C129.332764,429.212524 129.332764,424.530090 129.332764,419.533875 
	C124.508125,419.533875 120.590256,419.533875 116.436417,419.533875 
	C116.065918,421.070068 115.708542,422.551849 115.351173,424.033630 
	C115.043533,424.023315 114.735893,424.012970 114.428253,424.002655 
	C114.182869,420.848755 113.937492,417.694824 113.670563,414.263916 
	C109.465515,414.047028 105.521896,413.843628 101.722351,413.302917 
	C105.149109,412.965668 108.431801,412.965668 111.208572,412.965668 
	C111.806290,412.325867 112.010948,412.209290 112.011543,412.091675 
	C112.114670,391.513702 112.242821,370.935486 112.158180,350.358154 
	C112.154510,349.467255 110.187782,348.584412 109.135513,347.697815 
	C111.469025,346.921478 113.802536,346.145142 116.861542,345.513977 
	C138.283127,345.659149 158.979233,345.659149 180.129669,345.659149 
	C180.129669,339.614685 180.129669,333.853546 180.129669,328.092407 
M317.181793,378.807129 
	C318.948853,378.807129 320.715942,378.807129 322.565796,378.807129 
	C322.819366,381.030396 323.003540,382.645386 323.254639,384.846985 
	C328.213593,384.846985 333.105896,384.846985 338.086212,384.846985 
	C338.357697,387.824036 338.575562,390.213165 338.840179,393.114929 
	C344.316467,391.827667 349.175751,394.050842 354.554535,390.562042 
	C358.154205,388.227142 364.494934,390.118134 369.878998,390.118134 
	C370.069031,393.614929 370.235992,396.686676 370.408752,399.865417 
	C373.450562,399.865417 376.152740,399.865417 378.942017,399.865417 
	C378.942017,382.411316 378.942017,365.352112 378.942017,347.988953 
	C357.768372,347.988953 336.874512,347.988953 315.320679,347.991852 
	C314.880707,347.993408 314.440704,347.994934 313.090088,347.752808 
	C291.665405,347.752808 270.240723,347.752808 248.678284,347.752808 
	C248.678284,364.932312 248.678284,381.592926 248.678284,398.845337 
	C252.343552,398.845337 255.567154,398.845337 259.232269,398.845337 
	C259.232269,403.366913 259.232269,407.293793 259.232269,411.224365 
	C264.285553,411.224365 268.860687,411.224365 273.979797,411.224365 
	C273.979797,405.139984 273.979797,399.396484 273.979797,393.007629 
	C279.388184,393.007629 284.262756,393.007629 289.166748,393.007629 
	C289.391907,389.747009 289.571289,387.149323 289.784668,384.059326 
	C295.144348,384.059326 300.065216,384.059326 304.877014,384.059326 
	C305.229736,382.082306 305.487732,380.636200 305.733948,379.256073 
	C308.662140,378.831757 311.386688,378.436951 314.651794,378.290833 
	C315.212463,378.482880 315.773102,378.674896 317.181793,378.807129 
M114.095146,398.491669 
	C114.098244,402.489105 113.850327,406.512054 114.252411,410.468933 
	C114.378387,411.708679 116.157059,413.619385 117.347893,413.756317 
	C121.075455,414.184998 124.883492,413.913849 128.823547,413.913849 
	C128.974686,410.604065 129.098969,407.882446 129.217072,405.296326 
	C135.268021,405.296326 140.683685,405.296326 146.318695,405.296326 
	C146.486359,408.212433 146.636703,410.826996 146.801636,413.695374 
	C151.774002,413.695374 156.533249,413.695374 161.491928,413.695374 
	C161.811340,412.105286 162.114929,410.593872 162.442108,408.965118 
	C166.923294,408.965118 171.095734,408.729370 175.228760,409.031860 
	C179.306778,409.330353 180.331924,407.664001 180.295074,403.818207 
	C180.129105,386.497528 180.230743,369.174408 180.203934,351.852173 
	C180.201965,350.582031 179.946487,349.312286 179.818634,348.132507 
	C157.767044,348.132507 136.077454,348.132507 114.095146,348.132507 
	C114.095146,364.886871 114.095146,381.190552 114.095146,398.491669 
M182.042023,356.545319 
	C182.042023,375.303192 182.042023,394.061096 182.042023,413.083740 
	C186.120468,413.083740 189.682663,413.083740 193.812805,413.083740 
	C193.812805,408.731384 193.812805,404.663330 193.812805,400.047729 
	C199.267960,400.047729 204.168381,400.047729 209.059692,400.047729 
	C209.414108,397.580719 209.689651,395.662689 209.965851,393.740112 
	C215.863266,393.740112 221.421951,393.740112 226.985062,393.740112 
	C227.347610,395.510803 227.640228,396.940002 227.949158,398.448944 
	C234.033691,398.448944 239.940811,398.448944 246.153839,398.448944 
	C246.153839,381.435089 246.153839,364.784180 246.153839,347.945038 
	C224.672867,347.945038 203.624680,347.945038 182.042023,347.945038 
	C182.042023,350.659302 182.042023,353.110687 182.042023,356.545319 
M124.342964,418.260681 
	C125.923660,418.076324 127.504364,417.891968 129.085068,417.707611 
	C129.037323,417.220062 128.989594,416.732544 128.941849,416.244995 
	C124.362091,416.244995 119.782326,416.244995 115.202568,416.244995 
	C115.180412,416.917023 115.158257,417.589020 115.136101,418.261047 
	C117.894135,418.261047 120.652176,418.261047 124.342964,418.260681 
z"/>
<path fill="#FCFEFE" opacity="1.000000" stroke="none" 
	d="
M443.832886,345.615784 
	C423.067505,345.954865 402.448395,345.954865 381.435944,345.954865 
	C381.435944,324.636688 381.435944,303.610413 381.435944,282.031891 
	C382.857849,281.937988 384.435272,281.751495 386.013733,281.742126 
	C404.648285,281.631256 423.282990,281.555389 441.917511,281.445038 
	C444.325470,281.430786 446.612061,281.151001 446.580078,284.787842 
	C446.419037,303.083832 446.375763,321.380829 446.255432,340.090332 
	C445.472870,342.094330 444.726013,343.685516 443.832886,345.615784 
z"/>
<path fill="#FEFFFF" opacity="1.000000" stroke="none" 
	d="
M345.688049,281.828552 
	C356.880585,281.750305 367.667877,281.750305 378.837616,281.750305 
	C378.837616,303.147003 378.837616,324.178955 378.837616,345.901917 
	C358.281891,345.901917 337.712860,345.901917 316.603027,345.451904 
	C316.025482,326.682953 315.988739,308.364014 315.952026,290.045105 
	C325.728943,287.332336 335.505829,284.619598 345.688049,281.828552 
z"/>
<path fill="#FDFEFE" opacity="1.000000" stroke="none" 
	d="
M147.887497,212.228668 
	C145.912659,209.448685 144.288849,206.313629 141.900162,203.952255 
	C133.144165,195.296356 124.133797,186.897781 115.086296,177.658585 
	C114.953400,167.690399 114.953400,158.465958 114.953400,149.551682 
	C137.727875,149.551682 159.596710,149.551682 182.138580,149.551682 
	C182.138580,152.974014 182.138580,155.922241 182.138580,158.870483 
	C178.942795,174.742416 175.749374,190.614838 172.547562,206.485565 
	C172.221054,208.104034 171.844040,209.712326 170.790680,211.611908 
	C162.689758,212.008545 155.288635,212.118607 147.887497,212.228668 
z"/>
<path fill="#FEFEFE" opacity="1.000000" stroke="none" 
	d="
M112.575768,175.940292 
	C109.719170,173.220474 106.862572,170.500656 103.399689,167.203583 
	C97.968803,182.392502 92.736328,197.026535 86.795685,211.934570 
	C73.831055,212.208588 61.574593,212.208588 48.727982,212.208588 
	C48.727982,190.800583 48.727982,170.085434 48.727982,149.042450 
	C61.301094,149.042450 73.912720,149.042450 86.878090,148.933441 
	C90.647209,148.202667 94.062584,147.580887 97.236000,147.424927 
	C102.243996,148.493942 107.493935,149.097137 112.575768,149.681015 
	C112.575768,158.464111 112.575768,167.202209 112.575768,175.940292 
z"/>
<path fill="#FDFEFE" opacity="1.000000" stroke="none" 
	d="
M381.405792,99.151939 
	C366.789642,113.448914 352.170471,127.742783 337.560822,142.046432 
	C335.542084,144.022888 333.570648,146.047684 330.851257,148.295502 
	C325.228058,148.540894 320.330902,148.540894 315.435242,148.540894 
	C315.435242,125.124283 315.435242,102.926132 315.435242,80.512512 
	C337.403137,80.512512 359.079315,80.512512 381.405792,80.512512 
	C381.405792,86.925804 381.405792,93.038864 381.405792,99.151939 
z"/>
<path fill="#FEFEFE" opacity="1.000000" stroke="none" 
	d="
M248.940094,24.794987 
	C270.648621,24.653242 291.779236,28.185562 312.799438,35.389915 
	C313.170868,49.888760 313.170868,63.778950 313.170868,78.486649 
	C293.865265,78.486649 275.164581,78.486649 256.463898,78.486649 
	C253.675354,72.598679 250.886810,66.710701 248.108200,60.006668 
	C248.392120,47.725395 248.666107,36.260193 248.940094,24.794987 
z"/>
<path fill="#FDFEFE" opacity="1.000000" stroke="none" 
	d="
M314.178223,344.061829 
	C313.388855,344.672699 312.601959,345.813477 311.809784,345.817139 
	C290.873169,345.914520 269.936005,345.894470 248.214813,345.894470 
	C248.214813,333.686554 248.214813,321.782990 248.198425,309.402374 
	C266.630096,303.618500 285.073059,298.293915 303.531036,293.021942 
	C306.698883,292.117096 309.930756,291.436401 313.556213,291.096741 
	C314.045624,309.048126 314.111908,326.554962 314.178223,344.061829 
z"/>
<path fill="#FEFEFE" opacity="1.000000" stroke="none" 
	d="
M245.384216,56.406258 
	C242.797043,63.535400 240.209869,70.664543 236.899384,78.063240 
	C218.956100,78.332802 201.736084,78.332802 183.836899,78.332802 
	C183.836899,63.009590 183.836899,48.278919 183.836899,33.548248 
	C204.077240,27.366453 224.802490,24.569468 246.407684,25.211510 
	C246.767487,33.589115 246.741821,41.408897 246.503006,49.222160 
	C246.429520,51.626011 245.773499,54.012058 245.384216,56.406258 
z"/>
<path fill="#FDFEFE" opacity="1.000000" stroke="none" 
	d="
M97.477951,146.959106 
	C94.062584,147.580887 90.647209,148.202667 87.130875,148.472183 
	C85.339272,147.743820 83.652710,147.063599 81.957329,147.040848 
	C70.677246,146.889404 59.395279,146.878571 48.113922,146.822021 
	C60.645920,121.203178 77.870476,99.184799 99.919052,80.207100 
	C104.920685,80.126221 109.166710,80.126221 113.058960,80.126221 
	C113.058960,102.878189 113.058960,124.842590 113.058960,146.959106 
	C107.394157,146.959106 102.436050,146.959106 97.477951,146.959106 
z"/>
<path fill="#FEFEFE" opacity="1.000000" stroke="none" 
	d="
M289.000488,147.992035 
	C279.355896,127.578163 269.709564,107.165108 260.069702,86.749008 
	C259.218079,84.945312 258.408600,83.121704 257.827057,80.828110 
	C276.327423,80.348877 294.580292,80.348877 312.798004,80.348877 
	C312.798004,103.227455 312.798004,125.466415 312.798004,147.992035 
	C304.608948,147.992035 296.804718,147.992035 289.000488,147.992035 
z"/>
<path fill="#FDFEFE" opacity="1.000000" stroke="none" 
	d="
M201.082062,146.966064 
	C197.213943,142.476562 193.345825,137.987045 189.477707,133.497528 
	C188.835999,133.914185 188.194290,134.330841 187.552567,134.747498 
	C186.693970,138.681778 185.835373,142.616058 184.593628,146.615906 
	C184.210464,124.621330 184.210464,102.561157 184.210464,80.259048 
	C202.036545,80.259048 219.335587,80.259048 236.634613,80.259048 
	C228.829971,102.278976 221.025345,124.298912 212.594635,146.654144 
	C208.339706,146.981659 204.710876,146.973877 201.082062,146.966064 
z"/>
<path fill="#FEFEFE" opacity="1.000000" stroke="none" 
	d="
M404.062622,401.202454 
	C403.442749,400.104858 403.050751,398.716858 402.314240,396.108978 
	C395.519043,397.096680 388.539032,398.111237 381.371399,399.153076 
	C381.371399,382.782867 381.371399,365.608551 381.371399,347.753845 
	C401.424713,347.753845 421.440674,347.753845 441.942291,347.868469 
	C432.606842,367.709412 419.515961,385.079773 404.062622,401.202454 
z"/>
<path fill="#FEFEFE" opacity="1.000000" stroke="none" 
	d="
M108.723518,347.788391 
	C110.187782,348.584412 112.154510,349.467255 112.158180,350.358154 
	C112.242821,370.935486 112.114670,391.513702 112.011543,412.091675 
	C112.010948,412.209290 111.806290,412.325867 111.208572,412.965668 
	C108.431801,412.965668 105.149109,412.965668 101.403442,413.031799 
	C83.700851,398.651886 69.613014,381.530212 57.112705,361.695038 
	C74.541420,356.991882 91.426476,352.435394 108.723518,347.788391 
z"/>
<path fill="#FEFEFF" opacity="1.000000" stroke="none" 
	d="
M115.744003,67.057007 
	C135.579041,52.151062 157.630875,41.645084 181.568878,34.561539 
	C181.966690,49.269855 181.966690,63.509865 181.966690,77.887833 
	C159.637573,77.887833 137.847046,77.887833 115.744003,77.887833 
	C115.744003,73.993385 115.744003,70.525192 115.744003,67.057007 
z"/>
<path fill="#FEFEFE" opacity="1.000000" stroke="none" 
	d="
M315.210266,35.963882 
	C331.815765,40.505310 347.003845,48.216003 361.597229,57.116238 
	C368.252716,61.175308 374.487640,65.923889 381.119110,71.103142 
	C381.324890,73.785278 381.324890,75.724007 381.324890,77.965103 
	C359.023865,77.965103 337.364166,77.965103 315.210266,77.965103 
	C315.210266,63.777153 315.210266,49.870518 315.210266,35.963882 
z"/>
<path fill="#FBFDFD" opacity="1.000000" stroke="none" 
	d="
M245.562134,309.434906 
	C245.979080,321.330475 245.979080,333.246674 245.979080,345.536316 
	C224.970718,345.536316 203.795578,345.536316 182.011414,345.536316 
	C182.011414,339.872284 182.011414,334.271484 181.957672,328.176514 
	C202.984360,321.606750 224.064758,315.531128 245.562134,309.434906 
z"/>
<path fill="#FEFEFE" opacity="1.000000" stroke="none" 
	d="
M27.161488,279.948242 
	C24.034628,260.128235 23.954773,240.247330 26.005856,220.328583 
	C26.192301,218.517944 26.588144,216.728851 27.445919,214.526489 
	C34.201859,214.123215 40.398624,214.123215 47.009800,214.123215 
	C47.009800,217.191833 46.890656,219.643997 47.102333,222.067276 
	C47.149132,222.603058 48.366238,223.036606 49.025024,223.846817 
	C49.016102,225.276505 49.026611,226.376572 48.580742,227.220108 
	C47.736504,229.149506 47.348644,231.335449 46.962658,233.876282 
	C46.959717,235.651825 46.954903,237.072464 46.993641,239.002594 
	C47.177876,252.636032 47.318550,265.759979 47.459221,278.883911 
	C47.177418,279.227356 46.895618,279.570831 45.840416,279.944305 
	C39.098503,279.965637 33.129997,279.956940 27.161488,279.948242 
z"/>
<path fill="#FCFDFD" opacity="1.000000" stroke="none" 
	d="
M49.037125,227.476654 
	C49.026611,226.376572 49.016102,225.276505 48.982788,223.380356 
	C48.959984,219.829254 48.959984,217.074203 48.959984,214.142975 
	C61.814869,214.142975 74.073242,214.142975 86.331619,214.142975 
	C81.835732,227.261185 77.339828,240.379395 72.591476,254.234177 
	C66.847260,249.214661 61.641636,244.665787 55.924137,239.669632 
	C53.864075,250.718124 51.922756,261.129791 49.689548,271.590668 
	C49.278881,261.751526 49.228542,251.861252 48.951015,241.977341 
	C48.917908,240.798126 47.647163,239.653671 46.950085,238.493103 
	C46.954903,237.072464 46.959717,235.651825 47.421326,234.120377 
	C48.264458,231.831924 48.650791,229.654297 49.037125,227.476654 
z"/>
<path fill="#F9FCFC" opacity="1.000000" stroke="none" 
	d="
M445.598511,254.520355 
	C446.009338,262.678558 446.009338,270.914978 446.009338,279.544800 
	C424.463898,279.544800 402.964325,279.544800 381.038544,279.544800 
	C381.038544,277.296570 381.038544,275.175537 381.027191,272.619965 
	C402.406433,266.323151 423.797058,260.460846 445.598511,254.520355 
z"/>
<path fill="#3BC5AA" opacity="1.000000" stroke="none" 
	d="
M115.440353,67.134644 
	C115.744003,70.525192 115.744003,73.993385 115.744003,77.887833 
	C137.847046,77.887833 159.637573,77.887833 181.966690,77.887833 
	C181.966690,63.509865 181.966690,49.269855 181.941559,34.569180 
	C182.335999,33.960094 182.755554,33.811680 183.506012,33.605755 
	C183.836899,48.278919 183.836899,63.009590 183.836899,78.332802 
	C201.736084,78.332802 218.956100,78.332802 236.651611,78.342941 
	C237.053131,78.786377 236.979156,79.219673 236.769897,79.956009 
	C219.335587,80.259048 202.036545,80.259048 184.210464,80.259048 
	C184.210464,102.561157 184.210464,124.621330 184.497406,147.032898 
	C184.025635,151.008606 183.266907,154.632919 182.323380,158.563858 
	C182.138580,155.922241 182.138580,152.974014 182.138580,149.551682 
	C159.596710,149.551682 137.727875,149.551682 114.953400,149.551682 
	C114.953400,158.465958 114.953400,167.690399 114.902313,177.362778 
	C114.156593,177.297043 113.461952,176.783386 112.671539,176.105011 
	C112.575768,167.202209 112.575768,158.464111 112.575768,149.681015 
	C107.493935,149.097137 102.243996,148.493942 97.236000,147.424927 
	C102.436050,146.959106 107.394157,146.959106 113.058960,146.959106 
	C113.058960,124.842590 113.058960,102.878189 113.058960,80.126221 
	C109.166710,80.126221 104.920685,80.126221 100.191841,80.035622 
	C100.238945,79.373962 100.768875,78.802910 102.046799,78.242981 
	C115.893967,78.449371 113.871391,80.024437 113.738655,68.472549 
	C114.204674,68.052460 114.670692,67.632370 115.440353,67.134644 
M137.499084,147.277908 
	C152.125809,147.277908 166.752533,147.277908 181.609924,147.277908 
	C181.609924,124.911400 181.609924,102.713089 181.609924,80.544914 
	C159.504913,80.544914 137.774658,80.544914 115.561462,80.544914 
	C115.561462,102.826523 115.561462,124.740166 115.561462,147.252930 
	C122.585670,147.252930 129.542526,147.252930 137.499084,147.277908 
z"/>
<path fill="#FAFCFC" opacity="1.000000" stroke="none" 
	d="
M392.300354,79.955978 
	C400.924683,87.964462 409.548981,95.972954 417.993561,103.814522 
	C412.567444,111.983734 408.262909,118.464371 403.627319,125.443382 
	C396.892334,116.004005 390.402649,106.908440 383.590576,97.186600 
	C383.268219,91.207901 383.268219,85.855484 383.268219,80.427757 
	C386.760315,80.245361 389.530304,80.100677 392.300354,79.955978 
z"/>
<path fill="#F9FCFC" opacity="1.000000" stroke="none" 
	d="
M27.135365,212.124222 
	C30.297785,191.202133 36.445839,171.186890 45.761871,152.291168 
	C46.132969,172.259094 46.132969,191.957016 46.132969,212.124222 
	C39.982937,212.124222 33.559151,212.124222 27.135365,212.124222 
z"/>
<path fill="#45C8AF" opacity="1.000000" stroke="none" 
	d="
M392.125336,79.720230 
	C389.530304,80.100677 386.760315,80.245361 383.268219,80.427757 
	C383.268219,85.855484 383.268219,91.207901 383.306763,96.986191 
	C382.896606,97.894806 382.447906,98.377541 381.702515,99.006104 
	C381.405792,93.038864 381.405792,86.925804 381.405792,80.512512 
	C359.079315,80.512512 337.403137,80.512512 315.435242,80.512512 
	C315.435242,102.926132 315.435242,125.124283 315.435242,148.540894 
	C320.330902,148.540894 325.228058,148.540894 330.591553,148.533905 
	C330.673889,149.490860 330.289886,150.454773 329.536499,151.205872 
	C324.666077,150.627518 320.165039,150.261948 315.732178,149.901917 
	C315.732178,158.884827 315.732178,167.078842 315.732178,175.272858 
	C315.064667,176.389389 314.397156,177.505920 313.449036,178.324188 
	C313.168427,168.802643 313.168427,159.579376 313.168427,149.986359 
	C304.875214,149.986359 297.411255,149.986359 289.947296,149.986359 
	C289.668365,149.508163 289.389435,149.029968 289.055481,148.271912 
	C296.804718,147.992035 304.608948,147.992035 312.798004,147.992035 
	C312.798004,125.466415 312.798004,103.227455 312.798004,80.348877 
	C294.580292,80.348877 276.327423,80.348877 257.627258,80.467018 
	C256.967712,80.044167 256.755432,79.503174 256.503540,78.724411 
	C275.164581,78.486649 293.865265,78.486649 313.170868,78.486649 
	C313.170868,63.778950 313.170868,49.888760 313.153320,35.537663 
	C313.693695,35.224178 314.251617,35.371605 315.009918,35.741455 
	C315.210266,49.870518 315.210266,63.777153 315.210266,77.965103 
	C337.364166,77.965103 359.023865,77.965103 381.324890,77.965103 
	C381.324890,75.724007 381.324890,73.785278 381.318298,71.386047 
	C381.826630,71.247528 382.341614,71.569504 383.013428,72.566818 
	C383.170258,74.809258 383.170258,76.376343 383.170258,78.084625 
	C385.963287,78.084625 388.061584,78.084625 390.159851,78.084625 
	C390.756683,78.551231 391.353516,79.017845 392.125336,79.720230 
z"/>
<path fill="#FAFCFC" opacity="1.000000" stroke="none" 
	d="
M179.731049,328.079926 
	C180.129669,333.853546 180.129669,339.614685 180.129669,345.659149 
	C158.979233,345.659149 138.283127,345.659149 117.199646,345.464539 
	C137.652328,339.535767 158.492386,333.801605 179.731049,328.079926 
z"/>
<path fill="#F5FBFA" opacity="1.000000" stroke="none" 
	d="
M448.893707,334.817444 
	C448.596497,332.584564 448.222382,329.972839 448.212555,327.359741 
	C448.155670,312.258850 448.184753,297.157654 448.184753,281.336243 
	C453.590942,281.336243 458.526611,281.336243 463.973694,281.334167 
	C461.832489,299.767822 456.536621,317.432068 448.893707,334.817444 
z"/>
<path fill="#F8FCFB" opacity="1.000000" stroke="none" 
	d="
M464.914856,279.352356 
	C459.589996,279.760132 454.328796,279.760132 448.195587,279.760132 
	C448.195587,271.344208 448.195587,263.182617 448.195435,254.557602 
	C454.289276,252.700058 460.383209,251.305908 467.804688,249.608047 
	C466.820221,259.827362 465.899384,269.385986 464.914856,279.352356 
z"/>
<path fill="#FCFCFD" opacity="1.000000" stroke="none" 
	d="
M289.970398,150.349976 
	C297.411255,149.986359 304.875214,149.986359 313.168427,149.986359 
	C313.168427,159.579376 313.168427,168.802643 313.214905,178.482208 
	C312.272919,180.775009 311.284424,182.611542 309.697388,185.560226 
	C302.761597,173.294159 296.377533,162.003876 289.970398,150.349976 
z"/>
<path fill="#FAFBFB" opacity="1.000000" stroke="none" 
	d="
M170.809738,214.059982 
	C167.063339,224.627274 163.316940,235.194565 159.570541,245.761856 
	C159.010056,245.688324 158.449585,245.614777 157.889099,245.541245 
	C154.713776,235.293518 151.538452,225.045807 148.763275,214.411926 
	C156.378860,214.037155 163.594299,214.048569 170.809738,214.059982 
z"/>
<path fill="#3DC6AB" opacity="1.000000" stroke="none" 
	d="
M27.056129,212.454208 
	C33.559151,212.124222 39.982937,212.124222 46.132969,212.124222 
	C46.132969,191.957016 46.132969,172.259094 46.060867,152.068573 
	C46.549934,150.160767 47.111095,148.745560 47.893089,147.076187 
	C59.395279,146.878571 70.677246,146.889404 81.957329,147.040848 
	C83.652710,147.063599 85.339272,147.743820 86.777122,148.581192 
	C73.912720,149.042450 61.301094,149.042450 48.727982,149.042450 
	C48.727982,170.085434 48.727982,190.800583 48.727982,212.208588 
	C61.574593,212.208588 73.831055,212.208588 86.555405,212.219742 
	C86.917267,212.741943 86.811241,213.253006 86.518417,213.953522 
	C74.073242,214.142975 61.814869,214.142975 48.959984,214.142975 
	C48.959984,217.074203 48.959984,219.829254 49.002220,223.050751 
	C48.366238,223.036606 47.149132,222.603058 47.102333,222.067276 
	C46.890656,219.643997 47.009800,217.191833 47.009800,214.123215 
	C40.398624,214.123215 34.201859,214.123215 27.541222,214.130890 
	C27.043869,213.687103 27.010382,213.235657 27.056129,212.454208 
z"/>
<path fill="#F6FAFA" opacity="1.000000" stroke="none" 
	d="
M315.891663,174.929382 
	C315.732178,167.078842 315.732178,158.884827 315.732178,149.901917 
	C320.165039,150.261948 324.666077,150.627518 329.330078,151.371613 
	C325.012421,159.362076 320.531799,166.973999 315.891663,174.929382 
z"/>
<path fill="#3FC7AD" opacity="1.000000" stroke="none" 
	d="
M314.375732,344.261536 
	C314.111908,326.554962 314.045624,309.048126 313.962952,291.037964 
	C314.437744,290.356140 314.928955,290.177582 315.686096,290.022034 
	C315.988739,308.364014 316.025482,326.682953 316.149200,345.458069 
	C315.681885,345.429962 315.127594,344.945618 314.375732,344.261536 
z"/>
<path fill="#F6FAFA" opacity="1.000000" stroke="none" 
	d="
M378.684143,272.853760 
	C379.096832,274.965302 379.096832,277.088989 379.096832,279.691620 
	C370.829742,279.691620 362.696320,279.691620 354.175201,279.493835 
	C361.948822,277.152649 370.110138,275.009277 378.684143,272.853760 
z"/>
<path fill="#3DC6AB" opacity="1.000000" stroke="none" 
	d="
M46.993641,239.002594 
	C47.647163,239.653671 48.917908,240.798126 48.951015,241.977341 
	C49.228542,251.861252 49.278881,261.751526 49.653297,272.015869 
	C49.908928,272.391846 50.022694,272.708191 49.756622,273.097321 
	C49.319901,274.297150 49.149250,275.107849 48.978592,275.918549 
	C48.681934,276.901245 48.385273,277.883972 47.773918,278.875305 
	C47.318550,265.759979 47.177876,252.636032 46.993641,239.002594 
z"/>
<path fill="#3BB49F" opacity="1.000000" stroke="none" 
	d="
M245.540375,56.700928 
	C245.773499,54.012058 246.429520,51.626011 246.503006,49.222160 
	C246.741821,41.408897 246.767487,33.589115 246.861923,25.286524 
	C247.434250,24.683535 248.019867,24.565868 248.772781,24.621593 
	C248.666107,36.260193 248.392120,47.725395 248.027191,59.658787 
	C247.189682,59.083183 246.443115,58.039394 245.540375,56.700928 
z"/>
<path fill="#E4F4F2" opacity="1.000000" stroke="none" 
	d="
M113.464325,68.603600 
	C113.871391,80.024437 115.893967,78.449371 102.326576,78.163559 
	C105.635567,74.960220 109.412788,71.847435 113.464325,68.603600 
z"/>
<path fill="#CEE6E3" opacity="1.000000" stroke="none" 
	d="
M201.217529,147.269958 
	C204.710876,146.973877 208.339706,146.981659 212.419617,146.977325 
	C211.940018,149.872314 211.009338,152.779449 209.879364,156.309113 
	C206.662888,153.013840 204.007950,150.293839 201.217529,147.269958 
z"/>
<path fill="#5ACEB8" opacity="1.000000" stroke="none" 
	d="
M170.889557,213.711884 
	C163.594299,214.048569 156.378860,214.037155 148.712402,214.048492 
	C148.123993,213.670212 147.986588,213.269150 147.868332,212.548386 
	C155.288635,212.118607 162.689758,212.008545 170.563477,211.916687 
	C171.013840,212.411179 170.991608,212.887497 170.889557,213.711884 
z"/>
<path fill="#F6FAFA" opacity="1.000000" stroke="none" 
	d="
M40.572453,282.512451 
	C36.559494,283.987213 32.546535,285.461975 28.321388,287.014740 
	C28.104485,285.429596 27.927052,284.132904 28.214525,282.388062 
	C32.643772,282.130707 36.608112,282.321564 40.572453,282.512451 
z"/>
<path fill="#3DC6AB" opacity="1.000000" stroke="none" 
	d="
M40.831879,282.466766 
	C36.608112,282.321564 32.643772,282.130707 28.206558,281.984253 
	C27.523180,281.523834 27.312675,281.018951 27.131828,280.231171 
	C33.129997,279.956940 39.098503,279.965637 45.525543,280.053284 
	C44.353153,280.895203 42.722225,281.658142 40.831879,282.466766 
z"/>
<path fill="#CFF1EB" opacity="1.000000" stroke="none" 
	d="
M389.987366,77.787865 
	C388.061584,78.084625 385.963287,78.084625 383.170258,78.084625 
	C383.170258,76.376343 383.170258,74.809258 383.187347,72.827423 
	C385.407928,74.105499 387.611420,75.798302 389.987366,77.787865 
z"/>
<path fill="#45C8AF" opacity="1.000000" stroke="none" 
	d="
M49.210342,275.700195 
	C49.149250,275.107849 49.319901,274.297150 49.701447,273.256104 
	C49.755589,273.844452 49.598843,274.663116 49.210342,275.700195 
z"/>
<path fill="#FEFFFF" opacity="1.000000" stroke="none" 
	d="
M114.095146,397.992920 
	C114.095146,381.190552 114.095146,364.886871 114.095146,348.132507 
	C136.077454,348.132507 157.767044,348.132507 179.818634,348.132507 
	C179.946487,349.312286 180.201965,350.582031 180.203934,351.852173 
	C180.230743,369.174408 180.129105,386.497528 180.295074,403.818207 
	C180.331924,407.664001 179.306778,409.330353 175.228760,409.031860 
	C171.095734,408.729370 166.923294,408.965118 162.442108,408.965118 
	C162.114929,410.593872 161.811340,412.105286 161.491928,413.695374 
	C156.533249,413.695374 151.774002,413.695374 146.801636,413.695374 
	C146.636703,410.826996 146.486359,408.212433 146.318695,405.296326 
	C140.683685,405.296326 135.268021,405.296326 129.217072,405.296326 
	C129.098969,407.882446 128.974686,410.604065 128.823547,413.913849 
	C124.883492,413.913849 121.075455,414.184998 117.347893,413.756317 
	C116.157059,413.619385 114.378387,411.708679 114.252411,410.468933 
	C113.850327,406.512054 114.098244,402.489105 114.095146,397.992920 
z"/>
<path fill="#FDFEFE" opacity="1.000000" stroke="none" 
	d="
M182.042023,356.053711 
	C182.042023,353.110687 182.042023,350.659302 182.042023,347.945038 
	C203.624680,347.945038 224.672867,347.945038 246.153839,347.945038 
	C246.153839,364.784180 246.153839,381.435089 246.153839,398.448944 
	C239.940811,398.448944 234.033691,398.448944 227.949158,398.448944 
	C227.640228,396.940002 227.347610,395.510803 226.985062,393.740112 
	C221.421951,393.740112 215.863266,393.740112 209.965851,393.740112 
	C209.689651,395.662689 209.414108,397.580719 209.059692,400.047729 
	C204.168381,400.047729 199.267960,400.047729 193.812805,400.047729 
	C193.812805,404.663330 193.812805,408.731384 193.812805,413.083740 
	C189.682663,413.083740 186.120468,413.083740 182.042023,413.083740 
	C182.042023,394.061096 182.042023,375.303192 182.042023,356.053711 
z"/>
<path fill="#FDFEFE" opacity="1.000000" stroke="none" 
	d="
M314.111206,378.042145 
	C311.386688,378.436951 308.662140,378.831757 305.733948,379.256073 
	C305.487732,380.636200 305.229736,382.082306 304.877014,384.059326 
	C300.065216,384.059326 295.144348,384.059326 289.784668,384.059326 
	C289.571289,387.149323 289.391907,389.747009 289.166748,393.007629 
	C284.262756,393.007629 279.388184,393.007629 273.979797,393.007629 
	C273.979797,399.396484 273.979797,405.139984 273.979797,411.224365 
	C268.860687,411.224365 264.285553,411.224365 259.232269,411.224365 
	C259.232269,407.293793 259.232269,403.366913 259.232269,398.845337 
	C255.567154,398.845337 252.343552,398.845337 248.678284,398.845337 
	C248.678284,381.592926 248.678284,364.932312 248.678284,347.752808 
	C270.240723,347.752808 291.665405,347.752808 313.539886,348.343628 
	C314.030182,358.637024 314.070679,368.339569 314.111206,378.042145 
z"/>
<path fill="#FEFFFF" opacity="1.000000" stroke="none" 
	d="
M315.980652,347.988953 
	C336.874512,347.988953 357.768372,347.988953 378.942017,347.988953 
	C378.942017,365.352112 378.942017,382.411316 378.942017,399.865417 
	C376.152740,399.865417 373.450562,399.865417 370.408752,399.865417 
	C370.235992,396.686676 370.069031,393.614929 369.878998,390.118134 
	C364.494934,390.118134 358.154205,388.227142 354.554535,390.562042 
	C349.175751,394.050842 344.316467,391.827667 338.840179,393.114929 
	C338.575562,390.213165 338.357697,387.824036 338.086212,384.846985 
	C333.105896,384.846985 328.213593,384.846985 323.254639,384.846985 
	C323.003540,382.645386 322.819366,381.030396 322.565796,378.807129 
	C320.715942,378.807129 318.948853,378.807129 316.650146,378.387451 
	C316.072571,367.974823 316.026611,357.981873 315.980652,347.988953 
z"/>
<path fill="#3FC7AD" opacity="1.000000" stroke="none" 
	d="
M315.650665,347.990417 
	C316.026611,357.981873 316.072571,367.974823 316.226135,378.417328 
	C315.773102,378.674896 315.212463,378.482880 314.381470,378.166504 
	C314.070679,368.339569 314.030182,358.637024 313.995209,348.465454 
	C314.440704,347.994934 314.880707,347.993408 315.650665,347.990417 
z"/>
<path fill="#CFF1EB" opacity="1.000000" stroke="none" 
	d="
M123.876587,418.260864 
	C120.652176,418.261047 117.894135,418.261047 115.136101,418.261047 
	C115.158257,417.589020 115.180412,416.917023 115.202568,416.244995 
	C119.782326,416.244995 124.362091,416.244995 128.941849,416.244995 
	C128.989594,416.732544 129.037323,417.220062 129.085068,417.707611 
	C127.504364,417.891968 125.923660,418.076324 123.876587,418.260864 
z"/>
<path fill="#3DC6AB" opacity="1.000000" stroke="none" 
	d="
M48.580746,227.220108 
	C48.650791,229.654297 48.264458,231.831924 47.419456,233.765472 
	C47.348644,231.335449 47.736504,229.149506 48.580746,227.220108 
z"/>
<path fill="#FDFEFE" opacity="1.000000" stroke="none" 
	d="
M136.999237,147.265411 
	C129.542526,147.252930 122.585670,147.252930 115.561462,147.252930 
	C115.561462,124.740166 115.561462,102.826523 115.561462,80.544914 
	C137.774658,80.544914 159.504913,80.544914 181.609924,80.544914 
	C181.609924,102.713089 181.609924,124.911400 181.609924,147.277908 
	C166.752533,147.277908 152.125809,147.277908 136.999237,147.265411 
z"/>
</svg>