<svg xmlns="http://www.w3.org/2000/svg" 
     width="1em" 
     height="1em" 
     viewBox="30 125 540 355" 
     fill="none" 
     style="display: inline-block; vertical-align: middle;"
     preserveAspectRatio="xMidYMid meet">
  <path fill="#337EFF" d="M211.01 473.76c-33.59.09-65.05-8.13-93.83-25.39-45.63-27.37-75.08-66.92-83.66-129.7-10.04-61.73 10.04-113.89 56.44-155.19 36.61-32.67 80.49-46.97 129.32-34.67 28.51 1.06 55.55 8.48 80.65 22.97-5.26 3.9-10.79 7.03-15.88 10.76-45.6 33.46-71.66 78.06-72.81 134.97-1.19 58.9 -.25 117.84-.24 176.76z"/>
  <path fill="#FFDE2D" d="M391.01 128.26c31.11-.21 60.54 6.87 87.7 21.9 48.35 26.75 79.58 66.86 89.52 121.62 9.28 51.2-3.73 97.33-36.9 136.48-32.66 39.19-75.25 60.03-125.99 55.12-36.5-3.07-70.84-10.59-103.08-28.51 20.55-12.79 38.86-27.75 53.44-46.99 23.02-30.38 35.25-64.49 35.28-102.75.05-57.59.01-115.19 0-172.78z"/>
  <path fill="#FF6446" d="M390.55 128.18c.46 57.67.5 115.27.45 172.86-.03 38.26-12.28 72.37-35.3 102.75-14.58 19.24-32.89 34.21-53.72 46.74-5.63 2.77-11.01 5.37-16.47 7.76-23.45 10.27-47.96 15.35-74 15.53-.47-58.98-1.41-117.92-.16-174.76 1.15-56.9 27.24-101.49 72.81-134.95 5.09-3.73 10.61-6.9 16.18-10.58 17.56-9.2 35.47-16.6 54.8-15.35 11.58-1.15 23.36-.54 35.52 .55z"/>
</svg>