<svg version="1.1" id="portfolio_icon_1" xmlns="http://www.w3.org/2000/svg" xmlns:xlink="http://www.w3.org/1999/xlink" 
     width="128" height="auto" viewBox="0 0 150 150" xml:space="preserve">
<path fill="#FBFCFD" opacity="1.000000" stroke="none" 
	d="
M151.000000,60.000000 
	C151.000000,64.689255 151.000000,69.378510 150.779800,74.525764 
	C150.559601,74.983765 150.118973,74.991020 149.983948,74.700081 
	C149.222656,73.300575 148.596390,72.192009 147.814301,70.810341 
	C147.076874,70.370865 146.495270,70.204483 145.548569,70.052689 
	C144.455139,70.043388 143.726837,70.019508 142.832291,69.773956 
	C142.106918,69.993347 141.547760,70.434418 140.926666,71.022018 
	C140.864731,71.168549 140.548401,71.202797 140.216797,71.243805 
	C139.578949,71.835884 139.272705,72.386963 138.986725,72.958488 
	C139.006989,72.978943 138.949478,72.981743 138.735657,73.114807 
	C138.567612,73.823257 138.613403,74.398643 138.676300,75.400566 
	C138.441452,88.071640 135.177353,99.442398 128.500488,110.055305 
	C124.987518,114.141602 121.779991,118.084343 118.394165,122.121719 
	C118.215858,122.216362 118.071869,122.593536 117.821030,122.767906 
	C115.034210,124.931862 112.498238,126.921455 109.633987,129.036591 
	C95.955399,137.444595 81.555222,140.625336 65.952042,138.243973 
	C49.781719,135.776062 36.888363,127.624008 26.104416,115.326538 
	C25.425543,114.337776 24.817120,113.628021 24.130606,112.652863 
	C23.793213,112.147186 23.533911,111.906929 23.221035,111.786896 
	C23.167461,111.907127 23.324640,111.695946 23.229582,111.376083 
	C22.142260,109.583969 21.149998,108.111732 20.126080,106.315765 
	C19.371275,104.667564 18.648130,103.343079 17.892967,101.665588 
	C16.980530,99.173340 16.100113,97.034103 15.201443,94.494301 
	C14.396591,90.738777 13.609994,87.383827 12.756518,83.651749 
	C12.401493,81.525841 12.113344,79.777054 11.896124,77.594254 
	C11.911103,75.114807 11.855154,73.069374 11.877810,70.630249 
	C12.266426,68.163452 12.576439,66.090363 13.060347,63.666298 
	C14.038638,60.244297 14.843036,57.173271 15.930786,53.994308 
	C17.169920,51.593002 18.125698,49.299629 19.352226,46.828529 
	C20.446341,45.107830 21.269707,43.564850 22.393593,41.844025 
	C23.539749,39.468750 24.385386,37.271317 25.542297,35.073307 
	C26.578568,34.725189 27.303558,34.377651 28.328159,33.869972 
	C30.410505,32.138355 32.193245,30.566883 34.269829,28.859467 
	C35.707275,27.481121 36.850880,26.238716 38.376213,24.987497 
	C39.621170,23.830261 40.397110,22.601711 41.364029,21.548491 
	C44.222404,18.434990 42.175831,16.455923 39.655495,14.977170 
	C36.948032,13.388621 34.319553,13.377316 32.627403,17.003948 
	C29.835026,18.671034 27.414417,20.332186 24.728691,22.116730 
	C23.976976,22.830404 23.490379,23.420692 22.701214,24.152081 
	C20.583981,26.515463 18.769310,28.737743 16.696499,31.161299 
	C15.252550,33.205246 14.066745,35.047920 12.626276,37.110191 
	C10.943784,39.895176 9.515955,42.460567 7.926002,45.340286 
	C7.172532,47.435120 6.581186,49.215633 5.817212,51.315594 
	C4.409869,56.080166 3.175155,60.525284 1.705199,64.973579 
	C1.469955,64.976753 1.000000,65.000000 1.000000,65.000000 
	C1.000000,43.701408 1.000000,22.402817 1.000000,1.052113 
	C50.883789,1.052113 100.767647,1.052113 151.000000,1.052113 
	C151.000000,19.019396 151.000000,37.041039 150.654938,55.445877 
	C149.900986,55.309353 149.535873,54.746849 149.076141,54.276875 
	C146.112610,51.247242 142.510910,50.956562 139.985687,53.674915 
	C137.448364,56.406319 137.399841,59.466179 140.011124,62.037865 
	C142.818634,64.802849 145.928650,64.483627 148.805054,61.809193 
	C149.498199,61.164711 150.266342,60.600906 151.000000,60.000000 
M120.972931,48.325893 
	C120.358810,47.498024 119.744698,46.670155 119.032288,45.956963 
	C119.032288,45.956963 119.162552,45.880520 119.041504,45.261559 
	C118.380783,44.470234 117.720055,43.678905 116.852119,42.262119 
	C115.278488,40.724258 113.704857,39.186398 111.958038,37.139931 
	C111.394196,36.727421 110.830353,36.314907 110.032745,35.379333 
	C109.700218,35.214745 109.367691,35.050156 108.714546,34.302685 
	C103.799370,31.598066 98.884201,28.893448 93.263657,25.810797 
	C87.482475,24.813751 81.718521,23.696005 75.913277,22.867584 
	C72.729683,22.413282 70.699974,24.261662 70.555840,27.345844 
	C70.409706,30.473129 72.422615,32.153214 75.531525,32.385769 
	C77.017487,32.496925 78.510536,32.513348 80.662056,32.875576 
	C90.857162,33.737129 99.107758,38.728268 106.915695,45.723358 
	C107.624245,46.455711 108.332794,47.188065 109.010956,47.990204 
	C109.010956,47.990204 109.080795,47.959927 109.162987,48.721207 
	C111.431152,52.168510 113.699318,55.615814 115.953133,59.769264 
	C116.583000,61.202736 117.212868,62.636208 117.912148,64.935013 
	C118.337944,69.957497 118.763741,74.979980 118.983932,80.741608 
	C118.696175,82.488968 118.408417,84.236320 117.816574,86.676956 
	C117.030632,89.067520 116.244690,91.458084 115.072327,94.288757 
	C114.725266,95.195061 114.378204,96.101364 113.496933,97.330025 
	C112.929550,98.436104 112.362167,99.542183 111.295837,101.056015 
	C110.459930,102.268158 109.624023,103.480301 108.288322,104.989479 
	C107.816399,105.594810 107.344475,106.200150 106.357277,107.047241 
	C105.840698,107.589874 105.324120,108.132500 104.217354,108.887283 
	C103.480217,109.594360 102.743088,110.301445 101.476379,111.211067 
	C100.945145,111.731796 100.413910,112.252533 99.218338,112.884361 
	C98.426147,113.521347 97.633957,114.158340 96.163689,114.853561 
	C95.109833,115.237198 94.055977,115.620834 92.350937,116.053696 
	C91.230507,116.697441 90.110077,117.341187 88.245857,117.989441 
	C86.831207,118.327713 85.416557,118.665985 83.325424,119.001114 
	C82.547081,119.330818 81.768738,119.660522 80.159706,119.999374 
	C78.772835,119.999382 77.385956,119.999390 75.235115,120.019089 
	C74.191788,121.902702 72.597656,123.716942 72.347855,125.700485 
	C72.230782,126.630135 74.706886,127.886353 76.839699,128.999283 
	C78.229645,128.995163 79.619598,128.991043 81.709717,128.987518 
	C82.809517,128.651779 83.909317,128.316025 85.736816,127.982101 
	C86.824165,127.659622 87.911507,127.337151 89.726585,126.931244 
	C91.485306,126.293137 93.244019,125.655037 95.668350,124.990372 
	C96.756020,124.368408 97.843689,123.746445 99.641708,123.045380 
	C101.447403,122.070984 103.253090,121.096588 105.606148,119.886543 
	C106.166702,119.328323 106.727257,118.770096 107.868118,118.084579 
	C108.597237,117.459381 109.326363,116.834190 110.613754,116.007462 
	C111.101273,115.427498 111.588791,114.847534 112.690536,114.051422 
	C113.517242,113.069763 114.343948,112.088104 115.759895,110.785057 
	C117.023430,108.928162 118.286972,107.071274 119.664665,104.904289 
	C119.664665,104.904289 119.570992,104.587402 119.617218,104.564835 
	C119.617218,104.564835 119.667564,104.576149 120.329185,104.380630 
	C121.643715,101.939445 122.958252,99.498268 124.757095,96.626617 
	C125.121155,95.409302 125.485214,94.191978 126.051361,92.505402 
	C126.041267,92.335388 126.031181,92.165375 126.346237,91.648613 
	C126.346237,91.648613 126.398438,91.176147 126.833725,90.598114 
	C127.201019,88.396950 127.568306,86.195786 128.171570,83.190659 
	C129.711609,74.154625 128.690735,65.423515 125.018456,56.312920 
	C124.314598,54.882919 123.610741,53.452923 122.890976,51.389637 
	C122.276833,50.570820 121.662689,49.751999 120.997559,48.990105 
	C120.997559,48.990105 121.066208,48.956768 120.972931,48.325893 
M90.298920,55.595379 
	C92.527542,57.411972 94.756172,59.228561 97.045799,61.690884 
	C97.696793,62.794342 98.347786,63.897800 98.999046,65.775253 
	C99.333008,67.183296 99.666962,68.591347 100.100037,70.755157 
	C103.370796,74.243599 105.667870,73.991959 106.998917,69.177612 
	C105.675812,66.112770 104.352707,63.047932 103.013779,59.210827 
	C102.021271,58.136433 101.028755,57.062042 100.019623,55.304634 
	C99.655098,54.538185 99.290573,53.771736 98.627495,52.386631 
	C96.157379,51.187733 93.687256,49.988831 91.113014,48.058971 
	C87.782509,46.650150 84.451996,45.241325 80.444359,43.373005 
	C77.601303,43.352448 74.758247,43.331894 71.205742,43.251087 
	C68.800591,43.964619 66.395439,44.678150 63.261837,45.589840 
	C60.836037,46.979046 58.410240,48.368252 55.389854,50.096333 
	C52.185349,54.024010 48.980843,57.951687 45.185158,62.271748 
	C44.808033,63.856483 44.430908,65.441223 43.738087,67.464569 
	C43.628414,67.980698 43.518738,68.496826 43.114944,69.633423 
	C43.119038,70.087585 43.123131,70.541756 42.901409,71.756981 
	C43.550377,76.979424 44.199348,82.201866 44.837708,88.025452 
	C45.364220,89.084419 45.890732,90.143394 46.612877,91.868568 
	C47.372227,92.996895 48.131577,94.125221 49.191376,95.901596 
	C50.745384,95.848015 52.847187,96.377228 53.699001,95.576584 
	C54.547192,94.779320 54.752876,92.363007 54.187531,91.145401 
	C49.673031,81.422340 47.982983,71.789055 54.573551,61.709522 
	C55.770863,60.216293 56.968174,58.723068 58.820263,57.027657 
	C61.167530,55.308952 63.514797,53.590248 66.394295,51.964504 
	C68.563080,51.520687 70.731865,51.076870 73.795906,50.811634 
	C76.530098,50.866756 79.264290,50.921883 82.473686,51.525120 
	C84.625206,52.083225 86.776726,52.641327 88.999916,53.744839 
	C89.332535,54.163734 89.665154,54.582630 90.298920,55.595379 
M48.974121,111.304077 
	C47.685417,110.185905 46.396717,109.067741 44.912800,107.291382 
	C42.311424,103.843773 39.710052,100.396156 36.804241,96.274155 
	C35.225422,89.916679 33.383327,83.608727 32.174419,77.181671 
	C31.531548,73.763885 30.996408,70.727768 26.799561,71.023483 
	C22.743261,71.309311 21.883474,74.235771 22.156120,77.797348 
	C22.845791,86.806435 24.847515,95.394768 29.939417,103.726097 
	C32.966061,107.138458 35.992702,110.550819 39.272095,114.606339 
	C41.515907,116.080582 43.759716,117.554817 46.117130,119.721359 
	C48.744217,121.146118 51.371307,122.570877 54.467888,124.591049 
	C56.507084,125.060013 58.565166,125.948364 60.579151,125.857651 
	C62.040134,125.791840 64.392227,124.657547 64.648247,123.591660 
	C65.029861,122.002853 64.465942,119.407486 63.302464,118.415604 
	C61.688374,117.039589 59.145691,116.752815 56.373432,115.719978 
	C54.591690,114.806297 52.809948,113.892616 50.687290,112.504784 
	C50.145912,112.331284 49.604534,112.157784 48.974121,111.304077 
M140.998917,44.528759 
	C143.382095,41.803860 143.167343,38.606537 140.679642,36.701660 
	C138.963028,35.387230 135.441925,34.866222 133.595535,35.768166 
	C132.057007,36.519718 131.027786,39.884628 131.106171,42.043663 
	C131.262192,46.341656 135.741394,47.621323 140.998917,44.528759 
M126.139641,32.436935 
	C131.180359,31.442808 130.828308,27.402042 129.634903,24.343029 
	C129.017975,22.761671 125.446068,21.335409 123.382225,21.544710 
	C120.097321,21.877846 117.836685,24.866369 119.284966,28.037861 
	C120.221626,30.089014 123.300140,31.162083 126.139641,32.436935 
M114.547058,13.009921 
	C112.288422,9.768375 109.602463,9.584260 106.592010,11.924293 
	C103.904991,14.012937 103.453957,17.089220 105.456604,19.240791 
	C106.866455,20.755489 110.199432,21.721682 112.194283,21.176960 
	C115.718880,20.214520 116.727020,17.176851 114.547058,13.009921 
M76.286545,12.959064 
	C79.763458,11.864968 81.866074,9.502282 80.805176,5.926261 
	C80.328339,4.318966 78.197281,2.532718 76.495941,2.105466 
	C73.465904,1.344543 70.748680,2.788675 70.171501,6.127463 
	C69.487320,10.085235 71.545403,12.396110 76.286545,12.959064 
M87.964333,9.592163 
	C87.779587,13.789096 90.381538,14.945119 93.930130,15.024600 
	C97.252312,15.099010 99.276215,12.873861 98.749115,10.168055 
	C98.315903,7.944235 96.202171,5.158504 94.149551,4.343181 
	C90.887375,3.047403 88.646210,5.326271 87.964333,9.592163 
M58.119781,26.281435 
	C54.282658,26.074030 51.956127,27.881033 52.246983,31.723530 
	C52.499741,35.062740 54.935844,36.771103 58.176506,35.804771 
	C59.598858,35.380646 61.623314,33.402206 61.534397,32.274620 
	C61.379597,30.311617 59.798233,28.461111 58.119781,26.281435 
M28.231653,61.542995 
	C31.160736,62.453793 34.228912,62.711975 35.180470,59.157436 
	C35.621273,57.510818 34.769279,54.489655 33.498734,53.692081 
	C32.128204,52.831749 29.118265,53.170231 27.651934,54.184002 
	C25.004229,56.014530 25.458881,58.720989 28.231653,61.542995 
M45.510044,43.869881 
	C44.852745,41.717819 44.591629,39.276543 43.338253,37.559624 
	C42.853909,36.896156 39.283100,37.280689 38.599617,38.241455 
	C37.488331,39.803596 36.580688,42.862198 37.391800,44.169167 
	C39.293163,47.232872 42.345818,46.794548 45.510044,43.869881 
M87.992561,105.538277 
	C87.360298,103.769814 87.091705,101.671501 85.926308,100.386574 
	C85.422600,99.831207 81.958847,100.667862 81.774933,101.375298 
	C81.348145,103.016953 81.558357,105.428024 82.575226,106.614761 
	C83.185402,107.326866 85.800301,106.321190 87.992561,105.538277 
M68.554703,106.890778 
	C68.692154,104.847008 68.829597,102.803238 68.967049,100.759468 
	C67.570923,100.712883 65.759750,100.111092 64.886475,100.763908 
	C63.855320,101.534767 62.790222,104.133316 63.227730,104.630669 
	C64.361824,105.919907 66.312294,106.491005 68.554703,106.890778 
M99.301193,89.329575 
	C96.257072,89.578873 95.347809,91.564888 96.036858,94.097313 
	C96.339752,95.210548 97.916328,96.812325 98.794991,96.739952 
	C100.145409,96.628738 102.543503,95.118599 102.459877,94.461220 
	C102.241486,92.744705 100.917809,91.168816 99.301193,89.329575 
z"/>
<path fill="#FBFDFD" opacity="1.000000" stroke="none" 
	d="
M151.000000,87.000000 
	C151.000000,108.264488 151.000000,129.528976 151.000000,151.000000 
	C127.312836,151.000000 103.625076,151.000000 79.631615,150.617477 
	C83.574692,149.544800 87.823479,148.854645 92.423500,148.101013 
	C93.848572,147.648804 94.922409,147.260056 96.378540,146.941772 
	C102.590347,144.374649 108.419868,141.737076 114.585953,139.051331 
	C131.241074,128.835876 141.548767,114.153320 147.433945,95.796745 
	C147.689682,95.230904 147.741074,94.863457 147.777100,94.235260 
	C147.880142,93.648911 147.998566,93.323303 148.331177,92.749229 
	C148.514709,92.079933 148.484055,91.659096 148.436737,90.880150 
	C148.665924,89.352234 148.911758,88.182426 149.464661,87.008621 
	C150.181152,87.003082 150.590576,87.001541 151.000000,87.000000 
z"/>
<path fill="#FCFDFD" opacity="1.000000" stroke="none" 
	d="
M60.000000,151.000000 
	C40.402973,151.000000 20.805948,151.000000 1.000000,151.000000 
	C1.000000,129.646225 1.000000,108.291771 1.295809,86.586853 
	C1.958097,87.195496 2.324577,88.154587 2.710883,89.486076 
	C3.100700,91.254005 3.470690,92.649536 3.852104,94.383896 
	C3.993813,95.153954 4.124097,95.585182 4.218657,96.371819 
	C5.116313,99.150948 6.049694,101.574677 7.001906,104.342384 
	C7.950053,106.475952 8.879368,108.265541 9.847174,110.342522 
	C10.144211,110.893524 10.402757,111.157120 10.611694,111.447220 
	C10.562084,111.473732 10.570223,111.585930 10.673366,111.884979 
	C11.798203,113.804825 12.819897,115.425621 13.867688,117.290512 
	C14.017631,117.879333 14.261015,118.076530 14.707948,118.405060 
	C15.276883,119.281517 15.761809,119.879105 16.314314,120.545776 
	C16.381891,120.614868 16.526966,120.742599 16.690277,121.001732 
	C18.038706,122.697662 19.223822,124.134460 20.562046,125.818710 
	C21.526384,126.867477 22.337614,127.668800 23.220100,128.591751 
	C23.291355,128.713379 23.523193,128.873810 23.680367,129.139954 
	C31.115097,136.392731 39.083759,142.277649 49.090675,145.461090 
	C50.141068,145.891129 51.041096,146.013107 52.051987,146.511078 
	C53.097637,147.153595 54.127125,147.253769 54.947647,147.720932 
	C56.689430,148.712692 58.322407,149.895523 60.000000,151.000000 
z"/>
<path fill="#182745" opacity="1.000000" stroke="none" 
	d="
M151.000000,59.600006 
	C150.266342,60.600906 149.498199,61.164711 148.805054,61.809193 
	C145.928650,64.483627 142.818634,64.802849 140.011124,62.037865 
	C137.399841,59.466179 137.448364,56.406319 139.985687,53.674915 
	C142.510910,50.956562 146.112610,51.247242 149.076141,54.276875 
	C149.535873,54.746849 149.900986,55.309353 150.654938,55.914536 
	C151.000000,57.066669 151.000000,58.133339 151.000000,59.600006 
z"/>
<path fill="#12223C" opacity="1.000000" stroke="none" 
	d="
M60.468269,151.000000 
	C58.322407,149.895523 56.689430,148.712692 54.947647,147.720932 
	C54.127125,147.253769 53.097637,147.153595 52.291691,146.212036 
	C53.212650,145.399216 54.044708,145.031357 54.790424,145.160828 
	C59.838451,146.037247 64.835182,147.471558 69.912971,147.842239 
	C75.261208,148.232666 80.680603,147.562454 86.070290,147.515594 
	C88.068916,147.498245 90.071487,147.934891 92.072258,148.164490 
	C87.823479,148.854645 83.574692,149.544800 79.162956,150.617477 
	C72.978851,151.000000 66.957695,151.000000 60.468269,151.000000 
z"/>
<path fill="#768293" opacity="1.000000" stroke="none" 
	d="
M2.691057,89.113686 
	C2.324577,88.154587 1.958097,87.195496 1.295809,86.118195 
	C1.000000,84.611107 1.000000,83.222221 1.376841,81.404121 
	C5.110853,79.992699 8.468024,79.010483 11.825195,78.028259 
	C12.113344,79.777054 12.401493,81.525841 12.408132,83.693535 
	C8.981435,85.779526 5.836246,87.446602 2.691057,89.113686 
z"/>
<path fill="#8792A0" opacity="1.000000" stroke="none" 
	d="
M11.896124,77.594246 
	C8.468024,79.010483 5.110853,79.992699 1.376841,80.987457 
	C1.000000,77.969406 1.000000,74.938812 1.305273,71.489548 
	C5.006765,71.055229 8.402985,71.039589 11.799205,71.023949 
	C11.855154,73.069374 11.911103,75.114807 11.896124,77.594246 
z"/>
<path fill="#919CAA" opacity="1.000000" stroke="none" 
	d="
M11.877810,70.630249 
	C8.402985,71.039589 5.006765,71.055229 1.305273,71.035431 
	C1.000000,69.285645 1.000000,67.571281 1.000000,65.428467 
	C1.000000,65.000000 1.469955,64.976753 2.027156,65.026169 
	C6.338008,67.834145 9.421774,64.071724 12.886451,64.017265 
	C12.576439,66.090363 12.266426,68.163452 11.877810,70.630249 
z"/>
<path fill="#E9EEF3" opacity="1.000000" stroke="none" 
	d="
M151.000000,86.539368 
	C150.590576,87.001541 150.181152,87.003082 149.422760,86.578857 
	C149.422180,82.432404 149.770584,78.711708 150.118988,74.991020 
	C150.118973,74.991020 150.559601,74.983765 150.779800,74.991882 
	C151.000000,78.692909 151.000000,82.385818 151.000000,86.539368 
z"/>
<path fill="#0C1F42" opacity="1.000000" stroke="none" 
	d="
M149.983948,74.700081 
	C149.770584,78.711708 149.422180,82.432404 149.115692,86.582855 
	C148.911758,88.182426 148.665924,89.352234 148.271988,91.145096 
	C148.121582,92.178001 148.119278,92.587852 148.116989,92.997696 
	C147.998566,93.323303 147.880142,93.648911 147.548492,94.418350 
	C147.300049,95.239822 147.264847,95.617477 147.229614,95.995132 
	C141.548767,114.153320 131.241074,128.835876 114.222427,138.999023 
	C112.426926,138.836014 111.160439,138.240829 110.264999,138.591934 
	C105.785637,140.348343 101.370453,142.283249 97.025276,144.350021 
	C96.419563,144.638138 96.326576,146.004242 95.996246,146.871307 
	C94.922409,147.260056 93.848572,147.648804 92.423500,148.101013 
	C90.071487,147.934891 88.068916,147.498245 86.070290,147.515594 
	C80.680603,147.562454 75.261208,148.232666 69.912971,147.842239 
	C64.835182,147.471558 59.838451,146.037247 54.790424,145.160828 
	C54.044708,145.031357 53.212650,145.399216 52.180832,145.836029 
	C51.041096,146.013107 50.141068,145.891129 49.101578,145.092010 
	C47.719345,143.045578 46.715225,141.257095 45.187923,140.387527 
	C41.022926,138.016144 36.604393,136.095261 32.349754,133.874359 
	C29.353813,132.310486 26.461678,130.547745 23.523193,128.873810 
	C23.523193,128.873810 23.291355,128.713379 23.457535,128.215012 
	C23.743109,127.137604 23.862505,126.558563 23.877113,125.761780 
	C23.575239,125.271515 23.314915,125.089317 22.741423,124.996071 
	C22.491491,124.994705 21.991636,124.990738 21.975048,124.696594 
	C21.644424,123.939827 21.330385,123.477203 20.770252,122.844803 
	C20.348835,122.117287 20.173517,121.559540 20.247387,120.726349 
	C23.688438,120.358200 25.494852,118.641884 26.174864,115.605537 
	C36.888363,127.624008 49.781719,135.776062 65.952042,138.243973 
	C81.555222,140.625336 95.955399,137.444595 109.779655,129.342651 
	C111.559860,130.093796 113.503349,131.512497 114.064201,131.091080 
	C116.771423,129.056946 119.561951,126.732994 118.071869,122.593536 
	C118.071869,122.593536 118.215858,122.216362 118.696365,122.355072 
	C122.232925,120.469444 125.675972,118.821495 128.173370,116.253792 
	C129.332474,115.062057 128.652298,112.081429 128.805923,109.911758 
	C135.177353,99.442398 138.441452,88.071640 138.807892,75.085571 
	C138.931396,73.889931 138.940430,73.435837 138.949478,72.981743 
	C138.949478,72.981743 139.006989,72.978943 139.240463,72.798584 
	C139.832092,72.146416 140.190247,71.674606 140.548401,71.202805 
	C140.548401,71.202797 140.864731,71.168549 141.205475,70.993835 
	C142.030319,70.544624 142.514420,70.270126 142.998520,69.995628 
	C143.726837,70.019508 144.455139,70.043388 145.734894,70.287659 
	C146.847610,70.699844 147.408875,70.891647 147.970139,71.083443 
	C148.596390,72.192009 149.222656,73.300575 149.983948,74.700081 
M26.266060,122.816284 
	C26.379391,122.972786 26.492722,123.129288 26.606052,123.285789 
	C26.583294,123.068161 26.560534,122.850533 26.266060,122.816284 
z"/>
<path fill="#152848" opacity="1.000000" stroke="none" 
	d="
M117.842735,64.069679 
	C117.212868,62.636208 116.583000,61.202736 116.099762,59.118084 
	C117.762115,56.139931 117.990860,54.237057 114.834419,53.019867 
	C113.961174,52.683125 112.647079,51.492542 112.756104,50.930576 
	C113.449234,47.357937 110.901375,48.176857 109.080795,47.959927 
	C109.080795,47.959927 109.010956,47.990204 109.014450,47.587914 
	C108.242897,46.501343 107.467857,45.817062 106.692825,45.132782 
	C99.107758,38.728268 90.857162,33.737129 80.299393,32.321587 
	C79.577194,31.261070 79.291222,30.674431 78.843826,30.263569 
	C77.667580,29.183378 76.421074,28.179684 75.202560,27.145515 
	C76.846001,26.434742 78.597656,24.950960 80.111931,25.162937 
	C84.123604,25.724516 88.032631,27.019402 92.042213,28.159054 
	C92.191895,28.341841 92.281868,28.388079 92.371834,28.434315 
	C92.255173,28.283821 92.138504,28.133329 92.161377,27.752325 
	C92.856949,27.077486 93.412987,26.633160 93.969025,26.188831 
	C98.884201,28.893448 103.799370,31.598066 109.003311,34.844604 
	C109.616890,35.558479 109.941696,35.730438 110.266510,35.902397 
	C110.830353,36.314907 111.394196,36.727421 111.986572,37.766781 
	C111.333710,39.946686 110.652306,41.499741 109.854446,43.318237 
	C111.908875,43.593884 113.466225,43.802834 114.902168,44.288994 
	C115.009674,45.129524 115.218369,46.165222 115.470924,46.176029 
	C116.695007,46.228413 117.930870,46.005733 119.162552,45.880520 
	C119.162552,45.880520 119.032288,45.956963 119.045074,46.266994 
	C119.727310,47.370274 120.396759,48.163521 121.066208,48.956768 
	C121.066208,48.956768 120.997559,48.990105 121.003891,49.317726 
	C121.010231,50.801910 121.010231,51.958469 121.010231,53.559566 
	C121.982674,52.771706 122.444778,52.397316 122.906883,52.022926 
	C123.610741,53.452923 124.314598,54.882919 124.680862,56.662266 
	C121.145004,58.260807 118.272484,59.758648 118.712875,64.014481 
	C118.229065,64.037788 118.035904,64.053734 117.842735,64.069679 
z"/>
<path fill="#213250" opacity="1.000000" stroke="none" 
	d="
M29.989933,103.014450 
	C24.847515,95.394768 22.845791,86.806435 22.156120,77.797348 
	C21.883474,74.235771 22.743261,71.309311 26.799561,71.023483 
	C30.996408,70.727768 31.531548,73.763885 32.174419,77.181671 
	C33.383327,83.608727 35.225422,89.916679 36.832653,96.914215 
	C34.570686,99.374336 32.280312,101.194389 29.989933,103.014450 
z"/>
<path fill="#0D1F40" opacity="1.000000" stroke="none" 
	d="
M54.035152,62.054398 
	C47.982983,71.789055 49.673031,81.422340 54.187531,91.145401 
	C54.752876,92.363007 54.547192,94.779320 53.699001,95.576584 
	C52.847187,96.377228 50.745384,95.848015 49.069710,95.182083 
	C48.104446,93.375839 47.260845,92.289101 46.417240,91.202362 
	C45.890732,90.143394 45.364220,89.084419 44.911057,87.319931 
	C44.894382,81.746262 44.837311,76.876831 44.646778,72.012619 
	C44.632751,71.654434 43.656261,71.333939 43.127228,70.995918 
	C43.123131,70.541756 43.119038,70.087585 43.520420,69.272964 
	C43.968525,68.283661 44.011150,67.654808 44.053780,67.025955 
	C44.430908,65.441223 44.808033,63.856483 45.830650,62.048752 
	C49.058598,59.826305 51.564964,60.342304 54.035152,62.054398 
z"/>
<path fill="#233554" opacity="1.000000" stroke="none" 
	d="
M119.003517,64.007126 
	C118.272484,59.758648 121.145004,58.260807 124.698425,57.007759 
	C128.690735,65.423515 129.711609,74.154625 127.666542,83.601295 
	C124.766190,84.687439 122.370857,85.362946 119.666229,86.035393 
	C118.944839,86.016121 118.532753,85.999901 118.120659,85.983681 
	C118.408417,84.236320 118.696175,82.488968 119.488029,80.350777 
	C120.660667,78.849602 121.771454,77.794205 121.917480,76.618942 
	C122.420258,72.572426 122.585884,68.484009 122.852280,64.794815 
	C121.656334,64.550056 120.329926,64.278587 119.003517,64.007126 
z"/>
<path fill="#A7ACBA" opacity="1.000000" stroke="none" 
	d="
M29.964676,103.370270 
	C32.280312,101.194389 34.570686,99.374336 36.984871,97.251419 
	C39.710052,100.396156 42.311424,103.843773 44.836403,107.898308 
	C43.865234,109.307312 42.970463,110.109383 41.997513,110.755493 
	C41.798981,110.559853 41.678631,110.520187 41.558281,110.480530 
	C41.674496,110.680504 41.790710,110.880478 41.866028,111.404724 
	C40.889866,112.473717 39.954605,113.218445 39.019344,113.963181 
	C35.992702,110.550819 32.966061,107.138458 29.964676,103.370270 
z"/>
<path fill="#A1A9B5" opacity="1.000000" stroke="none" 
	d="
M13.060346,63.666298 
	C9.421774,64.071724 6.338008,67.834145 2.262399,65.022995 
	C3.175155,60.525284 4.409869,56.080166 6.178279,51.354874 
	C9.100220,52.613964 11.488465,54.153229 13.727211,55.596134 
	C14.255378,55.185230 14.951405,54.643738 15.647432,54.102242 
	C14.843036,57.173271 14.038638,60.244297 13.060346,63.666298 
M8.516243,54.411064 
	C8.516243,54.411064 8.580688,54.520844 8.516243,54.411064 
M10.516811,56.412064 
	C10.516811,56.412064 10.580345,56.520294 10.516811,56.412064 
z"/>
<path fill="#BABFC6" opacity="1.000000" stroke="none" 
	d="
M140.738678,44.792366 
	C135.741394,47.621323 131.262192,46.341656 131.106171,42.043663 
	C131.027786,39.884628 132.057007,36.519718 133.595535,35.768166 
	C135.441925,34.866222 138.963028,35.387230 140.679642,36.701660 
	C143.167343,38.606537 143.382095,41.803860 140.738678,44.792366 
z"/>
<path fill="#BBBDC7" opacity="1.000000" stroke="none" 
	d="
M125.779251,32.555191 
	C123.300140,31.162083 120.221626,30.089014 119.284966,28.037861 
	C117.836685,24.866369 120.097321,21.877846 123.382225,21.544710 
	C125.446068,21.335409 129.017975,22.761671 129.634903,24.343029 
	C130.828308,27.402042 131.180359,31.442808 125.779251,32.555191 
z"/>
<path fill="#B9BEC6" opacity="1.000000" stroke="none" 
	d="
M114.722404,13.342592 
	C116.727020,17.176851 115.718880,20.214520 112.194283,21.176960 
	C110.199432,21.721682 106.866455,20.755489 105.456604,19.240791 
	C103.453957,17.089220 103.904991,14.012937 106.592010,11.924293 
	C109.602463,9.584260 112.288422,9.768375 114.722404,13.342592 
z"/>
<path fill="#BABDC6" opacity="1.000000" stroke="none" 
	d="
M75.896523,12.974405 
	C71.545403,12.396110 69.487320,10.085235 70.171501,6.127463 
	C70.748680,2.788675 73.465904,1.344543 76.495941,2.105466 
	C78.197281,2.532718 80.328339,4.318966 80.805176,5.926261 
	C81.866074,9.502282 79.763458,11.864968 75.896523,12.974405 
z"/>
<path fill="#BABDC7" opacity="1.000000" stroke="none" 
	d="
M87.966644,9.185778 
	C88.646210,5.326271 90.887375,3.047403 94.149551,4.343181 
	C96.202171,5.158504 98.315903,7.944235 98.749115,10.168055 
	C99.276215,12.873861 97.252312,15.099010 93.930130,15.024600 
	C90.381538,14.945119 87.779587,13.789096 87.966644,9.185778 
z"/>
<path fill="#F0F1F2" opacity="1.000000" stroke="none" 
	d="
M37.994480,24.996311 
	C36.850880,26.238716 35.707275,27.481121 33.984196,28.648544 
	C30.601080,26.380154 27.797445,24.186747 24.993809,21.993340 
	C27.414417,20.332186 29.835026,18.671034 33.002892,17.013439 
	C35.164925,19.676769 36.579704,22.336540 37.994480,24.996311 
z"/>
<path fill="#627084" opacity="1.000000" stroke="none" 
	d="
M2.710885,89.486076 
	C5.836246,87.446602 8.981435,85.779526 12.475009,84.070656 
	C13.609994,87.383827 14.396591,90.738777 14.799078,94.517273 
	C13.609873,94.960251 12.804778,94.979691 11.767185,94.831993 
	C11.265415,94.089394 10.996143,93.513924 10.486933,92.425690 
	C9.553910,94.126183 8.773584,95.548378 7.774159,96.870583 
	C7.281651,96.578842 7.093753,96.324028 6.936804,95.650146 
	C5.868388,94.877785 4.854534,94.461433 3.840680,94.045074 
	C3.470690,92.649536 3.100700,91.254005 2.710885,89.486076 
z"/>
<path fill="#B2B7C4" opacity="1.000000" stroke="none" 
	d="
M15.930786,53.994308 
	C14.951405,54.643738 14.255378,55.185230 13.727211,55.596134 
	C11.488465,54.153229 9.100220,52.613964 6.350907,51.035423 
	C6.581186,49.215633 7.172532,47.435120 8.301440,45.325577 
	C10.835359,45.373451 12.833483,45.741287 14.827472,46.130318 
	C16.248354,46.407536 17.663673,46.713257 19.081478,47.006256 
	C18.125698,49.299629 17.169920,51.593002 15.930786,53.994308 
z"/>
<path fill="#0E1F3B" opacity="1.000000" stroke="none" 
	d="
M91.982498,28.022503 
	C88.032631,27.019402 84.123604,25.724516 80.111931,25.162937 
	C78.597656,24.950960 76.846001,26.434742 75.202560,27.145515 
	C76.421074,28.179684 77.667580,29.183378 78.843826,30.263569 
	C79.291222,30.674431 79.577194,31.261070 79.968552,32.170135 
	C78.510536,32.513348 77.017487,32.496925 75.531525,32.385769 
	C72.422615,32.153214 70.409706,30.473129 70.555840,27.345844 
	C70.699974,24.261662 72.729683,22.413282 75.913277,22.867584 
	C81.718521,23.696005 87.482475,24.813751 93.616341,25.999813 
	C93.412987,26.633160 92.856949,27.077486 92.150490,27.761166 
	C92.000069,28.000519 91.982498,28.022503 91.982498,28.022503 
z"/>
<path fill="#F1F1F3" opacity="1.000000" stroke="none" 
	d="
M53.998394,123.995636 
	C51.371307,122.570877 48.744217,121.146118 46.055927,119.362091 
	C45.994724,119.002823 45.986156,118.979645 46.289879,118.842339 
	C48.071808,116.796333 49.550011,114.887634 51.028210,112.978928 
	C52.809948,113.892616 54.591690,114.806297 56.692947,116.242668 
	C58.553848,120.236824 57.774498,122.740852 53.998394,123.995636 
z"/>
<path fill="#CED1D7" opacity="1.000000" stroke="none" 
	d="
M12.880939,36.890594 
	C14.066745,35.047920 15.252550,33.205246 17.041779,31.224266 
	C20.173809,32.415268 22.702414,33.744579 25.231020,35.073887 
	C24.385386,37.271317 23.539749,39.468750 22.021273,41.801640 
	C18.525934,40.254929 15.703437,38.572762 12.880939,36.890594 
z"/>
<path fill="#32455C" opacity="1.000000" stroke="none" 
	d="
M54.304352,61.881958 
	C51.564964,60.342304 49.058598,59.826305 46.126240,61.852554 
	C48.980843,57.951687 52.185349,54.024010 55.665428,50.332031 
	C56.682495,52.788437 57.423992,55.009136 58.165489,57.229839 
	C56.968174,58.723068 55.770863,60.216293 54.304352,61.881958 
z"/>
<path fill="#BCC0CA" opacity="1.000000" stroke="none" 
	d="
M58.467339,26.422440 
	C59.798233,28.461111 61.379597,30.311617 61.534397,32.274620 
	C61.623314,33.402206 59.598858,35.380646 58.176506,35.804771 
	C54.935844,36.771103 52.499741,35.062740 52.246983,31.723530 
	C51.956127,27.881033 54.282658,26.074030 58.467339,26.422440 
z"/>
<path fill="#C0C5CD" opacity="1.000000" stroke="none" 
	d="
M12.626276,37.110191 
	C15.703437,38.572762 18.525934,40.254929 21.720751,41.979485 
	C21.269707,43.564850 20.446341,45.107830 19.352226,46.828529 
	C17.663673,46.713257 16.248354,46.407536 14.827472,46.130318 
	C12.833483,45.741287 10.835359,45.373451 8.463565,45.011253 
	C9.515955,42.460567 10.943784,39.895176 12.626276,37.110191 
z"/>
<path fill="#BCBFC9" opacity="1.000000" stroke="none" 
	d="
M27.913071,61.292946 
	C25.458881,58.720989 25.004229,56.014530 27.651934,54.184002 
	C29.118265,53.170231 32.128204,52.831749 33.498734,53.692081 
	C34.769279,54.489655 35.621273,57.510818 35.180470,59.157436 
	C34.228912,62.711975 31.160736,62.453793 27.913071,61.292946 
z"/>
<path fill="#152848" opacity="1.000000" stroke="none" 
	d="
M26.104416,115.326538 
	C25.494852,118.641884 23.688438,120.358200 19.903175,120.578369 
	C18.382174,120.718079 17.454569,120.730339 16.526966,120.742599 
	C16.526966,120.742599 16.381891,120.614868 16.488729,120.195068 
	C15.938358,119.225578 15.281148,118.675888 14.623938,118.126190 
	C14.261015,118.076530 14.017631,117.879333 14.161514,117.258148 
	C14.619203,115.987816 14.809163,114.993935 15.211425,113.739990 
	C16.615705,112.982834 17.807682,112.485733 19.434004,111.991287 
	C21.020445,111.894615 22.172543,111.795280 23.324640,111.695953 
	C23.324640,111.695946 23.167461,111.907127 23.245728,112.075226 
	C23.618895,112.468307 23.913795,112.693291 24.208696,112.918266 
	C24.817120,113.628021 25.425543,114.337776 26.104416,115.326538 
z"/>
<path fill="#FAFAFC" opacity="1.000000" stroke="none" 
	d="
M54.233139,124.293343 
	C57.774498,122.740852 58.553848,120.236824 57.006516,116.382523 
	C59.145691,116.752815 61.688374,117.039589 63.302464,118.415604 
	C64.465942,119.407486 65.029861,122.002853 64.648247,123.591660 
	C64.392227,124.657547 62.040134,125.791840 60.579151,125.857651 
	C58.565166,125.948364 56.507084,125.060013 54.233139,124.293343 
z"/>
<path fill="#B9BFC8" opacity="1.000000" stroke="none" 
	d="
M45.268188,44.195881 
	C42.345818,46.794548 39.293163,47.232872 37.391800,44.169167 
	C36.580688,42.862198 37.488331,39.803596 38.599617,38.241455 
	C39.283100,37.280689 42.853909,36.896156 43.338253,37.559624 
	C44.591629,39.276543 44.852745,41.717819 45.268188,44.195881 
z"/>
<path fill="#6C7888" opacity="1.000000" stroke="none" 
	d="
M58.492874,57.128746 
	C57.423992,55.009136 56.682495,52.788437 55.962723,50.162598 
	C58.410240,48.368252 60.836037,46.979046 63.689972,45.857838 
	C65.125702,47.024021 66.133301,47.922207 66.945549,48.646252 
	C66.575935,49.746502 66.219002,50.809025 65.862061,51.871544 
	C63.514797,53.590248 61.167530,55.308952 58.492874,57.128746 
z"/>
<path fill="#AAB3BE" opacity="1.000000" stroke="none" 
	d="
M81.998489,50.977005 
	C79.264290,50.921883 76.530098,50.866756 73.362671,50.394035 
	C72.591354,47.754738 72.253273,45.533035 71.915192,43.311337 
	C74.758247,43.331894 77.601303,43.352448 80.743790,44.016869 
	C81.361633,46.766151 81.680061,48.871578 81.998489,50.977005 
z"/>
<path fill="#E4E5E9" opacity="1.000000" stroke="none" 
	d="
M24.728691,22.116730 
	C27.797445,24.186747 30.601080,26.380154 33.690350,28.784485 
	C32.193245,30.566883 30.410505,32.138355 28.104660,33.597748 
	C26.055628,30.327433 24.529705,27.169207 23.003780,24.010979 
	C23.490379,23.420692 23.976976,22.830404 24.728691,22.116730 
z"/>
<path fill="#C5CAD0" opacity="1.000000" stroke="none" 
	d="
M82.236084,51.251060 
	C81.680061,48.871578 81.361633,46.766151 81.082352,44.246613 
	C84.451996,45.241325 87.782509,46.650150 90.988464,48.740944 
	C90.218697,50.681755 89.573471,51.940594 88.928246,53.199432 
	C86.776726,52.641327 84.625206,52.083225 82.236084,51.251060 
z"/>
<path fill="#33445C" opacity="1.000000" stroke="none" 
	d="
M9.808684,110.055122 
	C8.879368,108.265541 7.950053,106.475952 7.337647,104.345024 
	C8.629686,104.334068 9.604814,104.664459 10.845245,105.084740 
	C10.890755,104.382957 10.938811,103.641907 11.228745,102.911926 
	C11.470621,102.922981 11.954608,102.906708 12.271084,102.910095 
	C14.366700,102.615189 16.145842,102.316887 17.924984,102.018593 
	C18.648130,103.343079 19.371275,104.667564 20.102608,106.455795 
	C20.110792,106.919548 19.970354,107.166275 19.616413,107.103531 
	C15.874653,105.250137 14.533689,107.811424 12.794130,109.829620 
	C11.909604,110.313461 11.239913,110.949699 10.570223,111.585930 
	C10.570223,111.585930 10.562084,111.473732 10.618798,111.144035 
	C10.386569,110.561272 10.097627,110.308197 9.808684,110.055122 
z"/>
<path fill="#3B4A66" opacity="1.000000" stroke="none" 
	d="
M117.968613,86.330322 
	C118.532753,85.999901 118.944839,86.016121 119.672348,86.429115 
	C120.174644,88.354683 120.361511,89.883469 120.519524,91.176147 
	C122.916344,91.176147 124.657387,91.176147 126.398438,91.176147 
	C126.398438,91.176147 126.346237,91.648613 126.017395,91.896683 
	C125.609245,92.234917 125.444809,92.367859 125.464989,92.408020 
	C125.566597,92.610214 125.716400,92.788185 125.849274,92.974663 
	C125.485214,94.191978 125.121155,95.409302 124.105377,96.822998 
	C120.788681,95.962463 118.123711,94.905556 115.458755,93.848640 
	C116.244690,91.458084 117.030632,89.067520 117.968613,86.330322 
z"/>
<path fill="#F9F9F9" opacity="1.000000" stroke="none" 
	d="
M38.376213,24.987497 
	C36.579704,22.336540 35.164925,19.676769 33.374660,17.007507 
	C34.319553,13.377316 36.948032,13.388621 39.655495,14.977170 
	C42.175831,16.455923 44.222404,18.434990 41.364029,21.548491 
	C40.397110,22.601711 39.621170,23.830261 38.376213,24.987497 
z"/>
<path fill="#253553" opacity="1.000000" stroke="none" 
	d="
M118.712875,64.014481 
	C120.329926,64.278587 121.656334,64.550056 122.852280,64.794815 
	C122.585884,68.484009 122.420258,72.572426 121.917480,76.618942 
	C121.771454,77.794205 120.660667,78.849602 119.590828,79.981201 
	C118.763741,74.979980 118.337944,69.957497 117.877441,64.502350 
	C118.035904,64.053734 118.229065,64.037788 118.712875,64.014481 
z"/>
<path fill="#F5F5F6" opacity="1.000000" stroke="none" 
	d="
M100.000916,69.999390 
	C99.666962,68.591347 99.333008,67.183296 99.335327,65.339233 
	C100.790939,63.263180 101.910271,61.623138 103.029602,59.983093 
	C104.352707,63.047932 105.675812,66.112770 106.561638,69.588844 
	C104.083214,69.999847 102.042061,69.999619 100.000916,69.999390 
z"/>
<path fill="#DCDDE2" opacity="1.000000" stroke="none" 
	d="
M22.701214,24.152081 
	C24.529705,27.169207 26.055628,30.327433 27.805050,33.757885 
	C27.303558,34.377651 26.578568,34.725189 25.542297,35.073307 
	C22.702414,33.744579 20.173809,32.415268 17.299923,31.022991 
	C18.769310,28.737743 20.583981,26.515463 22.701214,24.152081 
z"/>
<path fill="#DADCE2" opacity="1.000000" stroke="none" 
	d="
M39.145721,114.284760 
	C39.954605,113.218445 40.889866,112.473717 41.909908,111.364159 
	C41.994686,110.999329 42.075687,110.911461 42.075687,110.911461 
	C42.970463,110.109383 43.865234,109.307312 44.934010,108.227402 
	C46.396717,109.067741 47.685417,110.185905 48.633129,111.695755 
	C47.523476,114.384834 46.754818,116.682243 45.986156,118.979645 
	C45.986156,118.979645 45.994724,119.002823 45.999126,119.015945 
	C43.759716,117.554817 41.515907,116.080582 39.145721,114.284760 
z"/>
<path fill="#929BA7" opacity="1.000000" stroke="none" 
	d="
M71.560471,43.281212 
	C72.253273,45.533035 72.591354,47.754738 72.915039,50.304745 
	C70.731865,51.076870 68.563080,51.520687 66.128181,51.918022 
	C66.219002,50.809025 66.575935,49.746502 66.945549,48.646252 
	C66.133301,47.922207 65.125702,47.024021 64.054199,45.758759 
	C66.395439,44.678150 68.800591,43.964619 71.560471,43.281212 
z"/>
<path fill="#BDC0CA" opacity="1.000000" stroke="none" 
	d="
M87.753387,105.812912 
	C85.800301,106.321190 83.185402,107.326866 82.575226,106.614761 
	C81.558357,105.428024 81.348145,103.016953 81.774933,101.375298 
	C81.958847,100.667862 85.422600,99.831207 85.926308,100.386574 
	C87.091705,101.671501 87.360298,103.769814 87.753387,105.812912 
z"/>
<path fill="#4B5970" opacity="1.000000" stroke="none" 
	d="
M115.265533,94.068695 
	C118.123711,94.905556 120.788681,95.962463 123.863220,97.038223 
	C122.958252,99.498268 121.643715,101.939445 119.754234,104.177765 
	C118.790901,103.644356 118.402519,103.313820 118.008507,102.628067 
	C117.746353,99.712631 117.158691,97.402191 114.031143,97.007675 
	C114.378204,96.101364 114.725266,95.195061 115.265533,94.068695 
z"/>
<path fill="#BEBFC3" opacity="1.000000" stroke="none" 
	d="
M68.245796,107.119774 
	C66.312294,106.491005 64.361824,105.919907 63.227730,104.630669 
	C62.790222,104.133316 63.855320,101.534767 64.886475,100.763908 
	C65.759750,100.111092 67.570923,100.712883 68.967049,100.759468 
	C68.829597,102.803238 68.692154,104.847008 68.245796,107.119774 
z"/>
<path fill="#F3F3F5" opacity="1.000000" stroke="none" 
	d="
M81.009544,128.986908 
	C79.619598,128.991043 78.229645,128.995163 76.421143,128.547546 
	C76.001411,125.397003 76.000252,122.698196 75.999084,119.999390 
	C77.385956,119.999390 78.772835,119.999382 80.579025,120.387329 
	C81.002083,123.512489 81.005814,126.249695 81.009544,128.986908 
z"/>
<path fill="#D5D5DE" opacity="1.000000" stroke="none" 
	d="
M95.002739,125.016930 
	C93.244019,125.655037 91.485306,126.293137 89.364304,126.521111 
	C88.997902,123.402290 88.993774,120.693611 88.989639,117.984924 
	C90.110077,117.341187 91.230507,116.697441 92.673492,116.443817 
	C93.664948,119.561600 94.333847,122.289261 95.002739,125.016930 
z"/>
<path fill="#BBBEC7" opacity="1.000000" stroke="none" 
	d="
M99.668030,89.433212 
	C100.917809,91.168816 102.241486,92.744705 102.459877,94.461220 
	C102.543503,95.118599 100.145409,96.628738 98.794991,96.739952 
	C97.916328,96.812325 96.339752,95.210548 96.036858,94.097313 
	C95.347809,91.564888 96.257072,89.578873 99.668030,89.433212 
z"/>
<path fill="#C5C6D0" opacity="1.000000" stroke="none" 
	d="
M95.335541,125.003647 
	C94.333847,122.289261 93.664948,119.561600 92.999084,116.419205 
	C94.055977,115.620834 95.109833,115.237198 96.586899,115.215424 
	C97.650536,118.093010 98.290955,120.608749 98.931366,123.124481 
	C97.843689,123.746445 96.756020,124.368408 95.335541,125.003647 
z"/>
<path fill="#31415D" opacity="1.000000" stroke="none" 
	d="
M126.616081,90.887131 
	C124.657387,91.176147 122.916344,91.176147 120.519524,91.176147 
	C120.361511,89.883469 120.174644,88.354683 119.981651,86.432175 
	C122.370857,85.362946 124.766190,84.687439 127.548553,84.003281 
	C127.568306,86.195786 127.201019,88.396950 126.616081,90.887131 
z"/>
<path fill="#E2E3E9" opacity="1.000000" stroke="none" 
	d="
M88.617752,117.987183 
	C88.993774,120.693611 88.997902,123.402290 89.000443,126.562828 
	C87.911507,127.337151 86.824165,127.659622 85.368866,127.570183 
	C84.667915,124.440262 84.334908,121.722252 84.001907,119.004257 
	C85.416557,118.665985 86.831207,118.327713 88.617752,117.987183 
z"/>
<path fill="#0B1B37" opacity="1.000000" stroke="none" 
	d="
M128.500488,110.055305 
	C128.652298,112.081429 129.332474,115.062057 128.173370,116.253792 
	C125.675972,118.821495 122.232925,120.469444 118.874664,122.260437 
	C121.779991,118.084343 124.987518,114.141602 128.500488,110.055305 
z"/>
<path fill="#253553" opacity="1.000000" stroke="none" 
	d="
M109.121887,48.340569 
	C110.901375,48.176857 113.449234,47.357937 112.756104,50.930576 
	C112.647079,51.492542 113.961174,52.683125 114.834419,53.019867 
	C117.990860,54.237057 117.762115,56.139931 116.106949,58.765011 
	C113.699318,55.615814 111.431152,52.168510 109.121887,48.340569 
z"/>
<path fill="#EBEBF0" opacity="1.000000" stroke="none" 
	d="
M103.021690,59.596962 
	C101.910271,61.623138 100.790939,63.263180 99.335190,64.952240 
	C98.347786,63.897800 97.696793,62.794342 97.150452,61.050339 
	C98.182159,58.935749 99.109200,57.461697 100.036247,55.987648 
	C101.028755,57.062042 102.021271,58.136433 103.021690,59.596962 
z"/>
<path fill="#E1E3E9" opacity="1.000000" stroke="none" 
	d="
M100.027939,55.646141 
	C99.109200,57.461697 98.182159,58.935749 97.119949,60.727478 
	C94.756172,59.228561 92.527542,57.411972 90.539612,55.289009 
	C93.495544,54.323524 96.210793,53.664406 98.926041,53.005283 
	C99.290573,53.771736 99.655098,54.538185 100.027939,55.646141 
z"/>
<path fill="#B3B7C2" opacity="1.000000" stroke="none" 
	d="
M99.286537,123.084930 
	C98.290955,120.608749 97.650536,118.093010 96.925941,115.186310 
	C97.633957,114.158340 98.426147,113.521347 99.613258,113.200699 
	C101.691711,115.718758 103.375244,117.920479 105.058777,120.122200 
	C103.253090,121.096588 101.447403,122.070984 99.286537,123.084930 
z"/>
<path fill="#6D748D" opacity="1.000000" stroke="none" 
	d="
M118.014137,102.983276 
	C118.402519,103.313820 118.790901,103.644356 119.423424,104.275528 
	C119.667564,104.576149 119.617218,104.564835 119.346611,104.439667 
	C119.234169,104.614464 119.392334,104.914421 119.550507,105.214386 
	C118.286972,107.071274 117.023430,108.928162 115.175392,110.810226 
	C113.724220,108.894379 112.857552,106.953346 111.997833,105.003891 
	C112.004791,104.995476 112.018730,104.981316 112.234039,104.875854 
	C112.717163,104.573845 112.900711,104.317047 113.373978,104.000153 
	C115.170013,103.661301 116.592079,103.322289 118.014137,102.983276 
z"/>
<path fill="#0B1B37" opacity="1.000000" stroke="none" 
	d="
M117.821030,122.767906 
	C119.561951,126.732994 116.771423,129.056946 114.064201,131.091080 
	C113.503349,131.512497 111.559860,130.093796 110.107925,129.217102 
	C112.498238,126.921455 115.034210,124.931862 117.821030,122.767906 
z"/>
<path fill="#43546B" opacity="1.000000" stroke="none" 
	d="
M17.892965,101.665588 
	C16.145842,102.316887 14.366700,102.615189 12.281486,102.476715 
	C11.983502,99.693016 11.991592,97.346077 11.999683,94.999130 
	C12.804778,94.979691 13.609873,94.960251 14.817331,94.917831 
	C16.100113,97.034103 16.980530,99.173340 17.892965,101.665588 
z"/>
<path fill="#D4D9DD" opacity="1.000000" stroke="none" 
	d="
M98.776764,52.695957 
	C96.210793,53.664406 93.495544,54.323524 90.389038,54.992081 
	C89.665154,54.582630 89.332535,54.163734 88.964081,53.472137 
	C89.573471,51.940594 90.218697,50.681755 91.040527,49.106422 
	C93.687256,49.988831 96.157379,51.187733 98.776764,52.695957 
z"/>
<path fill="#16253D" opacity="1.000000" stroke="none" 
	d="
M43.014320,71.376450 
	C43.656261,71.333939 44.632751,71.654434 44.646778,72.012619 
	C44.837311,76.876831 44.894382,81.746262 44.916363,87.019363 
	C44.199348,82.201866 43.550377,76.979424 43.014320,71.376450 
z"/>
<path fill="#9BA1B0" opacity="1.000000" stroke="none" 
	d="
M102.005959,111.008530 
	C102.743088,110.301445 103.480217,109.594360 104.600662,109.154060 
	C106.674477,111.683556 108.364983,113.946281 110.055489,116.209000 
	C109.326363,116.834190 108.597237,117.459381 107.239502,117.961319 
	C105.075912,115.561554 103.540939,113.285042 102.005959,111.008530 
z"/>
<path fill="#878FA2" opacity="1.000000" stroke="none" 
	d="
M110.334625,116.108231 
	C108.364983,113.946281 106.674477,111.683556 104.895752,109.047989 
	C105.324120,108.132500 105.840698,107.589874 106.788757,107.187218 
	C111.607910,107.703232 111.056625,111.534996 112.076309,114.267570 
	C111.588791,114.847534 111.101273,115.427498 110.334625,116.108231 
z"/>
<path fill="#5E6A81" opacity="1.000000" stroke="none" 
	d="
M118.008507,102.628067 
	C116.592079,103.322289 115.170013,103.661301 113.338135,103.643242 
	C112.550476,102.406868 112.172630,101.527565 111.794785,100.648262 
	C112.362167,99.542183 112.929550,98.436104 113.764038,97.168854 
	C117.158691,97.402191 117.746353,99.712631 118.008507,102.628067 
z"/>
<path fill="#A6AABA" opacity="1.000000" stroke="none" 
	d="
M101.741165,111.109802 
	C103.540939,113.285042 105.075912,115.561554 106.949341,118.024963 
	C106.727257,118.770096 106.166702,119.328323 105.332458,120.004372 
	C103.375244,117.920479 101.691711,115.718758 99.945427,113.145157 
	C100.413910,112.252533 100.945145,111.731796 101.741165,111.109802 
z"/>
<path fill="#EBECEE" opacity="1.000000" stroke="none" 
	d="
M83.663666,119.002686 
	C84.334908,121.722252 84.667915,124.440262 85.005020,127.569275 
	C83.909317,128.316025 82.809517,128.651779 81.359634,128.987213 
	C81.005814,126.249695 81.002083,123.512489 80.994370,120.382751 
	C81.768738,119.660522 82.547081,119.330818 83.663666,119.002686 
z"/>
<path fill="#FAFAFC" opacity="1.000000" stroke="none" 
	d="
M75.617104,120.009239 
	C76.000252,122.698196 76.001411,125.397003 76.005173,128.545197 
	C74.706886,127.886353 72.230782,126.630135 72.347855,125.700485 
	C72.597656,123.716942 74.191788,121.902702 75.617104,120.009239 
z"/>
<path fill="#152948" opacity="1.000000" stroke="none" 
	d="
M115.023575,44.011780 
	C113.466225,43.802834 111.908875,43.593884 109.854446,43.318237 
	C110.652306,41.499741 111.333710,39.946686 112.073166,38.021088 
	C113.704857,39.186398 115.278488,40.724258 116.789810,42.836502 
	C116.159531,43.611179 115.591553,43.811478 115.023575,44.011780 
z"/>
<path fill="#798197" opacity="1.000000" stroke="none" 
	d="
M112.383423,114.159500 
	C111.056625,111.534996 111.607910,107.703232 107.046387,107.066345 
	C107.344475,106.200150 107.816399,105.594810 108.705841,105.112267 
	C110.079201,105.160805 111.035042,105.086563 111.990883,105.012314 
	C112.857552,106.953346 113.724220,108.894379 114.880768,110.970924 
	C114.343948,112.088104 113.517242,113.069763 112.383423,114.159500 
z"/>
<path fill="#E5E5E8" opacity="1.000000" stroke="none" 
	d="
M46.289879,118.842339 
	C46.754818,116.682243 47.523476,114.384834 48.677643,112.035858 
	C49.604534,112.157784 50.145912,112.331284 50.857750,112.741852 
	C49.550011,114.887634 48.071808,116.796333 46.289879,118.842339 
z"/>
<path fill="#F8FAFA" opacity="1.000000" stroke="none" 
	d="
M100.050476,70.377274 
	C102.042061,69.999619 104.083214,69.999847 106.561722,69.999733 
	C105.667870,73.991959 103.370796,74.243599 100.050476,70.377274 
z"/>
<path fill="#6D748D" opacity="1.000000" stroke="none" 
	d="
M111.997833,105.003891 
	C111.035042,105.086563 110.079201,105.160805 108.955734,104.963745 
	C109.624023,103.480301 110.459930,102.268158 111.545311,100.852142 
	C112.172630,101.527565 112.550476,102.406868 112.749649,103.750427 
	C112.301842,104.408958 112.117760,104.664505 112.018730,104.981316 
	C112.018730,104.981316 112.004791,104.995476 111.997833,105.003891 
z"/>
<path fill="#20304F" opacity="1.000000" stroke="none" 
	d="
M23.229582,111.376083 
	C22.172543,111.795280 21.020445,111.894615 19.575640,111.661026 
	C19.512074,109.940826 19.741213,108.553551 19.970354,107.166275 
	C19.970354,107.166275 20.110792,106.919548 20.134264,106.779518 
	C21.149998,108.111732 22.142260,109.583969 23.229582,111.376083 
z"/>
<path fill="#253553" opacity="1.000000" stroke="none" 
	d="
M114.902168,44.288994 
	C115.591553,43.811478 116.159531,43.611179 116.893417,43.149231 
	C117.720055,43.678905 118.380783,44.470234 119.102028,45.571037 
	C117.930870,46.005733 116.695007,46.228413 115.470924,46.176029 
	C115.218369,46.165222 115.009674,45.129524 114.902168,44.288994 
z"/>
<path fill="#253553" opacity="1.000000" stroke="none" 
	d="
M122.898926,51.706284 
	C122.444778,52.397316 121.982674,52.771706 121.010231,53.559566 
	C121.010231,51.958469 121.010231,50.801910 121.029388,49.289265 
	C121.662689,49.751999 122.276833,50.570820 122.898926,51.706284 
z"/>
<path fill="#16253D" opacity="1.000000" stroke="none" 
	d="
M46.515060,91.535461 
	C47.260845,92.289101 48.104446,93.375839 48.919487,94.858063 
	C48.131577,94.125221 47.372227,92.996895 46.515060,91.535461 
z"/>
<path fill="#253553" opacity="1.000000" stroke="none" 
	d="
M106.804260,45.428070 
	C107.467857,45.817062 108.242897,46.501343 109.029640,47.553020 
	C108.332794,47.188065 107.624245,46.455711 106.804260,45.428070 
z"/>
<path fill="#253553" opacity="1.000000" stroke="none" 
	d="
M121.019569,48.641331 
	C120.396759,48.163521 119.727310,47.370274 119.094223,46.209656 
	C119.744698,46.670155 120.358810,47.498024 121.019569,48.641331 
z"/>
<path fill="#16253D" opacity="1.000000" stroke="none" 
	d="
M43.895935,67.245262 
	C44.011150,67.654808 43.968525,68.283661 43.667480,68.962738 
	C43.518738,68.496826 43.628414,67.980698 43.895935,67.245262 
z"/>
<path fill="#E9EEF3" opacity="1.000000" stroke="none" 
	d="
M142.832291,69.773956 
	C142.514420,70.270126 142.030319,70.544624 141.267426,70.847305 
	C141.547760,70.434418 142.106918,69.993347 142.832291,69.773956 
z"/>
<path fill="#E9EEF3" opacity="1.000000" stroke="none" 
	d="
M140.216797,71.243805 
	C140.190247,71.674606 139.832092,72.146416 139.220215,72.778122 
	C139.272705,72.386963 139.578949,71.835884 140.216797,71.243805 
z"/>
<path fill="#E9EEF3" opacity="1.000000" stroke="none" 
	d="
M138.735657,73.114807 
	C138.940430,73.435837 138.931396,73.889931 138.790771,74.659027 
	C138.613403,74.398643 138.567612,73.823257 138.735657,73.114807 
z"/>
<path fill="#E9EEF3" opacity="1.000000" stroke="none" 
	d="
M147.814301,70.810341 
	C147.408875,70.891647 146.847610,70.699844 146.100006,70.273071 
	C146.495270,70.204483 147.076874,70.370865 147.814301,70.810341 
z"/>
<path fill="#152948" opacity="1.000000" stroke="none" 
	d="
M110.149628,35.640865 
	C109.941696,35.730438 109.616890,35.558479 109.163620,35.136044 
	C109.367691,35.050156 109.700218,35.214745 110.149628,35.640865 
z"/>
<path fill="#20304F" opacity="1.000000" stroke="none" 
	d="
M24.130606,112.652863 
	C23.913795,112.693291 23.618895,112.468307 23.299301,111.955002 
	C23.533911,111.906929 23.793213,112.147186 24.130606,112.652863 
z"/>
<path fill="#31415D" opacity="1.000000" stroke="none" 
	d="
M125.950317,92.740036 
	C125.716400,92.788185 125.566597,92.610214 125.464989,92.408020 
	C125.444809,92.367859 125.609245,92.234917 125.854820,92.070061 
	C126.031181,92.165375 126.041267,92.335388 125.950317,92.740036 
z"/>
<path fill="#5E6A81" opacity="1.000000" stroke="none" 
	d="
M119.607582,105.059334 
	C119.392334,104.914421 119.234169,104.614464 119.323502,104.450958 
	C119.570992,104.587402 119.664665,104.904289 119.607582,105.059334 
z"/>
<path fill="#12223C" opacity="1.000000" stroke="none" 
	d="
M96.378540,146.941772 
	C96.326576,146.004242 96.419563,144.638138 97.025276,144.350021 
	C101.370453,142.283249 105.785637,140.348343 110.264999,138.591934 
	C111.160439,138.240829 112.426926,138.836014 113.885849,139.047180 
	C108.419868,141.737076 102.590347,144.374649 96.378540,146.941772 
z"/>
<path fill="#E9EEF3" opacity="1.000000" stroke="none" 
	d="
M148.331177,92.749229 
	C148.119278,92.587852 148.121582,92.178001 148.288635,91.503212 
	C148.484055,91.659096 148.514709,92.079933 148.331177,92.749229 
z"/>
<path fill="#E9EEF3" opacity="1.000000" stroke="none" 
	d="
M147.433960,95.796745 
	C147.264847,95.617477 147.300049,95.239822 147.563873,94.679085 
	C147.741074,94.863457 147.689682,95.230904 147.433960,95.796745 
z"/>
<path fill="#12223C" opacity="1.000000" stroke="none" 
	d="
M23.680367,129.139954 
	C26.461678,130.547745 29.353813,132.310486 32.349754,133.874359 
	C36.604393,136.095261 41.022926,138.016144 45.187923,140.387527 
	C46.715225,141.257095 47.719345,143.045578 48.951214,144.783966 
	C39.083759,142.277649 31.115097,136.392731 23.680367,129.139954 
z"/>
<path fill="#43546B" opacity="1.000000" stroke="none" 
	d="
M10.986868,102.900864 
	C10.938811,103.641907 10.890755,104.382957 10.845245,105.084740 
	C9.604814,104.664459 8.629686,104.334068 7.318817,104.001038 
	C6.049694,101.574677 5.116313,99.150948 4.560880,96.373566 
	C5.623008,96.015320 6.307187,96.010735 6.991365,96.006149 
	C7.093753,96.324028 7.281651,96.578842 7.777822,97.228378 
	C8.996013,99.424393 9.991440,101.162628 10.986868,102.900864 
z"/>
<path fill="#20304F" opacity="1.000000" stroke="none" 
	d="
M10.673366,111.884979 
	C11.239913,110.949699 11.909604,110.313461 12.793821,110.180351 
	C13.671940,111.788994 14.335532,112.894524 14.999125,114.000046 
	C14.809163,114.993935 14.619203,115.987816 14.135416,117.014069 
	C12.819897,115.425621 11.798203,113.804825 10.673366,111.884979 
z"/>
<path fill="#12223C" opacity="1.000000" stroke="none" 
	d="
M16.690277,121.001732 
	C17.454569,120.730339 18.382174,120.718079 19.653988,120.853806 
	C20.173517,121.559540 20.348835,122.117287 20.765942,123.173660 
	C21.008900,124.111107 21.010075,124.549934 20.858604,125.132248 
	C20.705959,125.275742 20.408937,125.571259 20.408937,125.571259 
	C19.223822,124.134460 18.038706,122.697662 16.690277,121.001732 
z"/>
<path fill="#12223C" opacity="1.000000" stroke="none" 
	d="
M23.981899,125.979515 
	C23.862505,126.558563 23.743109,127.137604 23.386278,128.093384 
	C22.337614,127.668800 21.526384,126.867477 20.562046,125.818710 
	C20.408937,125.571259 20.705959,125.275742 21.103642,125.134155 
	C21.501326,124.992561 21.991636,124.990738 21.991636,124.990738 
	C21.991636,124.990738 22.491491,124.994705 22.849026,125.212357 
	C23.402340,125.701591 23.660788,125.884766 23.981899,125.979515 
z"/>
<path fill="#4C5F75" opacity="1.000000" stroke="none" 
	d="
M6.936804,95.650146 
	C6.307187,96.010735 5.623008,96.015320 4.596605,96.018158 
	C4.124097,95.585182 3.993813,95.153954 3.852104,94.383896 
	C4.854534,94.461433 5.868388,94.877785 6.936804,95.650146 
z"/>
<path fill="#12223C" opacity="1.000000" stroke="none" 
	d="
M14.707947,118.405060 
	C15.281148,118.675888 15.938358,119.225578 16.421152,120.125977 
	C15.761809,119.879105 15.276883,119.281517 14.707947,118.405060 
z"/>
<path fill="#20304F" opacity="1.000000" stroke="none" 
	d="
M9.847174,110.342522 
	C10.097627,110.308197 10.386569,110.561272 10.668407,111.117523 
	C10.402757,111.157120 10.144211,110.893524 9.847174,110.342522 
z"/>
<path fill="#152848" opacity="1.000000" stroke="none" 
	d="
M21.975048,124.696594 
	C21.991636,124.990738 21.501326,124.992561 21.256287,124.990662 
	C21.010075,124.549934 21.008900,124.111107 21.012037,123.343430 
	C21.330385,123.477203 21.644424,123.939827 21.975048,124.696594 
z"/>
<path fill="#152848" opacity="1.000000" stroke="none" 
	d="
M26.401917,122.724594 
	C26.560534,122.850533 26.583294,123.068161 26.606052,123.285789 
	C26.492722,123.129288 26.379391,122.972786 26.401917,122.724594 
z"/>
<path fill="#152848" opacity="1.000000" stroke="none" 
	d="
M23.877113,125.761780 
	C23.660788,125.884766 23.402340,125.701591 23.098957,125.213715 
	C23.314915,125.089317 23.575239,125.271515 23.877113,125.761780 
z"/>
<path fill="#0E1F3B" opacity="1.000000" stroke="none" 
	d="
M92.010956,27.991676 
	C92.138504,28.133329 92.255173,28.283821 92.371834,28.434315 
	C92.281868,28.388079 92.191895,28.341841 92.042213,28.159054 
	C91.982498,28.022503 92.000069,28.000519 92.010956,27.991676 
z"/>
<path fill="#DADCE2" opacity="1.000000" stroke="none" 
	d="
M41.950806,111.039894 
	C41.790710,110.880478 41.674496,110.680504 41.558281,110.480530 
	C41.678631,110.520187 41.798981,110.559853 41.997513,110.755493 
	C42.075687,110.911461 41.994686,110.999329 41.950806,111.039894 
z"/>
<path fill="#B2B7C4" opacity="1.000000" stroke="none" 
	d="
M8.548466,54.465954 
	C8.580688,54.520844 8.516243,54.411064 8.548466,54.465954 
z"/>
<path fill="#B2B7C4" opacity="1.000000" stroke="none" 
	d="
M10.548578,56.466179 
	C10.580345,56.520294 10.516811,56.412064 10.548578,56.466179 
z"/>
<path fill="#4C5F75" opacity="1.000000" stroke="none" 
	d="
M11.228745,102.911926 
	C9.991440,101.162628 8.996013,99.424393 7.996922,97.328369 
	C8.773584,95.548378 9.553910,94.126183 10.486933,92.425690 
	C10.996143,93.513924 11.265415,94.089394 11.767185,94.832001 
	C11.991592,97.346077 11.983502,99.693016 11.965010,102.473328 
	C11.954608,102.906708 11.470621,102.922981 11.228745,102.911926 
z"/>
<path fill="#243857" opacity="1.000000" stroke="none" 
	d="
M15.211426,113.739990 
	C14.335532,112.894524 13.671940,111.788994 13.008657,110.332741 
	C14.533689,107.811424 15.874653,105.250137 19.616413,107.103531 
	C19.741213,108.553551 19.512074,109.940826 19.141296,111.658371 
	C17.807682,112.485733 16.615705,112.982834 15.211426,113.739990 
z"/>
<path fill="#5E6A81" opacity="1.000000" stroke="none" 
	d="
M112.234039,104.875854 
	C112.117760,104.664505 112.301842,104.408958 112.785492,104.107338 
	C112.900711,104.317047 112.717163,104.573845 112.234039,104.875854 
z"/>
</svg>