<svg version="1.1" id="portfolio_icon_2" xmlns="http://www.w3.org/2000/svg" xmlns:xlink="http://www.w3.org/1999/xlink" 
     width="128" height="auto" viewBox="0 0 608 603" xml:space="preserve">
<path fill="#E26E83" opacity="1.000000" stroke="none" 
	d="
M1.000000,2.000000 
	C1.166667,1.666667 1.315919,1.056198 1.502793,1.044456 
	C2.830882,0.961005 4.166666,1.000000 5.499999,1.000000 
	C206.666611,1.000000 407.833221,1.000000 608.999878,1.000000 
	C608.999878,201.999878 608.999878,402.999756 608.999939,603.999817 
	C406.333344,604.000000 203.666672,604.000000 1.290669,603.476196 
	C1.775369,602.940002 1.969401,602.927551 2.620131,602.948486 
	C77.074387,602.989746 151.071945,603.000427 225.069504,603.005066 
	C350.563141,603.013000 476.056824,602.995178 601.550354,603.114258 
	C605.936096,603.118408 607.214355,601.946777 607.176270,597.524170 
	C606.969238,573.527222 607.081116,549.527588 607.078491,525.528870 
	C607.065918,410.368195 607.045532,295.207520 607.041077,180.046860 
	C607.038879,122.549896 607.022278,65.052818 607.164185,7.556172 
	C607.174805,3.270279 606.150513,1.252412 601.625671,1.947349 
	C600.323181,2.147388 598.963806,1.976903 597.630554,1.977030 
	C468.637115,1.989329 339.643646,1.996071 210.650192,2.016326 
	C141.154541,2.027238 71.658882,2.061304 1.872236,2.066268 
	C1.387493,2.031741 1.193747,2.015871 1.000000,2.000000 
z"/>
<path fill="#E16279" opacity="1.000000" stroke="none" 
	d="
M1.000000,2.461255 
	C1.193747,2.015871 1.387493,2.031741 1.813743,2.525986 
	C2.023825,28.333965 1.983029,53.663567 1.982006,78.993172 
	C1.975985,228.140076 1.970652,377.286987 1.987625,526.433899 
	C1.990526,551.927673 2.102075,577.421387 2.163433,602.915161 
	C1.969401,602.927551 1.775369,602.940002 1.290669,602.976196 
	C1.000000,402.974182 1.000000,202.948334 1.000000,2.461255 
z"/>
<path fill="#D40126" opacity="1.000000" stroke="none" 
	d="
M2.620131,602.948486 
	C2.102075,577.421387 1.990526,551.927673 1.987625,526.433899 
	C1.970652,377.286987 1.975985,228.140076 1.982006,78.993172 
	C1.983029,53.663567 2.023825,28.333965 2.104739,2.544642 
	C71.658882,2.061304 141.154541,2.027238 210.650192,2.016326 
	C339.643646,1.996071 468.637115,1.989329 597.630554,1.977030 
	C598.963806,1.976903 600.323181,2.147388 601.625671,1.947349 
	C606.150513,1.252412 607.174805,3.270279 607.164185,7.556172 
	C607.022278,65.052818 607.038879,122.549896 607.041077,180.046860 
	C607.045532,295.207520 607.065918,410.368195 607.078491,525.528870 
	C607.081116,549.527588 606.969238,573.527222 607.176270,597.524170 
	C607.214355,601.946777 605.936096,603.118408 601.550354,603.114258 
	C476.056824,602.995178 350.563141,603.013000 225.069504,603.005066 
	C151.071945,603.000427 77.074387,602.989746 2.620131,602.948486 
M149.810089,239.030502 
	C147.631775,244.088242 145.453461,249.145966 143.032318,254.767532 
	C142.173981,253.592148 141.684982,253.145477 141.467392,252.592102 
	C135.492310,237.395950 129.460526,222.220169 123.787025,206.911743 
	C123.418068,205.916183 125.547279,203.423615 127.050049,202.485107 
	C128.266129,201.725662 130.316711,202.046432 131.949036,202.258392 
	C136.541077,202.854675 137.965347,200.685989 137.373169,196.490768 
	C137.190445,195.196228 137.099091,193.888794 136.932495,192.260849 
	C121.152405,192.260849 105.597748,192.260849 89.797577,192.260849 
	C89.797577,195.602997 89.797577,198.658478 89.797577,202.245499 
	C92.320885,202.245499 94.466309,202.153900 96.601593,202.262161 
	C103.843475,202.629364 107.562149,208.900177 104.756897,215.568344 
	C102.278732,221.459015 100.172890,227.505142 97.784294,233.434967 
	C94.921562,240.541855 91.933266,247.598145 88.784477,255.194733 
	C87.830399,254.033035 87.407822,253.712860 87.245049,253.292160 
	C81.726486,239.028442 76.093010,224.806686 70.797951,210.460083 
	C68.392181,203.941803 69.437111,202.639206 77.163124,202.295700 
	C81.375519,202.108414 80.902962,199.551743 80.929619,196.863998 
	C80.955353,194.267624 81.185570,191.846283 77.301628,191.881241 
	C64.471252,191.996719 51.639034,191.965820 38.807976,191.901627 
	C35.813187,191.886642 34.969452,193.476288 35.338360,196.008026 
	C35.673653,198.309113 33.778404,201.808868 38.214912,202.158966 
	C43.991943,202.614853 47.757542,205.984924 49.929100,210.919998 
	C53.555634,219.161682 56.745476,227.595657 60.113087,235.951126 
	C65.613319,249.597916 71.034042,263.277496 76.655731,276.874054 
	C78.163094,280.519714 93.166145,281.510132 95.405014,278.286713 
	C95.677010,277.895081 95.715721,277.347382 95.895363,276.884766 
	C98.625595,269.854004 101.324020,262.810516 104.106033,255.800262 
	C106.998039,248.512833 109.972092,241.257980 113.261421,233.120117 
	C114.668175,235.716095 115.669823,237.233170 116.354355,238.881897 
	C120.578499,249.056000 124.746880,259.253387 128.903305,269.455444 
	C133.214447,280.037262 133.205917,279.783356 144.352905,280.065948 
	C148.491028,280.170837 150.400925,278.452332 151.674805,275.109314 
	C152.490509,272.968658 153.193146,270.785156 153.983856,268.634644 
	C161.097595,249.287140 168.140671,229.913071 175.378693,210.612122 
	C178.212814,203.054596 188.880707,199.083221 195.810211,203.147507 
	C197.751877,204.286346 199.804123,207.183868 199.843765,209.311234 
	C200.169647,226.802582 200.103302,244.303024 199.987030,261.799561 
	C199.957275,266.278229 197.270752,268.710175 192.785919,269.013245 
	C190.958511,269.136719 189.111023,269.313263 187.294281,269.177124 
	C182.405518,268.810760 183.229889,272.271545 183.017807,275.199249 
	C182.776443,278.531250 183.932205,279.994720 187.525284,279.982788 
	C216.854065,279.885315 246.183395,279.895813 275.512299,279.971619 
	C278.782623,279.980072 279.932343,278.710999 279.882782,275.535553 
	C279.763214,267.871887 279.850769,260.205078 279.850189,252.539520 
	C279.849518,243.434158 279.846893,243.427734 270.841583,244.141174 
	C270.380585,244.177689 269.941010,244.484940 269.719116,244.574387 
	C268.801819,248.791382 268.152008,252.867035 267.001526,256.796082 
	C265.518616,261.860352 263.095032,266.514313 257.158325,267.267120 
	C250.458313,268.116669 243.703964,268.637329 236.956940,268.984528 
	C231.714493,269.254364 226.447052,269.038483 220.858139,269.038483 
	C220.858139,266.348907 220.856506,264.530548 220.858398,262.712219 
	C220.865372,256.046570 220.745590,249.375854 221.008804,242.720306 
	C221.052017,241.628082 222.650589,239.856506 223.752747,239.662506 
	C233.889114,237.878387 236.945251,240.010986 239.076523,249.894714 
	C240.662918,257.251556 241.660126,257.799744 249.909134,255.557495 
	C249.987823,253.863480 250.140533,252.055969 250.144470,250.248138 
	C250.167648,239.583069 250.159683,228.917908 250.155228,218.252777 
	C250.152008,210.545441 250.146576,210.536346 242.308426,211.048935 
	C241.672409,211.090530 241.052170,211.373077 240.487717,211.526505 
	C239.746246,214.578705 238.913300,217.451843 238.367584,220.378540 
	C237.453049,225.283112 234.500549,227.458267 229.647720,227.443390 
	C227.985107,227.438293 226.320770,227.590729 224.659348,227.702911 
	C221.900330,227.889252 220.779968,226.653488 220.837448,223.866760 
	C220.954269,218.203400 220.954086,212.534103 220.834305,206.870804 
	C220.771591,203.906326 221.934464,202.629959 224.932220,202.663239 
	C233.263107,202.755783 241.614014,202.388550 249.920242,202.856155 
	C254.961227,203.139938 260.817932,203.360550 263.579590,208.559753 
	C265.508606,212.191391 266.724579,216.562500 266.908478,220.663879 
	C267.112366,225.210678 268.409180,226.781677 273.006622,226.787689 
	C277.934387,226.794113 278.861633,224.454178 278.754822,220.263397 
	C278.563782,212.769348 278.470062,205.257187 278.786102,197.771606 
	C278.979523,193.190414 277.471130,191.794189 272.841431,191.813446 
	C233.014511,191.979050 193.186600,191.904984 153.358994,191.920853 
	C151.606827,191.921555 149.854736,192.100235 147.794815,192.212830 
	C147.794815,194.315781 147.749451,195.805298 147.807724,197.290741 
	C147.864777,198.744980 148.027405,200.195068 148.157928,201.824783 
	C149.415283,201.976700 150.374084,202.157806 151.338882,202.199066 
	C161.230896,202.622070 162.410339,204.603821 158.773499,214.143814 
	C155.726822,222.135712 152.879654,230.203659 149.810089,239.030502 
M256.083740,363.500000 
	C256.083252,371.997040 256.098419,380.494080 256.077484,388.991089 
	C256.059174,396.415894 254.111237,400.153015 249.283234,400.583832 
	C237.449997,401.639771 234.647903,401.260895 231.385727,393.400696 
	C222.218735,371.312897 213.349884,349.101166 204.131424,327.035248 
	C203.441849,325.384613 200.996826,323.601440 199.221497,323.434235 
	C194.102127,322.952209 188.885956,323.000092 183.755646,323.421814 
	C182.116196,323.556549 179.840027,325.170563 179.186295,326.683044 
	C169.970490,348.005463 161.023102,369.443665 151.915405,390.813202 
	C149.687256,396.041168 147.255127,401.333069 140.120148,400.868164 
	C135.213623,400.548462 135.599838,403.820374 135.456589,407.128204 
	C135.282440,411.149902 137.704636,411.228912 140.608978,411.216919 
	C152.771271,411.166718 164.936798,411.046997 177.094772,411.282013 
	C181.092300,411.359314 181.892761,409.637482 181.772919,406.222473 
	C181.663635,403.107849 181.474701,400.907379 177.263901,400.839661 
	C165.129898,400.644653 164.261063,398.949036 169.739716,387.823822 
	C169.884201,387.530457 170.250305,387.306824 170.302307,387.013306 
	C170.833298,384.016998 172.913605,383.745422 175.447678,383.777252 
	C182.943909,383.871460 190.451996,384.041809 197.936050,383.724701 
	C202.817947,383.517883 205.553314,384.502594 207.284195,389.895386 
	C210.566849,400.122955 210.465836,401.129456 199.579071,400.811279 
	C194.500015,400.662842 192.995010,402.605072 193.601944,407.163879 
	C193.768265,408.413208 193.988312,409.655365 194.194794,410.971497 
	C195.382019,411.063446 196.201981,411.182220 197.021973,411.182526 
	C227.511551,411.193878 258.001221,411.163177 288.490601,411.239105 
	C291.946320,411.247711 293.766846,410.380341 293.679596,406.478241 
	C293.599579,402.898621 292.807678,400.616241 288.646240,400.908997 
	C286.659729,401.048737 284.650726,400.833099 282.652588,400.850922 
	C278.433197,400.888550 276.666992,398.693542 276.696747,394.623291 
	C276.745422,387.959473 276.777863,381.293549 276.662720,374.631195 
	C276.599182,370.955322 278.294739,369.405121 281.829468,369.702393 
	C285.468811,370.008484 289.111084,370.313538 292.735626,370.754486 
	C300.399078,371.686768 303.912018,375.396576 304.455444,383.122528 
	C304.794037,387.935791 304.932220,392.763550 305.299042,397.574219 
	C305.658783,402.291718 306.515839,406.937256 310.925293,409.707092 
	C318.124481,414.229431 325.938904,414.198120 333.754181,411.884583 
	C343.225586,409.080811 345.662628,396.634155 343.523132,386.244629 
	C341.088318,386.244629 338.651245,386.244629 336.059235,386.244629 
	C335.874512,389.284943 336.285645,392.290833 335.358612,394.802887 
	C334.561584,396.962463 332.236877,398.558258 330.587738,400.403351 
	C329.011169,398.330017 326.623108,396.458771 326.044800,394.136810 
	C325.136047,390.488159 325.751221,386.488922 325.171600,382.722687 
	C324.250275,376.735657 322.105591,371.479034 315.231354,369.899261 
	C314.153046,369.651459 313.285065,368.488495 312.319855,367.748718 
	C313.382050,366.891510 314.330994,365.800293 315.527740,365.221161 
	C319.039337,363.521942 323.065887,362.596619 326.145416,360.347595 
	C336.832977,352.542297 337.199188,332.931824 324.010040,327.538300 
	C318.454315,325.266327 312.252258,323.595581 306.300110,323.450317 
	C285.985779,322.954498 265.651947,323.251923 245.325562,323.268921 
	C243.701355,323.270294 242.077286,323.441895 240.306610,323.542755 
	C240.306610,327.128723 240.306610,330.314697 240.306610,333.908356 
	C242.902969,333.908356 245.044235,333.904755 247.185486,333.909058 
	C254.666183,333.924011 256.027283,335.290283 256.074158,343.006714 
	C256.113617,349.504242 256.083435,356.002228 256.083740,363.500000 
M539.432556,247.829391 
	C546.533630,251.164871 547.090271,260.530029 540.024109,264.861725 
	C529.262756,271.458557 517.814453,269.934814 506.762817,265.738617 
	C498.679962,262.669617 493.837006,256.171753 492.001740,247.689743 
	C490.766052,241.978745 486.363586,244.373108 483.124786,244.088943 
	C479.354340,243.758148 480.100372,246.787430 480.086792,248.977234 
	C480.035187,257.305084 479.999146,265.634338 480.109039,273.961029 
	C480.138702,276.209137 478.915253,279.510223 482.823792,279.781311 
	C485.891663,279.994110 489.675751,281.281738 490.825806,276.359192 
	C491.137573,275.024780 492.352753,273.901459 493.137390,272.705444 
	C494.122162,272.992340 494.843018,273.040771 495.377106,273.381744 
	C507.096924,280.864105 520.001648,283.136108 533.555115,281.412201 
	C542.322815,280.297028 551.097961,278.232117 556.951660,270.774689 
	C567.652588,257.142181 565.036255,231.834671 538.835999,227.329681 
	C526.957214,225.287186 515.092834,223.156677 503.240173,220.967438 
	C496.904602,219.797226 494.373962,213.923050 497.974548,208.623047 
	C499.146301,206.898193 500.776154,205.288010 502.550293,204.205002 
	C508.349426,200.664978 514.548157,200.500809 521.218628,201.642899 
	C532.634399,203.597412 541.828857,207.777420 545.127075,220.097794 
	C546.330872,224.594391 550.361755,222.977371 553.141113,222.690430 
	C554.429138,222.557465 556.379700,219.975494 556.451233,218.430649 
	C556.797852,210.951355 556.516479,203.445572 556.650879,195.952637 
	C556.710632,192.625046 555.091553,191.934006 552.122314,191.489731 
	C546.992310,190.722198 546.162476,195.413849 543.566711,197.581940 
	C526.971252,188.559891 510.043091,186.475250 492.567688,194.072311 
	C484.295868,197.668304 477.728790,208.183945 478.415192,216.691254 
	C479.230530,226.796875 483.318787,235.020493 493.876099,237.933014 
	C502.571228,240.331833 511.449371,242.081757 520.274353,243.990311 
	C526.378418,245.310440 532.530090,246.411057 539.432556,247.829391 
M536.187256,331.325745 
	C517.933899,318.863342 498.283508,317.855560 478.323883,325.675415 
	C444.587921,338.892609 441.918365,382.705780 466.822021,401.562317 
	C483.933319,414.518616 503.022003,416.267670 522.680847,409.900513 
	C542.364075,403.525452 556.368835,387.075958 553.238098,360.386353 
	C551.811401,348.223389 545.995483,339.150177 536.187256,331.325745 
M413.063599,325.588684 
	C409.444794,324.392212 405.907745,322.702209 402.192688,322.086700 
	C387.894653,319.717682 374.542664,321.563782 362.804626,331.115143 
	C346.725800,344.198669 343.912872,367.646454 350.815063,385.539368 
	C357.115082,401.871185 372.197845,413.289825 391.108398,413.218109 
	C401.826935,413.177460 411.533722,410.524506 420.487762,405.073151 
	C428.134491,411.847961 428.134491,411.847961 433.819244,409.878326 
	C433.819244,400.376099 433.943909,390.728394 433.758087,381.086731 
	C433.683472,377.213531 434.606781,374.906769 438.984894,375.469879 
	C444.059052,376.122528 444.034698,372.832031 444.116760,369.201538 
	C444.203979,365.343872 443.179291,363.274872 438.816925,363.356293 
	C428.820679,363.542786 418.810699,363.648438 408.822266,363.311951 
	C403.960632,363.148163 402.522064,364.782349 402.429657,369.565887 
	C402.331818,374.631775 404.282684,375.957550 408.888794,375.534485 
	C412.368286,375.214966 416.232391,374.970276 416.969177,379.910919 
	C417.860443,385.887390 416.476624,391.412079 411.845428,395.313507 
	C402.328583,403.330841 382.833801,404.370972 374.732208,389.160217 
	C368.210266,376.915253 367.668030,363.703369 371.942261,350.938812 
	C377.776031,333.516785 390.943176,329.527191 409.331177,336.006592 
	C415.213501,338.079315 418.719788,343.357605 420.839600,349.022949 
	C422.518280,353.509308 425.784821,352.071014 428.703094,352.028687 
	C432.077271,351.979767 431.938751,349.379913 431.931976,346.969330 
	C431.912689,340.136230 432.055756,333.298798 431.832031,326.472961 
	C431.776794,324.788452 430.927704,322.062164 429.819427,321.694122 
	C427.216095,320.829529 424.491974,320.977631 422.611786,324.204742 
	C419.436401,329.654999 419.204254,329.519745 413.063599,325.588684 
M73.333138,334.790833 
	C74.487747,337.948517 76.557419,341.082703 76.639305,344.267975 
	C77.003212,358.423828 76.799881,372.594299 76.797371,386.759491 
	C76.795265,398.674469 76.266747,399.438232 64.817841,400.680054 
	C60.730705,401.123383 60.659653,403.587646 60.602768,406.617981 
	C60.545261,409.681610 61.565948,411.245087 64.900803,411.228485 
	C80.565414,411.150360 96.230865,411.150452 111.895454,411.231598 
	C115.149773,411.248444 116.439369,409.898132 116.241997,406.729156 
	C116.060493,403.814819 116.170242,400.819977 111.995026,400.791351 
	C108.663246,400.768494 105.331207,400.724091 102.000343,400.644806 
	C99.241264,400.579163 97.616081,399.269562 97.602013,396.367767 
	C97.567276,389.203369 97.451599,382.036652 97.619698,374.876770 
	C97.647041,373.712280 98.710564,371.905853 99.715118,371.535583 
	C108.083557,368.451172 114.264435,372.474731 115.170334,381.361511 
	C115.946579,388.976410 116.824028,389.558960 124.836609,387.359497 
	C124.836609,374.010559 124.902130,360.534241 124.700790,347.061890 
	C124.686134,346.081421 122.714645,344.318024 121.688637,344.343719 
	C119.874207,344.389160 117.310059,345.033661 116.476349,346.335022 
	C115.312386,348.151855 115.519211,350.817566 115.015457,353.092590 
	C113.891304,358.169434 102.473778,362.068970 98.553535,358.663300 
	C97.918655,358.111755 97.583427,356.906067 97.571404,355.996643 
	C97.489929,349.832428 97.329330,343.654053 97.709396,337.512115 
	C97.783821,336.309448 100.070259,334.324524 101.400261,334.270477 
	C109.053360,333.959503 116.767776,333.627441 124.378220,334.277069 
	C130.566803,334.805298 137.187180,335.913666 138.972977,343.731140 
	C139.862030,347.623077 140.590668,351.551514 141.402039,355.461304 
	C142.197540,359.294739 145.368896,358.845856 147.766388,358.307190 
	C149.338272,357.954041 151.670364,355.953583 151.713562,354.627411 
	C152.043686,344.496002 151.894653,334.348999 151.894653,324.055481 
	C150.382416,323.735168 149.271317,323.295837 148.159561,323.294189 
	C120.495888,323.253448 92.832001,323.299103 65.168533,323.211884 
	C61.135269,323.199158 60.606705,325.366028 60.578278,328.633209 
	C60.549419,331.949554 61.127083,334.190887 65.176552,333.959137 
	C67.648659,333.817688 70.148514,334.160797 73.333138,334.790833 
M425.585693,202.300613 
	C428.325195,202.300613 431.064697,202.300613 433.659393,202.300613 
	C433.659393,198.299149 433.659393,195.261047 433.659393,191.926529 
	C416.686401,191.926529 400.208221,191.943604 383.730133,191.912903 
	C380.200317,191.906326 380.259674,194.315536 380.344543,196.723099 
	C380.427856,199.086945 379.566223,202.089096 383.512695,202.238266 
	C385.342896,202.307449 387.177246,202.258133 389.008850,202.299683 
	C394.791748,202.430847 396.654083,204.034927 396.688568,209.699081 
	C396.795044,227.189636 396.711151,244.681244 396.761780,262.172272 
	C396.775360,266.857452 394.848358,269.396942 389.908936,269.190552 
	C388.778778,269.143280 387.634552,269.431671 386.092621,269.613159 
	C386.092621,272.970612 386.092621,276.183990 386.092621,279.231812 
	C386.623291,279.465302 386.775391,279.590515 386.927979,279.591125 
	C414.400452,279.701660 441.873199,279.858643 469.344604,279.729584 
	C470.619141,279.723633 472.929840,277.191376 472.979919,275.772888 
	C473.308960,266.455963 473.218781,257.120575 473.062988,247.794601 
	C473.042786,246.584976 472.147583,244.726822 471.168549,244.305374 
	C465.377411,241.812378 461.462494,244.560944 461.128479,250.780746 
	C460.428802,263.809326 455.339172,268.274780 443.241364,268.947906 
	C436.598267,269.317535 429.907440,268.797607 423.259003,269.115143 
	C418.898102,269.323456 417.427185,267.872559 417.484955,263.462311 
	C417.694427,247.473038 417.527252,231.479187 417.614624,215.487671 
	C417.628113,213.019104 418.314819,210.561462 418.541260,208.085159 
	C418.887848,204.295227 420.864746,202.359512 425.585693,202.300613 
M323.497772,191.911194 
	C312.502686,191.912842 301.506927,191.856384 290.513397,191.986893 
	C289.077759,192.003937 286.884064,192.577408 286.355560,193.583450 
	C283.896576,198.264252 286.548279,202.146317 291.923676,202.216858 
	C293.089539,202.232178 294.263214,202.174820 295.419647,202.289185 
	C299.800751,202.722488 302.512695,204.732285 302.502777,209.563324 
	C302.466492,227.221756 302.476532,244.880417 302.522278,262.538849 
	C302.534119,267.120361 300.296936,269.220703 295.811737,269.158051 
	C294.646637,269.141754 293.455719,269.358856 292.319244,269.187073 
	C287.812378,268.505829 287.585571,271.301666 287.469116,274.639343 
	C287.343475,278.239685 288.114929,280.184875 292.384735,280.012939 
	C300.035492,279.704834 307.707642,279.928589 315.370850,279.928436 
	C334.528870,279.928070 353.687592,279.841248 372.844330,279.996460 
	C376.781799,280.028351 378.111267,278.713593 378.012390,274.805084 
	C377.793335,266.147858 377.963470,257.481201 377.924072,248.818634 
	C377.917511,247.372452 377.655212,245.927429 377.504181,244.412689 
	C373.887512,244.412689 370.674164,244.412689 367.961884,244.412689 
	C366.937469,249.566101 366.512360,254.410522 364.909271,258.827393 
	C363.822449,261.821991 361.622131,265.619751 358.986053,266.635834 
	C347.540680,271.047424 335.517334,268.412537 323.333313,269.084686 
	C323.333313,248.442780 323.214142,228.651382 323.425049,208.863495 
	C323.472198,204.440826 326.270996,201.958374 331.043121,202.200012 
	C333.936615,202.346542 336.843536,202.227036 339.683289,202.227036 
	C339.683289,198.296036 339.683289,195.369720 339.683289,191.911209 
	C334.410767,191.911209 329.453369,191.911209 323.497772,191.911194 
z"/>
<path fill="#FDAD11" opacity="1.000000" stroke="none" 
	d="
M149.877121,238.634216 
	C152.879654,230.203659 155.726822,222.135712 158.773499,214.143814 
	C162.410339,204.603821 161.230896,202.622070 151.338882,202.199066 
	C150.374084,202.157806 149.415283,201.976700 148.157928,201.824783 
	C148.027405,200.195068 147.864777,198.744980 147.807724,197.290741 
	C147.749451,195.805298 147.794815,194.315781 147.794815,192.212830 
	C149.854736,192.100235 151.606827,191.921555 153.358994,191.920853 
	C193.186600,191.904984 233.014511,191.979050 272.841431,191.813446 
	C277.471130,191.794189 278.979523,193.190414 278.786102,197.771606 
	C278.470062,205.257187 278.563782,212.769348 278.754822,220.263397 
	C278.861633,224.454178 277.934387,226.794113 273.006622,226.787689 
	C268.409180,226.781677 267.112366,225.210678 266.908478,220.663879 
	C266.724579,216.562500 265.508606,212.191391 263.579590,208.559753 
	C260.817932,203.360550 254.961227,203.139938 249.920242,202.856155 
	C241.614014,202.388550 233.263107,202.755783 224.932220,202.663239 
	C221.934464,202.629959 220.771591,203.906326 220.834305,206.870804 
	C220.954086,212.534103 220.954269,218.203400 220.837448,223.866760 
	C220.779968,226.653488 221.900330,227.889252 224.659348,227.702911 
	C226.320770,227.590729 227.985107,227.438293 229.647720,227.443390 
	C234.500549,227.458267 237.453049,225.283112 238.367584,220.378540 
	C238.913300,217.451843 239.746246,214.578705 240.487717,211.526505 
	C241.052170,211.373077 241.672409,211.090530 242.308426,211.048935 
	C250.146576,210.536346 250.152008,210.545441 250.155228,218.252777 
	C250.159683,228.917908 250.167648,239.583069 250.144470,250.248138 
	C250.140533,252.055969 249.987823,253.863480 249.909134,255.557495 
	C241.660126,257.799744 240.662918,257.251556 239.076523,249.894714 
	C236.945251,240.010986 233.889114,237.878387 223.752747,239.662506 
	C222.650589,239.856506 221.052017,241.628082 221.008804,242.720306 
	C220.745590,249.375854 220.865372,256.046570 220.858398,262.712219 
	C220.856506,264.530548 220.858139,266.348907 220.858139,269.038483 
	C226.447052,269.038483 231.714493,269.254364 236.956940,268.984528 
	C243.703964,268.637329 250.458313,268.116669 257.158325,267.267120 
	C263.095032,266.514313 265.518616,261.860352 267.001526,256.796082 
	C268.152008,252.867035 268.801819,248.791382 269.719116,244.574387 
	C269.941010,244.484940 270.380585,244.177689 270.841583,244.141174 
	C279.846893,243.427734 279.849518,243.434158 279.850189,252.539520 
	C279.850769,260.205078 279.763214,267.871887 279.882782,275.535553 
	C279.932343,278.710999 278.782623,279.980072 275.512299,279.971619 
	C246.183395,279.895813 216.854065,279.885315 187.525284,279.982788 
	C183.932205,279.994720 182.776443,278.531250 183.017807,275.199249 
	C183.229889,272.271545 182.405518,268.810760 187.294281,269.177124 
	C189.111023,269.313263 190.958511,269.136719 192.785919,269.013245 
	C197.270752,268.710175 199.957275,266.278229 199.987030,261.799561 
	C200.103302,244.303024 200.169647,226.802582 199.843765,209.311234 
	C199.804123,207.183868 197.751877,204.286346 195.810211,203.147507 
	C188.880707,199.083221 178.212814,203.054596 175.378693,210.612122 
	C168.140671,229.913071 161.097595,249.287140 153.983856,268.634644 
	C153.193146,270.785156 152.490509,272.968658 151.674805,275.109314 
	C150.400925,278.452332 148.491028,280.170837 144.352905,280.065948 
	C133.205917,279.783356 133.214447,280.037262 128.903305,269.455444 
	C124.746880,259.253387 120.578499,249.056000 116.354355,238.881897 
	C115.669823,237.233170 114.668175,235.716095 113.261421,233.120117 
	C109.972092,241.257980 106.998039,248.512833 104.106033,255.800262 
	C101.324020,262.810516 98.625595,269.854004 95.895363,276.884766 
	C95.715721,277.347382 95.677010,277.895081 95.405014,278.286713 
	C93.166145,281.510132 78.163094,280.519714 76.655731,276.874054 
	C71.034042,263.277496 65.613319,249.597916 60.113087,235.951126 
	C56.745476,227.595657 53.555634,219.161682 49.929100,210.919998 
	C47.757542,205.984924 43.991943,202.614853 38.214912,202.158966 
	C33.778404,201.808868 35.673653,198.309113 35.338360,196.008026 
	C34.969452,193.476288 35.813187,191.886642 38.807976,191.901627 
	C51.639034,191.965820 64.471252,191.996719 77.301628,191.881241 
	C81.185570,191.846283 80.955353,194.267624 80.929619,196.863998 
	C80.902962,199.551743 81.375519,202.108414 77.163124,202.295700 
	C69.437111,202.639206 68.392181,203.941803 70.797951,210.460083 
	C76.093010,224.806686 81.726486,239.028442 87.245049,253.292160 
	C87.407822,253.712860 87.830399,254.033035 88.784477,255.194733 
	C91.933266,247.598145 94.921562,240.541855 97.784294,233.434967 
	C100.172890,227.505142 102.278732,221.459015 104.756897,215.568344 
	C107.562149,208.900177 103.843475,202.629364 96.601593,202.262161 
	C94.466309,202.153900 92.320885,202.245499 89.797577,202.245499 
	C89.797577,198.658478 89.797577,195.602997 89.797577,192.260849 
	C105.597748,192.260849 121.152405,192.260849 136.932495,192.260849 
	C137.099091,193.888794 137.190445,195.196228 137.373169,196.490768 
	C137.965347,200.685989 136.541077,202.854675 131.949036,202.258392 
	C130.316711,202.046432 128.266129,201.725662 127.050049,202.485107 
	C125.547279,203.423615 123.418068,205.916183 123.787025,206.911743 
	C129.460526,222.220169 135.492310,237.395950 141.467392,252.592102 
	C141.684982,253.145477 142.173981,253.592148 143.032318,254.767532 
	C145.453461,249.145966 147.631775,244.088242 149.877121,238.634216 
z"/>
<path fill="#FDAB11" opacity="1.000000" stroke="none" 
	d="
M256.083923,363.000000 
	C256.083435,356.002228 256.113617,349.504242 256.074158,343.006714 
	C256.027283,335.290283 254.666183,333.924011 247.185486,333.909058 
	C245.044235,333.904755 242.902969,333.908356 240.306610,333.908356 
	C240.306610,330.314697 240.306610,327.128723 240.306610,323.542755 
	C242.077286,323.441895 243.701355,323.270294 245.325562,323.268921 
	C265.651947,323.251923 285.985779,322.954498 306.300110,323.450317 
	C312.252258,323.595581 318.454315,325.266327 324.010040,327.538300 
	C337.199188,332.931824 336.832977,352.542297 326.145416,360.347595 
	C323.065887,362.596619 319.039337,363.521942 315.527740,365.221161 
	C314.330994,365.800293 313.382050,366.891510 312.319824,367.748718 
	C313.285065,368.488495 314.153046,369.651459 315.231354,369.899261 
	C322.105591,371.479034 324.250275,376.735657 325.171600,382.722687 
	C325.751221,386.488922 325.136047,390.488159 326.044800,394.136810 
	C326.623108,396.458771 329.011169,398.330017 330.587708,400.403351 
	C332.236877,398.558258 334.561584,396.962463 335.358612,394.802887 
	C336.285645,392.290833 335.874512,389.284943 336.059235,386.244629 
	C338.651245,386.244629 341.088318,386.244629 343.523132,386.244629 
	C345.662628,396.634155 343.225586,409.080811 333.754181,411.884583 
	C325.938904,414.198120 318.124481,414.229431 310.925293,409.707092 
	C306.515839,406.937256 305.658783,402.291718 305.299042,397.574219 
	C304.932220,392.763550 304.794037,387.935791 304.455444,383.122528 
	C303.912018,375.396576 300.399078,371.686768 292.735626,370.754486 
	C289.111084,370.313538 285.468811,370.008484 281.829468,369.702393 
	C278.294739,369.405121 276.599182,370.955322 276.662720,374.631195 
	C276.777863,381.293549 276.745422,387.959473 276.696747,394.623291 
	C276.666992,398.693542 278.433197,400.888550 282.652588,400.850922 
	C284.650726,400.833099 286.659729,401.048737 288.646240,400.908997 
	C292.807678,400.616241 293.599579,402.898621 293.679596,406.478241 
	C293.766846,410.380341 291.946320,411.247711 288.490601,411.239105 
	C258.001221,411.163177 227.511551,411.193878 197.021973,411.182526 
	C196.201981,411.182220 195.382019,411.063446 194.194794,410.971497 
	C193.988312,409.655365 193.768265,408.413208 193.601944,407.163879 
	C192.995010,402.605072 194.500015,400.662842 199.579071,400.811279 
	C210.465836,401.129456 210.566849,400.122955 207.284195,389.895386 
	C205.553314,384.502594 202.817947,383.517883 197.936050,383.724701 
	C190.451996,384.041809 182.943909,383.871460 175.447678,383.777252 
	C172.913605,383.745422 170.833298,384.016998 170.302307,387.013306 
	C170.250305,387.306824 169.884201,387.530457 169.739716,387.823822 
	C164.261063,398.949036 165.129898,400.644653 177.263901,400.839661 
	C181.474701,400.907379 181.663635,403.107849 181.772919,406.222473 
	C181.892761,409.637482 181.092300,411.359314 177.094772,411.282013 
	C164.936798,411.046997 152.771271,411.166718 140.608978,411.216919 
	C137.704636,411.228912 135.282440,411.149902 135.456589,407.128204 
	C135.599838,403.820374 135.213623,400.548462 140.120148,400.868164 
	C147.255127,401.333069 149.687256,396.041168 151.915405,390.813202 
	C161.023102,369.443665 169.970490,348.005463 179.186295,326.683044 
	C179.840027,325.170563 182.116196,323.556549 183.755646,323.421814 
	C188.885956,323.000092 194.102127,322.952209 199.221497,323.434235 
	C200.996826,323.601440 203.441849,325.384613 204.131424,327.035248 
	C213.349884,349.101166 222.218735,371.312897 231.385727,393.400696 
	C234.647903,401.260895 237.449997,401.639771 249.283234,400.583832 
	C254.111237,400.153015 256.059174,396.415894 256.077484,388.991089 
	C256.098419,380.494080 256.083252,371.997040 256.083923,363.000000 
M312.641296,350.615601 
	C313.446136,340.565674 312.188477,336.749725 303.896515,335.051331 
	C295.754883,333.383759 287.089111,334.195709 278.653473,334.198212 
	C277.997742,334.198395 276.817657,336.377716 276.776367,337.575134 
	C276.575806,343.387512 276.760040,349.211945 276.645935,355.028961 
	C276.582794,358.248260 277.969391,359.499939 281.133484,359.394012 
	C287.112396,359.193878 293.099579,359.021881 299.078949,359.116364 
	C305.161346,359.212494 309.625000,356.862640 312.641296,350.615601 
M186.920715,344.450806 
	C183.764404,352.254486 180.551300,360.035889 177.480972,367.873260 
	C176.327072,370.818787 177.113678,372.770264 180.733917,372.728760 
	C184.229095,372.688690 187.725266,372.740936 191.220993,372.740021 
	C200.491730,372.737640 200.770737,372.644379 197.966217,364.005615 
	C195.794449,357.315948 192.819672,350.886383 190.185104,344.347931 
	C189.510376,342.673370 188.842102,340.646637 186.920715,344.450806 
z"/>
<path fill="#FDAA11" opacity="1.000000" stroke="none" 
	d="
M539.046509,247.719574 
	C532.530090,246.411057 526.378418,245.310440 520.274353,243.990311 
	C511.449371,242.081757 502.571228,240.331833 493.876099,237.933014 
	C483.318787,235.020493 479.230530,226.796875 478.415192,216.691254 
	C477.728790,208.183945 484.295868,197.668304 492.567688,194.072311 
	C510.043091,186.475250 526.971252,188.559891 543.566711,197.581940 
	C546.162476,195.413849 546.992310,190.722198 552.122314,191.489731 
	C555.091553,191.934006 556.710632,192.625046 556.650879,195.952637 
	C556.516479,203.445572 556.797852,210.951355 556.451233,218.430649 
	C556.379700,219.975494 554.429138,222.557465 553.141113,222.690430 
	C550.361755,222.977371 546.330872,224.594391 545.127075,220.097794 
	C541.828857,207.777420 532.634399,203.597412 521.218628,201.642899 
	C514.548157,200.500809 508.349426,200.664978 502.550293,204.205002 
	C500.776154,205.288010 499.146301,206.898193 497.974548,208.623047 
	C494.373962,213.923050 496.904602,219.797226 503.240173,220.967438 
	C515.092834,223.156677 526.957214,225.287186 538.835999,227.329681 
	C565.036255,231.834671 567.652588,257.142181 556.951660,270.774689 
	C551.097961,278.232117 542.322815,280.297028 533.555115,281.412201 
	C520.001648,283.136108 507.096924,280.864105 495.377106,273.381744 
	C494.843018,273.040771 494.122162,272.992340 493.137390,272.705444 
	C492.352753,273.901459 491.137573,275.024780 490.825806,276.359192 
	C489.675751,281.281738 485.891663,279.994110 482.823792,279.781311 
	C478.915253,279.510223 480.138702,276.209137 480.109039,273.961029 
	C479.999146,265.634338 480.035187,257.305084 480.086792,248.977234 
	C480.100372,246.787430 479.354340,243.758148 483.124786,244.088943 
	C486.363586,244.373108 490.766052,241.978745 492.001740,247.689743 
	C493.837006,256.171753 498.679962,262.669617 506.762817,265.738617 
	C517.814453,269.934814 529.262756,271.458557 540.024109,264.861725 
	C547.090271,260.530029 546.533630,251.164871 539.046509,247.719574 
z"/>
<path fill="#FDAB11" opacity="1.000000" stroke="none" 
	d="
M536.494385,331.528259 
	C545.995483,339.150177 551.811401,348.223389 553.238098,360.386353 
	C556.368835,387.075958 542.364075,403.525452 522.680847,409.900513 
	C503.022003,416.267670 483.933319,414.518616 466.822021,401.562317 
	C441.918365,382.705780 444.587921,338.892609 478.323883,325.675415 
	C498.283508,317.855560 517.933899,318.863342 536.494385,331.528259 
M483.697540,339.139038 
	C482.234558,340.680878 480.640808,342.119537 479.329803,343.781281 
	C470.742523,354.665894 470.357910,379.028137 478.539795,390.029572 
	C491.233459,407.097626 514.695679,406.519501 526.077637,388.520599 
	C528.504333,384.683044 529.161377,379.704193 530.517029,375.215912 
	C533.619507,364.944183 531.170227,355.336212 526.560852,346.158020 
	C519.066467,331.235229 496.418457,329.073212 483.697540,339.139038 
z"/>
<path fill="#FDAB11" opacity="1.000000" stroke="none" 
	d="
M413.416809,325.749084 
	C419.204254,329.519745 419.436401,329.654999 422.611786,324.204742 
	C424.491974,320.977631 427.216095,320.829529 429.819427,321.694122 
	C430.927704,322.062164 431.776794,324.788452 431.832031,326.472961 
	C432.055756,333.298798 431.912689,340.136230 431.931976,346.969330 
	C431.938751,349.379913 432.077271,351.979767 428.703094,352.028687 
	C425.784821,352.071014 422.518280,353.509308 420.839600,349.022949 
	C418.719788,343.357605 415.213501,338.079315 409.331177,336.006592 
	C390.943176,329.527191 377.776031,333.516785 371.942261,350.938812 
	C367.668030,363.703369 368.210266,376.915253 374.732208,389.160217 
	C382.833801,404.370972 402.328583,403.330841 411.845428,395.313507 
	C416.476624,391.412079 417.860443,385.887390 416.969177,379.910919 
	C416.232391,374.970276 412.368286,375.214966 408.888794,375.534485 
	C404.282684,375.957550 402.331818,374.631775 402.429657,369.565887 
	C402.522064,364.782349 403.960632,363.148163 408.822266,363.311951 
	C418.810699,363.648438 428.820679,363.542786 438.816925,363.356293 
	C443.179291,363.274872 444.203979,365.343872 444.116760,369.201538 
	C444.034698,372.832031 444.059052,376.122528 438.984894,375.469879 
	C434.606781,374.906769 433.683472,377.213531 433.758087,381.086731 
	C433.943909,390.728394 433.819244,400.376099 433.819244,409.878326 
	C428.134491,411.847961 428.134491,411.847961 420.487762,405.073151 
	C411.533722,410.524506 401.826935,413.177460 391.108398,413.218109 
	C372.197845,413.289825 357.115082,401.871185 350.815063,385.539368 
	C343.912872,367.646454 346.725800,344.198669 362.804626,331.115143 
	C374.542664,321.563782 387.894653,319.717682 402.192688,322.086700 
	C405.907745,322.702209 409.444794,324.392212 413.416809,325.749084 
z"/>
<path fill="#FDAA11" opacity="1.000000" stroke="none" 
	d="
M72.984520,334.538544 
	C70.148514,334.160797 67.648659,333.817688 65.176552,333.959137 
	C61.127083,334.190887 60.549419,331.949554 60.578278,328.633209 
	C60.606705,325.366028 61.135269,323.199158 65.168533,323.211884 
	C92.832001,323.299103 120.495888,323.253448 148.159561,323.294189 
	C149.271317,323.295837 150.382416,323.735168 151.894653,324.055481 
	C151.894653,334.348999 152.043686,344.496002 151.713562,354.627411 
	C151.670364,355.953583 149.338272,357.954041 147.766388,358.307190 
	C145.368896,358.845856 142.197540,359.294739 141.402039,355.461304 
	C140.590668,351.551514 139.862030,347.623077 138.972977,343.731140 
	C137.187180,335.913666 130.566803,334.805298 124.378220,334.277069 
	C116.767776,333.627441 109.053360,333.959503 101.400261,334.270477 
	C100.070259,334.324524 97.783821,336.309448 97.709396,337.512115 
	C97.329330,343.654053 97.489929,349.832428 97.571404,355.996643 
	C97.583427,356.906067 97.918655,358.111755 98.553535,358.663300 
	C102.473778,362.068970 113.891304,358.169434 115.015457,353.092590 
	C115.519211,350.817566 115.312386,348.151855 116.476349,346.335022 
	C117.310059,345.033661 119.874207,344.389160 121.688637,344.343719 
	C122.714645,344.318024 124.686134,346.081421 124.700790,347.061890 
	C124.902130,360.534241 124.836609,374.010559 124.836609,387.359497 
	C116.824028,389.558960 115.946579,388.976410 115.170334,381.361511 
	C114.264435,372.474731 108.083557,368.451172 99.715118,371.535583 
	C98.710564,371.905853 97.647041,373.712280 97.619698,374.876770 
	C97.451599,382.036652 97.567276,389.203369 97.602013,396.367767 
	C97.616081,399.269562 99.241264,400.579163 102.000343,400.644806 
	C105.331207,400.724091 108.663246,400.768494 111.995026,400.791351 
	C116.170242,400.819977 116.060493,403.814819 116.241997,406.729156 
	C116.439369,409.898132 115.149773,411.248444 111.895454,411.231598 
	C96.230865,411.150452 80.565414,411.150360 64.900803,411.228485 
	C61.565948,411.245087 60.545261,409.681610 60.602768,406.617981 
	C60.659653,403.587646 60.730705,401.123383 64.817841,400.680054 
	C76.266747,399.438232 76.795265,398.674469 76.797371,386.759491 
	C76.799881,372.594299 77.003212,358.423828 76.639305,344.267975 
	C76.557419,341.082703 74.487747,337.948517 72.984520,334.538544 
z"/>
<path fill="#FDAC11" opacity="1.000000" stroke="none" 
	d="
M425.131897,202.309174 
	C420.864746,202.359512 418.887848,204.295227 418.541260,208.085159 
	C418.314819,210.561462 417.628113,213.019104 417.614624,215.487671 
	C417.527252,231.479187 417.694427,247.473038 417.484955,263.462311 
	C417.427185,267.872559 418.898102,269.323456 423.259003,269.115143 
	C429.907440,268.797607 436.598267,269.317535 443.241364,268.947906 
	C455.339172,268.274780 460.428802,263.809326 461.128479,250.780746 
	C461.462494,244.560944 465.377411,241.812378 471.168549,244.305374 
	C472.147583,244.726822 473.042786,246.584976 473.062988,247.794601 
	C473.218781,257.120575 473.308960,266.455963 472.979919,275.772888 
	C472.929840,277.191376 470.619141,279.723633 469.344604,279.729584 
	C441.873199,279.858643 414.400452,279.701660 386.927979,279.591125 
	C386.775391,279.590515 386.623291,279.465302 386.092621,279.231812 
	C386.092621,276.183990 386.092621,272.970612 386.092621,269.613159 
	C387.634552,269.431671 388.778778,269.143280 389.908936,269.190552 
	C394.848358,269.396942 396.775360,266.857452 396.761780,262.172272 
	C396.711151,244.681244 396.795044,227.189636 396.688568,209.699081 
	C396.654083,204.034927 394.791748,202.430847 389.008850,202.299683 
	C387.177246,202.258133 385.342896,202.307449 383.512695,202.238266 
	C379.566223,202.089096 380.427856,199.086945 380.344543,196.723099 
	C380.259674,194.315536 380.200317,191.906326 383.730133,191.912903 
	C400.208221,191.943604 416.686401,191.926529 433.659393,191.926529 
	C433.659393,195.261047 433.659393,198.299149 433.659393,202.300613 
	C431.064697,202.300613 428.325195,202.300613 425.131897,202.309174 
z"/>
<path fill="#FEAE11" opacity="1.000000" stroke="none" 
	d="
M323.996887,191.911194 
	C329.453369,191.911209 334.410767,191.911209 339.683289,191.911209 
	C339.683289,195.369720 339.683289,198.296036 339.683289,202.227036 
	C336.843536,202.227036 333.936615,202.346542 331.043121,202.200012 
	C326.270996,201.958374 323.472198,204.440826 323.425049,208.863495 
	C323.214142,228.651382 323.333313,248.442780 323.333313,269.084686 
	C335.517334,268.412537 347.540680,271.047424 358.986053,266.635834 
	C361.622131,265.619751 363.822449,261.821991 364.909271,258.827393 
	C366.512360,254.410522 366.937469,249.566101 367.961884,244.412689 
	C370.674164,244.412689 373.887512,244.412689 377.504181,244.412689 
	C377.655212,245.927429 377.917511,247.372452 377.924072,248.818634 
	C377.963470,257.481201 377.793335,266.147858 378.012390,274.805084 
	C378.111267,278.713593 376.781799,280.028351 372.844330,279.996460 
	C353.687592,279.841248 334.528870,279.928070 315.370850,279.928436 
	C307.707642,279.928589 300.035492,279.704834 292.384735,280.012939 
	C288.114929,280.184875 287.343475,278.239685 287.469116,274.639343 
	C287.585571,271.301666 287.812378,268.505829 292.319244,269.187073 
	C293.455719,269.358856 294.646637,269.141754 295.811737,269.158051 
	C300.296936,269.220703 302.534119,267.120361 302.522278,262.538849 
	C302.476532,244.880417 302.466492,227.221756 302.502777,209.563324 
	C302.512695,204.732285 299.800751,202.722488 295.419647,202.289185 
	C294.263214,202.174820 293.089539,202.232178 291.923676,202.216858 
	C286.548279,202.146317 283.896576,198.264252 286.355560,193.583450 
	C286.884064,192.577408 289.077759,192.003937 290.513397,191.986893 
	C301.506927,191.856384 312.502686,191.912842 323.996887,191.911194 
z"/>
<path fill="#D50425" opacity="1.000000" stroke="none" 
	d="
M312.498169,350.994568 
	C309.625000,356.862640 305.161346,359.212494 299.078949,359.116364 
	C293.099579,359.021881 287.112396,359.193878 281.133484,359.394012 
	C277.969391,359.499939 276.582794,358.248260 276.645935,355.028961 
	C276.760040,349.211945 276.575806,343.387512 276.776367,337.575134 
	C276.817657,336.377716 277.997742,334.198395 278.653473,334.198212 
	C287.089111,334.195709 295.754883,333.383759 303.896515,335.051331 
	C312.188477,336.749725 313.446136,340.565674 312.498169,350.994568 
z"/>
<path fill="#D71024" opacity="1.000000" stroke="none" 
	d="
M187.082001,344.126038 
	C188.842102,340.646637 189.510376,342.673370 190.185104,344.347931 
	C192.819672,350.886383 195.794449,357.315948 197.966217,364.005615 
	C200.770737,372.644379 200.491730,372.737640 191.220993,372.740021 
	C187.725266,372.740936 184.229095,372.688690 180.733917,372.728760 
	C177.113678,372.770264 176.327072,370.818787 177.480972,367.873260 
	C180.551300,360.035889 183.764404,352.254486 187.082001,344.126038 
z"/>
<path fill="#D40425" opacity="1.000000" stroke="none" 
	d="
M483.897095,338.816101 
	C496.418457,329.073212 519.066467,331.235229 526.560852,346.158020 
	C531.170227,355.336212 533.619507,364.944183 530.517029,375.215912 
	C529.161377,379.704193 528.504333,384.683044 526.077637,388.520599 
	C514.695679,406.519501 491.233459,407.097626 478.539795,390.029572 
	C470.357910,379.028137 470.742523,354.665894 479.329803,343.781281 
	C480.640808,342.119537 482.234558,340.680878 483.897095,338.816101 
z"/>
</svg>