<?xml version="1.0" encoding="UTF-8"?>
<svg version="1.1" viewBox="0 0 2048 2048" width="512" height="512" xmlns="http://www.w3.org/2000/svg">
<path transform="translate(1691,319)" d="m0 0 3 1-4 17-14 53-8 32-15 52-8 32-2 3-5-2-22-22-8-7-9-8-5 1-12 13-7 8-13 14-7 9-13 15-8 8-9 11-8 8-7 8-12 13-9 11-13 15-8 8-7 8-14 15-9 10-12 14-10 11-7 8-12 13-2 3h-2l-2 4-7 7-7 8-12 13-7 8-12 14-15 16-12 14-22 24-9 11-12 14-14 14-7 8-12 14-5 5-5-2-10-9-11-9-13-11-8-7-16-13-14-12-12-11-14-10h-5l-13 14-9 11-14 15-9 11-9 9-9 11-9 10-7 8-9 10-18 18-8 10-8 8-9 11-13 14-7 8-16 17-12 14-11 12-7 8-9 10-14 15-9 10-6 6-5-1-8-7-13-12-14-12-11-10-8-7-5-4h-5l-8 7-7 8-7 7-7 8-11 12-12 14-10 11-7 8-12 13-18 20-12 13-11 12-1 2h-2l-2 4-9 11-8 8-7 8-11 11-7 8-9 10-11 12-12 14-7 8-10 10-7 8-11 12-7 8-11 12-8 9-7 8-4 2-2 4-11 12-9 11-9 9-7 8-11 12-7 8-9 10-14 15-7 8-12 13-16 17-7 10 1 60 1 5 17 1 546 1 6 2v35l-1 126-7 2h-723l-7-2-1-2-1-50v-74l1-1090 1-1 16-1h672l34 1 14 1 2 2v165l-1 1-7 1h-482l-80 1v280l1 70 69 1h38l179-1-2 4-18 20-7 9-9 10-8 8-7 8-8 8-9 11-13 14-10 13-9 10-15 16-7 7-7 8-5 6-6 5-5 5-4 3-3 1-134 1-1 15v147l-1 40 12-11 8-8 9-11 11-12 14-15 9-10 9-11 9-10 8-8 1-2h2l2-4 9-9 7-8 9-10 9-9 7-8 9-10 12-14 7-7 7-8 16-17 12-14 7-8 12-13 13-14 9-11 10-10 1-2h2l2-4 13-15 9-10 8-8 7-8 10-11 7-8 13-14 9-11 13-15 13-14 7-8 14-15 11-14 5-2 12 11 14 13 8 7 12 11 8 7 10 7 4-1 8-8 1-2h2l2-4 8-8 9-11 16-17 9-10 12-13 9-9 8-10 12-13 7-8 13-15 8-8 1-2h2l2-4 9-10 9-11 8-8 7-8 8-8 7-8 11-12 7-8 9-9 7-8 10-11 7-8 6-6h5l15 14 13 10 11 9 10 9 13 10 11 10 8 7 10 9 6 5h5l12-14 6-6h2l2-4 13-15 11-12 13-15 12-12 7-8 11-12 9-11 8-8 7-8 14-17 8-8 1-2h2l2-4 12-13 7-8 14-15 3-4h2l2-4 9-10 7-8 11-12 15-16 9-11 6-7h2l2-4 9-9 7-8 14-15 18-20 9-11 12-13 7-7-1-5-4-5-8-7-14-14-8-7-13-13v-2l24-8 24-7 42-13 48-13 37-11z" fill="#396E99"/>
<path transform="translate(1691,319)" d="m0 0 3 1-4 17-14 53-8 32-15 52-8 32-2 3-5-2-22-22-8-7-9-8-5 1-12 13-7 8-13 14-7 9-13 15-8 8-9 11-8 8-7 8-12 13-9 11-13 15-8 8-7 8-14 15-9 10-12 14-10 11-7 8-12 13-2 3h-2l-2 4-7 7-7 8-12 13-7 8-12 14-15 16-12 14-22 24-9 11-12 14-14 14-7 8-12 14-5 5-5-2-10-9-11-9-13-11-8-7-16-13-14-12-12-11-14-10h-5l-13 14-9 11-14 15-9 11-9 9-9 11-9 10-7 8-9 10-18 18-8 10-8 8-9 11-13 14-7 8-16 17-12 14-11 12-7 8-9 10-14 15-9 10-6 6-5-1-8-7-13-12-14-12-11-10-8-7-5-4h-5l-8 7-7 8-7 7-7 8-11 12-12 14-10 11-7 8-12 13-18 20-12 13-11 12-1 2h-2l-2 4-9 11-8 8-7 8-11 11-7 8-9 10-11 12-12 14-7 8-10 10-7 8-11 12-7 8-11 12-8 9-7 8-4 2-2 4-11 12-9 11-9 9-7 8-11 12-7 8-9 10-14 15-7 8-12 13-16 17-7 10 1 60 1 5 17 1 546 1 6 2v35l-1 126-7 2h-723l-7-2-1-2-1-50v-74l1-15 15-15 7-8 8-8 7-8 10-11 9-11 16-17 22-24 7-8 9-10 7-8 15-16 11-12 10-11 9-11 5-6 21-21 9-11 11-12 14-15 9-10 9-11 9-10 8-8 1-2h2l2-4 9-9 7-8 9-10 9-9 7-8 9-10 12-14 7-7 7-8 16-17 12-14 7-8 12-13 13-14 9-11 10-10 1-2h2l2-4 13-15 9-10 8-8 7-8 10-11 7-8 13-14 9-11 13-15 13-14 7-8 14-15 11-14 5-2 12 11 14 13 8 7 12 11 8 7 10 7 4-1 8-8 1-2h2l2-4 8-8 9-11 16-17 9-10 12-13 9-9 8-10 12-13 7-8 13-15 8-8 1-2h2l2-4 9-10 9-11 8-8 7-8 8-8 7-8 11-12 7-8 9-9 7-8 10-11 7-8 6-6h5l15 14 13 10 11 9 10 9 13 10 11 10 8 7 10 9 6 5h5l12-14 6-6h2l2-4 13-15 11-12 13-15 12-12 7-8 11-12 9-11 8-8 7-8 14-17 8-8 1-2h2l2-4 12-13 7-8 14-15 3-4h2l2-4 9-10 7-8 11-12 15-16 9-11 6-7h2l2-4 9-9 7-8 14-15 18-20 9-11 12-13 7-7-1-5-4-5-8-7-14-14-8-7-13-13v-2l24-8 24-7 42-13 48-13 37-11z" fill="#E1A81D"/>
<path transform="translate(1133,830)" d="m0 0 6 2 14 11 10 9 14 12 9 8 11 9 9 8 14 11 12 11 5 4h5l16-17 14-15 7-8 4-4h3l1 83v7h42l62 1 180-1h100l12 1 1 1v160l-2 2-395 1-1 530-1 1-12 1h-40l-111-1-1-2v-763l1-32 1-16 5-9h2l2-4z" fill="#396E99"/>
<path transform="translate(431,1424)" d="m0 0 1 2 1 60 1 5 17 1 546 1 6 2v35l-1 126-7 2h-723l-7-2-1-2v-46l5-5 14-17 14-15 11-12 1-2h2l2-4 12-13 7-8 14-15 10-11 7-8 9-10 12-13 16-17 14-15 9-10z" fill="#396E99"/>
<path transform="translate(1170,438)" d="m0 0h169l149 1v3l-7 11-9 10-14 15-9 11-21 21-7 8-12 13-9 11-12 13-9 10h-2v2l-5 5-16 17-9 11-5 5-5 4-6 1h-43l-1 49-1 10-11 12-9 10-12 13-14 15-12 12-4-2-9-7-17-14-11-9-11-10-8-7-12-10-11-9-13-11-8-8-2-10-1-34v-35l1-122 1-3 7-1z" fill="#396E99"/>
<path transform="translate(1698,439)" d="m0 0h69l21 1 1 1v165l-3 2-52 1h-212l-4-1 2-5 12-12 7-8 12-13 9-11 14-15 16-17 5-6 4-1 11 9 14 12 9 9 8 7 13 12 5 2 3-9 18-61 12-43 4-17z" fill="#396E99"/>
<path transform="translate(828,1039)" d="m0 0 4 1 8 7 12 11 17 14 13 11 4 5 1 2v33l-2 2-4 1h-131l2-4 9-9 1-2h2l2-4 7-8 11-12 9-10 14-15 12-13z" fill="#396E99"/>
</svg>
