<svg width="512" height="512" viewBox="0 0 800 800" xmlns="http://www.w3.org/2000/svg">
  <defs>
    <linearGradient id="metalGrad" x1="0%" y1="0%" x2="100%" y2="100%">
      <stop offset="0%" stop-color="#f2f2f2" />
      <stop offset="20%" stop-color="#cccccc" />
      <stop offset="40%" stop-color="#f0f0f0" />
      <stop offset="60%" stop-color="#bfbfbf" />
      <stop offset="80%" stop-color="#e6e6e6" />
      <stop offset="100%" stop-color="#d9d9d9" />
    </linearGradient>

    <filter id="shadow" x="-20%" y="-20%" width="140%" height="140%">
      <feGaussianBlur in="SourceAlpha" stdDeviation="3" />
      <feOffset dx="3" dy="3" result="offsetblur" />
      <feComponentTransfer>
        <feFuncA type="linear" slope="0.4" />
      </feComponentTransfer>
      <feMerge>
        <feMergeNode />
        <feMergeNode in="SourceGraphic" />
      </feMerge>
    </filter>
  </defs>

  <g filter="url(#shadow)">
    <g transform="translate(80, 200)">
      <path d="M0 0 H300 V70 H70 V400 H0 V0 Z" fill="url(#metalGrad)" stroke="#999" stroke-width="1"/>
      <rect x="70" y="165" width="160" height="70" fill="url(#metalGrad)" stroke="#999" stroke-width="1"/>
      <rect x="70" y="330" width="230" height="70" fill="url(#metalGrad)" stroke="#999" stroke-width="1"/>
      <g fill="#333" font-family="Arial" font-weight="bold" font-size="14">
        <path stroke="#555" stroke-width="1" d="M10 0 V15 M20 0 V8 M30 0 V8 M40 0 V12 M50 0 V20 M60 0 V8 M70 0 V8 M80 0 V12 M90 0 V8 M100 0 V25 M110 0 V8 M120 0 V8 M130 0 V12 M140 0 V8 M150 0 V20 M160 0 V8 M170 0 V8 M180 0 V12 M190 0 V8 M200 0 V25 M210 0 V8 M220 0 V8 M230 0 V12 M240 0 V8 M250 0 V20 M260 0 V8 M270 0 V8 M280 0 V12 M290 0 V8" />
        <text x="95" y="45">1</text> <text x="195" y="45">2</text> <text x="280" y="45">3</text>
        <path stroke="#555" stroke-width="1" d="M0 10 H15 M0 20 H8 M0 30 H8 M0 40 H12 M0 50 H20 M0 60 H8 M0 70 H8 M0 80 H12 M0 90 H8 M0 100 H25 M0 110 H8 M0 120 H8 M0 130 H12 M0 140 H8 M0 150 H20 M0 160 H8 M0 170 H8 M0 180 H12 M0 190 H8 M0 200 H25 M0 210 H8 M0 220 H8 M0 230 H12 M0 240 H8 M0 250 H20 M0 260 H8 M0 270 H8 M0 280 H12 M0 290 H8 M0 300 H25 M0 310 H8 M0 320 H8 M0 330 H12 M0 340 H8 M0 350 H20 M0 360 H8 M0 370 H8 M0 380 H12 M0 390 H8" />
        <text x="35" y="105">1</text> <text x="35" y="205">2</text> <text x="35" y="305">3</text>
        <path stroke="#555" stroke-width="1" d="M70 165 V175 M80 165 V170 M90 165 V170 M100 165 V175 M110 165 V170 M120 165 V180 M130 165 V170 M140 165 V170 M150 165 V185 M160 165 V170 M170 165 V170 M180 165 V175 M190 165 V170 M200 165 V185 M210 165 V170 M220 165 V170" />
        <text x="145" y="205">2</text>
        <path stroke="#555" stroke-width="1" d="M70 330 V340 M80 330 V335 M90 330 V335 M100 330 V340 M110 330 V335 M120 330 V345 M130 330 V335 M140 330 V335 M150 330 V350 M160 330 V335 M170 330 V335 M180 330 V340 M190 330 V335 M200 330 V345 M210 330 V335 M220 330 V335 M230 330 V340 M240 330 V335 M250 330 V350 M260 330 V335 M270 330 V335 M280 330 V340 M290 330 V335" />
        <text x="145" y="370">2</text> <text x="245" y="370">3</text> <text x="280" y="370">cm</text>
      </g>
    </g>

    <g transform="translate(420, 200)">
      <path d="M0 0 H300 V70 H70 V400 H0 V0 Z" fill="url(#metalGrad)" stroke="#999" stroke-width="1"/>
      <rect x="70" y="165" width="160" height="70" fill="url(#metalGrad)" stroke="#999" stroke-width="1"/>
      <g fill="#333" font-family="Arial" font-weight="bold" font-size="14">
        <path stroke="#555" stroke-width="1" d="M10 0 V15 M20 0 V8 M30 0 V8 M40 0 V12 M50 0 V20 M60 0 V8 M70 0 V8 M80 0 V12 M90 0 V8 M100 0 V25 M110 0 V8 M120 0 V8 M130 0 V12 M140 0 V8 M150 0 V20 M160 0 V8 M170 0 V8 M180 0 V12 M190 0 V8 M200 0 V25 M210 0 V8 M220 0 V8 M230 0 V12 M240 0 V8 M250 0 V20 M260 0 V8 M270 0 V8 M280 0 V12 M290 0 V8" />
        <text x="95" y="45">1</text> <text x="195" y="45">2</text> <text x="280" y="45">3</text>
        <path stroke="#555" stroke-width="1" d="M0 10 H15 M0 20 H8 M0 30 H8 M0 40 H12 M0 50 H20 M0 60 H8 M0 70 H8 M0 80 H12 M0 90 H8 M0 100 H25 M0 110 H8 M0 120 H8 M0 130 H12 M0 140 H8 M0 150 H20 M0 160 H8 M0 170 H8 M0 180 H12 M0 190 H8 M0 200 H25 M0 210 H8 M0 220 H8 M0 230 H12 M0 240 H8 M0 250 H20 M0 260 H8 M0 270 H8 M0 280 H12 M0 290 H8 M0 300 H25 M0 310 H8 M0 320 H8 M0 330 H12 M0 340 H8 M0 350 H20 M0 360 H8 M0 370 H8 M0 380 H12 M0 390 H8" />
        <text x="35" y="105">1</text> <text x="35" y="205">2</text> <text x="35" y="305">3</text>
        <path stroke="#555" stroke-width="1" d="M70 165 V175 M80 165 V170 M90 165 V170 M100 165 V175 M110 165 V170 M120 165 V180 M130 165 V170 M140 165 V170 M150 165 V185 M160 165 V170 M170 165 V170 M180 165 V175 M190 165 V170 M200 165 V185 M210 165 V170 M220 165 V170" />
        <text x="145" y="205">1</text>
      </g>
    </g>
  </g>

  <g transform="translate(0, 0)">
    <path d="M 20 720
             L 260 440
             L 420 580
             L 680 150 
             L 720 200 
             L 720 60 
             L 590 110 
             L 650 125 
             L 420 500
             L 260 360
             L 30 640
             Z"   
          fill="#d4af37" stroke="#997000" stroke-width="1" stroke-linejoin="round"/>
  </g>
</svg>